<?xml version="1.0" standalone="no"?>
<!DOCTYPE svg PUBLIC "-//W3C//DTD SVG 1.1//EN" "http://www.w3.org/Graphics/SVG/1.1/DTD/svg11.dtd" >
<svg>
<metadata>
Created by FontForge 20090914 at Thu Sep  5 09:57:22 2013
 By www-data
Copyright (c) Dubina Nikolay / D-Studio (Moscow), 2000. All rights reserved.
</metadata>
<defs>
<font id="DSCoptic" horiz-adv-x="668" >
  <font-face 
    font-family="DS Coptic"
    font-weight="400"
    font-stretch="normal"
    units-per-em="1000"
    panose-1="3 8 5 3 6 0 0 2 0 4"
    ascent="800"
    descent="-200"
    x-height="714"
    cap-height="715.003"
    bbox="3 -336.001 1262 1017"
    underline-thickness="50"
    underline-position="-75"
    unicode-range="U+0020-U+201A"
  />
<missing-glyph horiz-adv-x="500" 
 />
    <glyph glyph-name=".notdef" horiz-adv-x="500" 
 />
    <glyph glyph-name="FL0020h" unicode=" " horiz-adv-x="500" 
 />
    <glyph glyph-name="exclam" unicode="!" horiz-adv-x="275" 
d="M236 200c-0.666992 16.667 -1.33203 35.667 -1.99902 57s-1.66699 45 -3 71c-1.33301 26.667 -2.33301 49.667 -3 69s-1.33398 35.666 -2.00098 48.999l-3 77c0 3.33301 0.5 16.666 1.5 39.999s2.83301 56.333 5.5 99c0.666992 24.667 2.66699 61.667 6 111
c0 15.333 -3.33301 27.333 -10 36c-9.33301 13.333 -25.333 20 -48 20c-44 0 -79.167 -5.33301 -105.5 -16s-39.5 -27.334 -39.5 -50.001c2 -9.33301 3.66699 -18 5 -26s2.33301 -15.333 3 -22c2.66699 -19.333 4.66699 -37.666 6 -54.999s2 -33.666 2 -48.999
c0 -99.333 -1.5 -182.666 -4.5 -249.999s-6.83301 -121 -11.5 -161c0 -24 13.333 -45.333 40 -64s54.667 -28 84 -28c52.667 0 79 30.667 79 92zM201.002 -38c0 18 -6.33301 33.333 -19 46s-28 19 -46 19s-33.333 -6.33301 -46 -19s-19 -28 -19 -46s6.33301 -33.333 19 -46
s28 -19 46 -19s33.333 6.33301 46 19s19 28 19 46z" />
    <glyph glyph-name="quotedbl" unicode="&#x22;" horiz-adv-x="358" 
d="M152 654c7.33301 6 13.3311 13.3301 17.998 21.9971s7 18.334 7 29.001c0 16.667 -5.83301 30.5 -17.5 41.5s-26.167 16.5 -43.5 16.5c-16 0 -29.833 -6.16699 -41.5 -18.5s-17.5 -26.833 -17.5 -43.5c0 -2 1 -4.66699 3 -8s4.33301 -6.5 7 -9.5
s5.33398 -5.83301 8.00098 -8.5s4.33398 -5 5.00098 -7c0 -8 -2 -16.333 -6 -25s-8.33301 -17.167 -13 -25.5s-9 -16.666 -13 -24.999s-6 -15.833 -6 -22.5l4 -5c12 6 22.5 11.833 31.5 17.5s17.5 11.834 25.5 18.501s15.833 14.167 23.5 22.5s16.167 18.5 25.5 30.5z
M299.998 652.997c7.33301 6 13.3311 13.3301 17.998 21.9971s7 18.334 7 29.001c0 16.667 -5.83301 30.5 -17.5 41.5s-26.167 16.5 -43.5 16.5c-16 0 -29.833 -6.16699 -41.5 -18.5s-17.5 -26.833 -17.5 -43.5c0 -2 1 -4.66699 3 -8s4.33301 -6.5 7 -9.5
s5.33398 -5.83301 8.00098 -8.5s4.33398 -5 5.00098 -7c0 -8 -2 -16.333 -6 -25s-8.33301 -17.167 -13 -25.5s-9 -16.666 -13 -24.999s-6 -15.833 -6 -22.5l4 -5c12 6 22.5 11.833 31.5 17.5s17.5 11.834 25.5 18.501s15.833 14.167 23.5 22.5s16.167 18.5 25.5 30.5z" />
    <glyph glyph-name="asterisk" unicode="*" horiz-adv-x="396" 
d="M16 383c0 -7.33301 2.83496 -14.5029 8.50195 -21.5029s14.167 -10.5 25.5 -10.5s19.666 2.33301 24.999 7c6.66699 4.66699 18.667 16.667 36 36c7.33301 8.66699 14 15.834 20 21.501s11.333 10.167 16 13.5c1.33301 1.33301 5.5 4.33301 12.5 9l27.5 18l1 -7
c0.666992 -3.33301 1 -10 1 -20c0 -14.667 -3.33301 -33 -10 -55c-12 -42 -18 -65.333 -18 -70c0 -12 3.5 -21.5 10.5 -28.5s15.167 -10.5 24.5 -10.5c12 0 21.5 4.33301 28.5 13s10.5 18.334 10.5 29.001l-10 31l-10 31c-5.33301 21.333 -8 48 -8 80v7l7 -3
c19.333 -8 43 -28.667 71 -62c23.333 -27.333 42.666 -41 57.999 -41c10 0 18.5 3.16699 25.5 9.5s10.5 15.166 10.5 26.499c0 21.333 -16 35.666 -48 42.999c-51.333 10.667 -87.333 22.667 -108 36l-8 5c32 19.333 72 34 120 44c28.667 6 43 20.333 43 43
c0 12.667 -4 21.834 -12 27.501s-16 8.5 -24 8.5c-10.667 0 -33.667 -18.667 -69 -56c-10 -11.333 -20 -21 -30 -29s-19.667 -14.667 -29 -20l-7 -4v26c0 15.333 3 34 9 56c12 44 18 67.667 18 71c0 9.33301 -2.66699 18.166 -8 26.499s-14 12.5 -26 12.5
c-7.33301 0 -14.333 -1.66699 -21 -5c-10.667 -6 -16 -17.333 -16 -34c0 -10 4 -28 12 -54c8.66699 -24 13 -52 13 -84v-13c-26 13.333 -59.333 42 -100 86c-12 12.667 -25 19 -39 19s-24 -7 -30 -21c-2 -5.33301 -3 -9.66602 -3 -12.999c0 -22 17.333 -37 52 -45
c52.667 -13.333 86.667 -24.666 102 -33.999l11 -7c-23.333 -17.333 -61.333 -31.333 -114 -42c-34 -7.33301 -51 -22.666 -51 -45.999z" />
    <glyph glyph-name="comma" unicode="," horiz-adv-x="184" 
d="M142 11c7.33301 6 13.3311 13.3301 17.998 21.9971s7 18.334 7 29.001c0 16.667 -5.83301 30.5 -17.5 41.5s-26.167 16.5 -43.5 16.5c-16 0 -29.833 -6.16699 -41.5 -18.5s-17.5 -26.833 -17.5 -43.5c0 -2 1 -4.66699 3 -8s4.33301 -6.5 7 -9.5
s5.33398 -5.83301 8.00098 -8.5s4.33398 -5 5.00098 -7c0 -8 -2 -16.333 -6 -25s-8.33301 -17.167 -13 -25.5s-9 -16.666 -13 -24.999s-6 -15.833 -6 -22.5l4 -5c12 6 22.5 11.833 31.5 17.5s17.5 11.834 25.5 18.501s15.833 14.167 23.5 22.5s16.167 18.5 25.5 30.5z" />
    <glyph glyph-name="hyphen" unicode="-" horiz-adv-x="600" 
d="M554 524h-462l-46 -82h470z" />
    <glyph glyph-name="period" unicode="." horiz-adv-x="195" 
d="M98 -6c16.667 0 30.5 6.16699 41.5 18.5s16.5 26.833 16.5 43.5s-5.83301 30.5 -17.5 41.5s-26.167 16.5 -43.5 16.5c-16 0 -29.833 -6.16699 -41.5 -18.5s-17.5 -26.833 -17.5 -43.5s6.16699 -30.5 18.5 -41.5s26.833 -16.5 43.5 -16.5z" />
    <glyph glyph-name="zero" unicode="0" horiz-adv-x="825" 
d="M788 382c0 53.333 -10.668 102.833 -32.001 148.5s-50 85.334 -86 119.001s-77.333 60 -124 79s-95 28.5 -145 28.5c-102.667 0 -188.667 -35.333 -258 -106c-69.333 -70 -104 -159.333 -104 -268v-8c0 -4 -0.333008 -10 -1 -18c0 -48.667 6 -92.334 18 -131.001
c18.667 -62.667 52.334 -113.667 101.001 -153c60.667 -48.667 143 -73 247 -73c60 -0 112.833 8.33301 158.5 25s85.5 40.667 119.5 72c36.667 34 63.5 76.5 80.5 127.5s25.5 103.5 25.5 157.5zM616.999 348c0 -53.333 -13.333 -104.001 -40 -152.001
c-38.667 -68.667 -97.334 -103 -176.001 -103c-65.333 0 -117.666 34.667 -156.999 104c-29.333 52.667 -44 103 -44 151c0 92.667 17.667 166.334 53 221.001c38.667 59.333 88 89 148 89c50 0 93.667 -17.667 131 -53c56.667 -52 85 -137.667 85 -257z" />
    <glyph glyph-name="one" unicode="1" horiz-adv-x="335" 
d="M284 87c-0.666992 16.667 -1.33105 35.6719 -1.99805 57.0049s-1.66699 45 -3 71c-0.666992 22.667 -1.33398 42 -2.00098 58s-1.33398 31 -2.00098 45l-2 42c-0.666992 14 -1.33398 30.667 -2.00098 50c0 3.33301 0.5 16.666 1.5 39.999s2.83301 56.333 5.5 99
c0 6 0.166992 14.667 0.5 26s0.833008 23.833 1.5 37.5l2 42c0.666992 14.333 1.33398 27.5 2.00098 39.5c0 15.333 -3.33301 27.333 -10 36c-9.33301 13.333 -25.333 20 -48 20c-44 0 -76.667 -6 -98 -18s-37 -28 -47 -48c-9.33301 -10.667 -17.833 -22.834 -25.5 -36.501
s-14.167 -28 -19.5 -43s-9.5 -29.833 -12.5 -44.5s-4.5 -28.334 -4.5 -41.001c0 -9.33301 2.66699 -16.5 8 -21.5s12 -8.66699 20 -11s16.5 -3.83301 25.5 -4.5s17.167 -1 24.5 -1c-0.666992 -94.667 -2.5 -174.334 -5.5 -239.001s-6.5 -116.334 -10.5 -155.001
c0 -24 13.333 -45.333 40 -64s54.667 -28 84 -28c52.667 0 79 30.667 79 92z" />
    <glyph glyph-name="two" unicode="2" horiz-adv-x="778" 
d="M703 514c0 62.667 -26.002 117.67 -78.002 165.003c-25.333 23.333 -52.833 41 -82.5 53s-60.5 18 -92.5 18c-82.667 0 -163.334 -6.66699 -242.001 -20c-79.333 -12.667 -119 -29.667 -119 -51c0 -37.333 14.667 -56 44 -56c14.667 0 51 10.333 109 31
c59.333 20.667 106.333 31 141 31c38 0 67 -10.333 87 -31c23.333 -24 35 -64.667 35 -122c0 -12.667 -12 -32.334 -36 -59.001s-54 -57 -90 -91l-117 -107l-117 -106c-36 -33.333 -66 -62.833 -90 -88.5s-36 -43.834 -36 -54.501c1.33301 -13.333 6.16602 -26 14.499 -38
s19.833 -18 34.5 -18l63.5 5l77 6c25.667 2 49 3.66699 70 5s35.167 2 42.5 2c32 1.33301 61.333 2.5 88 3.5s51.334 1.5 74.001 1.5c42 0 66 -16.667 72 -50c2 -13.333 6.5 -23.5 13.5 -30.5s15.5 -12 25.5 -15s21 -4.83301 33 -5.5s24 -1 36 -1
c24.667 0 42.334 4.33301 53.001 13c14.667 12 22 34.333 22 67l-1 1c-0.666992 18 -2.16699 33.833 -4.5 47.5s-6.16602 24.167 -11.499 31.5c-17.333 21.333 -55.333 32 -114 32c-10 0 -21.833 -0.5 -35.5 -1.5l-46.5 -3.5c-41.333 -4 -73.333 -7 -96 -9l-171 11
c28.667 20.667 59.5 45.167 92.5 73.5s65.667 57.833 98 88.5l94 91.5l80.5 83.5c23.333 25.333 42.333 46.666 57 63.999s22.334 28.333 23.001 33z" />
    <glyph glyph-name="three" unicode="3" horiz-adv-x="665" 
d="M630 515c0 62.667 -26.002 117.666 -78.002 164.999c-25.333 23.333 -52.833 41 -82.5 53s-60.5 18 -92.5 18c-82.667 0 -163.334 -6.66699 -242.001 -20c-79.333 -12.667 -119 -29.667 -119 -51c0 -37.333 14.667 -56 44 -56c14.667 0 51 10.333 109 31
c59.333 20.667 106.333 31 141 31c38 0 67 -10.333 87 -31c23.333 -24 35 -64.667 35 -122c0 -12.667 -7.16699 -25.5 -21.5 -38.5s-32.5 -25.833 -54.5 -38.5s-46.5 -25 -73.5 -37l-78 -33.5l-68 -28c-20.333 -8.33301 -35.166 -15.166 -44.499 -20.499
c-2.66699 -2 0.833008 -5.83301 10.5 -11.5s22.834 -12.5 39.501 -20.5s35.334 -16.5 56.001 -25.5l59.5 -25.5l50.5 -21c14.667 -6 24 -10 28 -12c83.333 -38 125 -79 125 -123s-10.5 -78.667 -31.5 -104s-52.833 -38 -95.5 -38h-22c-44.667 0 -75 -5.5 -91 -16.5
s-24 -27.167 -24 -48.5c0 -14 8.66699 -26 26 -36c14 -8 29 -12 45 -12c11.333 0 42.666 7.66699 93.999 23c70.667 22 128.334 49.667 173.001 83c62 46.667 93 102 93 166c0 60 -37.333 111 -112 153c-16 7.33301 -32 13.666 -48 18.999l-47.5 15.5l-47.5 15.5
c-16 5.33301 -32 11.666 -48 18.999c34 10.667 68.667 24.334 104 41.001s67.5 33.667 96.5 51s53.167 33.833 72.5 49.5s30 27.834 32 36.501z" />
    <glyph glyph-name="four" unicode="4" horiz-adv-x="642" 
d="M213 341c-10 6.66699 -18.0039 17.667 -24.0039 33s-10.5 32.166 -13.5 50.499s-5 37.5 -6 57.5s-1.5 38.333 -1.5 55c0 8 0.333008 19.667 1 35s2 31.666 4 48.999s4.83301 34.166 8.5 50.499s8.16699 29.5 13.5 39.5c-2.66699 6.66699 -9.83398 12.5 -21.501 17.5
s-24.667 9 -39 12s-28.666 5.16699 -42.999 6.5s-25.833 2 -34.5 2c-6 0 -10.5 -2.5 -13.5 -7.5s-5.16699 -11.5 -6.5 -19.5s-2.5 -17.167 -3.5 -27.5s-2.5 -20.833 -4.5 -31.5c-2.66699 -16.667 -4.83398 -32.167 -6.50098 -46.5s-2.83398 -28.5 -3.50098 -42.5
s-1.16699 -28.333 -1.5 -43s-0.5 -30.334 -0.5 -47.001c0 -32.667 7.66699 -66 23 -100s39 -63.333 71 -88c11.333 -9.33301 27.5 -18.333 48.5 -27s43.833 -16.667 68.5 -24s49.5 -13.166 74.5 -17.499s47.5 -6.5 67.5 -6.5c9.33301 0 17.833 -1.16699 25.5 -3.5
s13.834 -3.5 18.501 -3.5v-226c0 -15.333 10.333 -23 31 -23c2.66699 0 6.83398 0.166992 12.501 0.5s11.834 0.833008 18.501 1.5s13.5 1.16699 20.5 1.5s13.167 0.5 18.5 0.5h33c10.667 0 20.667 -0.333008 30 -1c11.333 0 18 0.333008 20 1l-6 45.5l-6 45.5
c-4 27.333 -8.16699 53 -12.5 77l-12 69c-3.66699 22 -6.66699 43 -9 63s-3.5 39.667 -3.5 59v224v10c0 5.33301 0.166992 11.333 0.5 18s0.833008 13.167 1.5 19.5s1.33398 10.833 2.00098 13.5c6.66699 24.667 10 42.334 10 53.001c0 25.333 -9.33301 44.333 -28 57
c-12.667 8.66699 -24.167 15.167 -34.5 19.5s-22.166 6.5 -35.499 6.5s-24.166 -4.16699 -32.499 -12.5s-14.833 -18.333 -19.5 -30s-8 -23.834 -10 -36.501s-3 -23.667 -3 -33c0 -5.33301 0.166992 -13.666 0.5 -24.999s1 -23.666 2 -36.999s2.16699 -26.833 3.5 -40.5
s3 -25.167 5 -34.5v-225l-58.5 18l-57 16.5l-45.5 13c-12.667 3.66699 -21 6.83398 -25 9.50098z" />
    <glyph glyph-name="five" unicode="5" horiz-adv-x="622" 
d="M592 646c0 15.333 -0.830078 28.835 -2.49707 40.502s-5.83398 20.5 -12.501 26.5c-8.66699 8 -20.334 14.333 -35.001 19s-30.834 8.33398 -48.501 11.001s-36.334 4.5 -56.001 5.5s-38.834 1.5 -57.501 1.5c-21.333 0 -41.5 -0.333008 -60.5 -1s-35.167 -1 -48.5 -1
c-23.333 0 -42.666 -0.333008 -57.999 -1s-28.333 -1.16699 -39 -1.5s-19.5 -0.833008 -26.5 -1.5s-13.833 -1 -20.5 -1h-33c-10.667 0 -20.667 0.333008 -30 1c-2.66699 0 -5 -1 -7 -3c-4 -6.66699 -6 -10.667 -6 -12c0 -11.333 0.666992 -24.166 2 -38.499
s2.66602 -29.833 3.99902 -46.5l4 -52c1.33301 -18 2 -36 2 -54s-1.66699 -36.5 -5 -55.5s-7.16602 -37.333 -11.499 -55s-8.16602 -34.334 -11.499 -50.001s-5 -29.167 -5 -40.5c0 -3.33301 5.5 -8.33301 16.5 -15s24.833 -13.834 41.5 -21.501l55 -24.5l57 -24.5
l47.5 -19.5c13.667 -5.33301 22.5 -9 26.5 -11c83.333 -38 125 -79 125 -123s-10.5 -78.667 -31.5 -104s-52.833 -38 -95.5 -38h-22c-44.667 0 -75 -5.5 -91 -16.5s-24 -27.167 -24 -48.5c0 -14 8.66699 -26 26 -36c14 -8 29 -12 45 -12c11.333 0 42.666 7.66699 93.999 23
c70.667 22 128.334 49.667 173.001 83c62 46.667 93 102 93 166c0 60 -37.333 111 -112 153c-16 7.33301 -32 13.666 -48 18.999l-47.5 15.5l-47.5 15.5c-16 5.33301 -32 11.666 -48 18.999l-26 81.5c-9.33301 29.667 -14 63.167 -14 100.5
c0 11.333 1.16699 24.166 3.5 38.499s4.83301 28.5 7.5 42.5l7.5 40.5c2.33301 13 3.83301 23.5 4.5 31.5c10 1.33301 21.167 2.5 33.5 3.5s26.166 1.5 41.499 1.5c22 0 43 -2.5 63 -7.5s35.167 -9.5 45.5 -13.5s16.166 -6.33301 17.499 -7
c2.66699 -21.333 12.667 -32.666 30 -33.999l54 -4c11.333 0 20.5 0.833008 27.5 2.5s12.167 3.5 15.5 5.5c4.66699 2.66699 8.33398 6 11.001 10s4.33398 9.66699 5.00098 17h2z" />
    <glyph glyph-name="six" unicode="6" horiz-adv-x="768" 
d="M736 437c0 34.667 -6.83496 70.5039 -20.502 107.504s-32 70.667 -55 101s-49.833 55.166 -80.5 74.499s-63 29 -97 29c-10 0 -21.333 -1.16699 -34 -3.5s-26.167 -5.33301 -40.5 -9s-28.666 -7.66699 -42.999 -12s-27.833 -8.83301 -40.5 -13.5
c-10.667 0 -20 7.66699 -28 23c-6 12.667 -9 21.667 -9 27c0 10.667 7.33301 21.667 22 33s32 22 52 32s40.333 19.333 61 28l50 21c30.667 13.333 56 26 76 38s30 23.667 30 35c0 27.333 -5.16699 45.666 -15.5 54.999s-28.166 14 -53.499 14
c-2.66699 0 -9 -1.66699 -19 -5s-22.333 -7.83301 -37 -13.5s-30.667 -12.334 -48 -20.001l-51.5 -23.5c-17 -8 -32.833 -16 -47.5 -24s-26.334 -15.333 -35.001 -22c-24.667 -16.667 -45.834 -32.834 -63.501 -48.501s-33.5 -32.167 -47.5 -49.5s-27 -36.333 -39 -57
s-25 -44.667 -39 -72c-35.333 -66.667 -53 -143.667 -53 -231c0 -128.667 40.667 -239 122 -331c70.667 -79.333 142.334 -119 215.001 -119c106.667 0 195.334 42.333 266.001 127c70 86 105 189 105 309h-2zM569.998 382.004c0 -62.667 -9.33203 -117 -27.999 -163
c-26.667 -68 -67.334 -102 -122.001 -102c-76 0 -132.667 31.333 -170 94c-30 50 -45 115 -45 195c0 70 19.333 131.333 58 184c36.667 51.333 77 77 121 77c55.333 0 100 -26.333 134 -79c34.667 -52 52 -120.667 52 -206z" />
    <glyph glyph-name="seven" unicode="7" horiz-adv-x="711" 
d="M313 261l165.001 181l111 122.5l68 75.5c16 18 27.667 31.5 35 40.5s11.666 14.667 12.999 17s2 4.5 2 6.5c0 10 -1.16699 18 -3.5 24s-6.66602 10.833 -12.999 14.5s-15 6 -26 7s-25.167 1.5 -42.5 1.5h-329c-25.333 0 -38 16.667 -38 50c0 34 -37.667 51 -113 51h-14
c-5.33301 0 -11.666 0.333008 -18.999 1c-24 0 -40.333 -4.33301 -49 -13c-12.667 -10.667 -19 -33.334 -19 -68.001c0 -38.667 14 -66 42 -82c22.667 -12.667 56.334 -19 101.001 -19c3.33301 0 13.333 0.5 30 1.5s40.667 2.83301 72 5.5
c9.33301 0.666992 18.666 1.16699 27.999 1.5s19 0.5 29 0.5c32 0 55.667 -3.33301 71 -10s23 -20 23 -40c0 -11.333 -5.5 -25.666 -16.5 -42.999s-25 -36 -42 -56s-35.833 -40.667 -56.5 -62l-60 -62.5l-52.5 -57c-15.667 -17.667 -26.834 -32.834 -33.501 -45.501
c0 -26.667 -3.5 -53.5 -10.5 -80.5s-14.5 -53.333 -22.5 -79l-22.5 -74.5c-7 -24 -10.5 -46.333 -10.5 -67l52 4c18 1.33301 35.333 2.33301 52 3s31.667 1.33398 45 2.00098s23.666 1 30.999 1z" />
    <glyph glyph-name="eight" unicode="8" horiz-adv-x="633" 
d="M290 750c-25.333 -2 -50.668 -4.66406 -76.001 -7.99707s-48 -9.66602 -68 -18.999s-36.333 -22.666 -49 -39.999s-19 -41 -19 -71c0 -8.66699 2.33301 -19.334 7 -32.001s10.5 -26 17.5 -40s14.667 -28.167 23 -42.5l23 -39.5l17.5 -31
c4.66699 -8.66699 7 -14.334 7 -17.001c0 -10 -9 -20 -27 -30c-22 -12.667 -40.167 -24.834 -54.5 -36.501s-25.5 -24.334 -33.5 -38.001s-13.5 -29.167 -16.5 -46.5s-4.5 -38 -4.5 -62c0 -38 8.33301 -69.667 25 -95s37.334 -45.5 62.001 -60.5s51.167 -25.667 79.5 -32
s53.833 -9.5 76.5 -9.5h66c40.667 2.66699 76.667 8 108 16s57.5 19.5 78.5 34.5s36.833 34.333 47.5 58s16 52.5 16 86.5c0 28.667 -7 52.667 -21 72s-29.5 36.666 -46.5 51.999s-32.5 30 -46.5 44s-21 29.667 -21 47c0 4 4.83301 14.333 14.5 31l32.5 56.5
c12 21 22.833 42.167 32.5 63.5s14.5 38.333 14.5 51c0 29.333 -5.83301 53 -17.5 71s-27.167 32 -46.5 42s-41.5 16.667 -66.5 20s-50.833 5 -77.5 5h-57zM262.998 104.003c-38 16.667 -57.0029 49.333 -57.0029 98c0 56.667 21.667 94 65 112
c4.66699 2 11.834 4.16699 21.501 6.5s19.5 3.5 29.5 3.5c17.333 -3.33301 31 -6.66602 41 -9.99902c42.667 -18 64 -55.333 64 -112c0 -48.667 -19 -81.334 -57 -98.001c-7.33301 -4 -15.166 -7.16699 -23.499 -9.5s-18.166 -4.16602 -29.499 -5.49902
c-11.333 1.33301 -21.333 3.16602 -30 5.49902s-16.667 5.5 -24 9.5zM402.995 554.002c-4 -34.667 -14 -59.999 -30 -75.999c-6.66699 -6.66699 -14.5 -12.834 -23.5 -18.501s-19.833 -10.167 -32.5 -13.5c-12.667 3.33301 -23.834 7.83301 -33.501 13.5
s-17.5 11.834 -23.5 18.501c-16 17.333 -26 42.666 -30 75.999c-0.666992 2 -1 6.33301 -1 13c0 24.667 7.83301 44.667 23.5 60s37.167 25.666 64.5 30.999c26.667 -5.33301 47.834 -15.666 63.501 -30.999s23.5 -35.333 23.5 -60c0 -6.66699 -0.333008 -11 -1 -13z" />
    <glyph glyph-name="nine" unicode="9" horiz-adv-x="768" 
d="M32 316c0 -35.333 6.83496 -71.3369 20.502 -108.004s32 -70.167 55 -100.5s49.833 -55.166 80.5 -74.499s63 -29 97 -29c10 0 21.333 1.16699 34 3.5s26.167 5.33301 40.5 9s28.666 7.66699 42.999 12s27.833 8.83301 40.5 13.5c10.667 0 20 -7.66699 28 -23
c6 -13.333 9 -22.333 9 -27c0 -10.667 -7.33301 -21.667 -22 -33s-32 -22 -52 -32s-40.333 -19.333 -61 -28l-50 -21c-30.667 -13.333 -56 -26 -76 -38s-30 -23.667 -30 -35c0 -27.333 5.16699 -45.666 15.5 -54.999s28.166 -14 53.499 -14c2.66699 0 9 1.66699 19 5
s22.333 7.83301 37 13.5s30.667 12.334 48 20.001l51.5 23.5c17 8 32.833 16 47.5 24s26.334 15.333 35.001 22c24.667 16.667 45.834 32.834 63.501 48.501s33.5 32.167 47.5 49.5s27 36.333 39 57s25 44.667 39 72c35.333 66.667 53 143.667 53 231
c0 128.667 -40.667 239 -122 331c-70.667 79.333 -142.334 119 -215.001 119c-106.667 0 -195.334 -42.333 -266.001 -127c-70 -86 -105 -189 -105 -309h2zM198.002 370.996c0 62.667 9.33203 117 27.999 163c26.667 68 67.334 102 122.001 102
c76 0 132.667 -31.333 170 -94c30 -50 45 -115 45 -195c0 -70 -19.333 -131.333 -58 -184c-36.667 -51.333 -77 -77 -121 -77c-55.333 0 -100 26.333 -134 79c-34.667 52 -52 120.667 -52 206z" />
    <glyph glyph-name="colon" unicode=":" horiz-adv-x="203" 
d="M102 432c16.667 0 30.5 6.16699 41.5 18.5s16.5 26.833 16.5 43.5s-5.83301 30.5 -17.5 41.5s-26.167 16.5 -43.5 16.5c-16 0 -29.833 -6.16699 -41.5 -18.5s-17.5 -26.833 -17.5 -43.5s6.16699 -30.5 18.5 -41.5s26.833 -16.5 43.5 -16.5zM102 154
c16.667 0 30.5 6.16699 41.5 18.5s16.5 26.833 16.5 43.5s-5.83301 30.5 -17.5 41.5s-26.167 16.5 -43.5 16.5c-16 0 -29.833 -6.16699 -41.5 -18.5s-17.5 -26.833 -17.5 -43.5s6.16699 -30.5 18.5 -41.5s26.833 -16.5 43.5 -16.5z" />
    <glyph glyph-name="semicolon" unicode=";" horiz-adv-x="190" 
d="M142 165c7.33301 6 13.3311 13.3301 17.998 21.9971s7 18.334 7 29.001c0 16.667 -5.83301 30.5 -17.5 41.5s-26.167 16.5 -43.5 16.5c-16 0 -29.833 -6.16699 -41.5 -18.5s-17.5 -26.833 -17.5 -43.5c0 -2 1 -4.66699 3 -8s4.33301 -6.5 7 -9.5
s5.33398 -5.83301 8.00098 -8.5s4.33398 -5 5.00098 -7c0 -8 -2 -16.333 -6 -25s-8.33301 -17.167 -13 -25.5s-9 -16.666 -13 -24.999s-6 -15.833 -6 -22.5l4 -5c12 6 22.5 11.833 31.5 17.5s17.5 11.834 25.5 18.501s15.833 14.167 23.5 22.5s16.167 18.5 25.5 30.5z
M108.998 431.997c16.667 0 30.5 6.16699 41.5 18.5s16.5 26.833 16.5 43.5s-5.83301 30.5 -17.5 41.5s-26.167 16.5 -43.5 16.5c-16 0 -29.833 -6.16699 -41.5 -18.5s-17.5 -26.833 -17.5 -43.5s6.16699 -30.5 18.5 -41.5s26.833 -16.5 43.5 -16.5z" />
    <glyph glyph-name="semicolon" unicode="&#x37e;" horiz-adv-x="190" 
d="M142 165c7.33301 6 13.3311 13.3301 17.998 21.9971s7 18.334 7 29.001c0 16.667 -5.83301 30.5 -17.5 41.5s-26.167 16.5 -43.5 16.5c-16 0 -29.833 -6.16699 -41.5 -18.5s-17.5 -26.833 -17.5 -43.5c0 -2 1 -4.66699 3 -8s4.33301 -6.5 7 -9.5
s5.33398 -5.83301 8.00098 -8.5s4.33398 -5 5.00098 -7c0 -8 -2 -16.333 -6 -25s-8.33301 -17.167 -13 -25.5s-9 -16.666 -13 -24.999s-6 -15.833 -6 -22.5l4 -5c12 6 22.5 11.833 31.5 17.5s17.5 11.834 25.5 18.501s15.833 14.167 23.5 22.5s16.167 18.5 25.5 30.5z
M108.998 431.997c16.667 0 30.5 6.16699 41.5 18.5s16.5 26.833 16.5 43.5s-5.83301 30.5 -17.5 41.5s-26.167 16.5 -43.5 16.5c-16 0 -29.833 -6.16699 -41.5 -18.5s-17.5 -26.833 -17.5 -43.5s6.16699 -30.5 18.5 -41.5s26.833 -16.5 43.5 -16.5z" />
    <glyph glyph-name="less" unicode="&#x3c;" horiz-adv-x="563" 
d="M511 60l-425 193l425 193v68l-508 -230v-62l508 -230v68z" />
    <glyph glyph-name="equal" unicode="=" horiz-adv-x="601" 
d="M554 524h-462l-46 -82h470zM553 362h-462l-46 -82h470z" />
    <glyph glyph-name="greater" unicode="&#x3e;" horiz-adv-x="562" 
d="M51 60v-68l508 230v62l-508 230v-68l425 -193z" />
    <glyph glyph-name="A" unicode="A" horiz-adv-x="861" 
d="M845 46c0 28 -5.66895 45.666 -17.002 52.999c-6 4 -20 6 -42 6c-24 0 -42.333 3 -55 9c-21.333 9.33301 -40 28.333 -56 57l-91.5 203.5l-87.5 203.5c-23.333 54.667 -50.666 90.334 -81.999 107.001c-37.333 20 -97.666 30 -180.999 30c-20 0 -42.333 -7.33301 -67 -22
c-24.667 -14 -37 -26.667 -37 -38c0 -33.333 28.333 -51.333 85 -54c56 -2.66699 91.667 -9.66699 107 -21c20.667 -16.667 44 -52 70 -106c23.333 -50 35 -82 35 -96c0 -12 -6 -23.5 -18 -34.5s-27.333 -21.833 -46 -32.5s-39.5 -21 -62.5 -31l-66.5 -28.5
c-21.333 -9 -40.666 -17.667 -57.999 -26s-30 -15.833 -38 -22.5c-67.333 -34 -101 -59.667 -101 -77c0 -36 33.667 -68 101 -96c54 -22.667 102.667 -34 146 -34c34 0 72.667 10 116 30l61.5 28.5l69.5 33.5c25.333 0 41.666 -10 48.999 -30c14 -41.333 61.333 -62 142 -62
c44 0 75.667 3.5 95 10.5s29 20.167 29 39.5zM524.998 170.999c-15.333 -12 -42.334 -26 -81.001 -42c-39.333 -16 -69 -24 -89 -24c-4.66699 0 -20.667 7.66699 -48 23c-25.333 14.667 -38.666 24.667 -39.999 30c0 17.333 20.333 41 61 71c44 32 84 48 120 48
c32.667 0 54.667 -9.66699 66 -29c7.33301 -13.333 11 -39 11 -77z" />
    <glyph glyph-name="B" unicode="B" horiz-adv-x="688" 
d="M639 259c-4.66699 20 -14 36.999 -28 50.999c-13.333 13.333 -43.333 31 -90 53c-21.333 10 -32 19.667 -32 29c0 5.33301 24.667 37.333 74 96c12.667 14.667 22 30.334 28 47.001s9 33.334 9 50.001c0 35.333 -12 65.666 -36 90.999c-26 26.667 -61 40 -105 40h-299
c-50 0 -80.333 -3.66699 -91 -11c-10 -7.33301 -15 -31.333 -15 -72v-586c0 -22 4 -35.333 12 -40c7.33301 -4.66699 30.666 -7 69.999 -7h314c10 -0 19.5 0.333008 28.5 1s19 3.16699 30 7.5s23.667 11 38 20s31.5 21.833 51.5 38.5c17.333 14 30 31.333 38 52
s12 43.667 12 69c0 10.667 -0.666992 22.167 -2 34.5s-3.66602 24.5 -6.99902 36.5zM450 192.999c0 -46 -22.333 -77.332 -67 -93.999c-27.333 -10.667 -70 -16 -128 -16h-36v232c74 0 125.667 -5 155 -15c50.667 -16.667 76 -52.334 76 -107.001zM422 529
c-5.33301 -32.667 -17 -56.666 -35 -71.999c-32.667 -27.333 -88.667 -41 -168 -41v217c1.33301 0 3.33301 0.166992 6 0.5s5.66699 0.833008 9 1.5h23c48.667 0 88.5 -7.83301 119.5 -23.5s46.5 -38.834 46.5 -69.501c0 -6.66699 -0.333008 -11 -1 -13z" />
    <glyph glyph-name="C" unicode="C" horiz-adv-x="817" 
d="M781 175c0 14.667 -4.16699 24.499 -12.5 29.499s-18.5 7.5 -30.5 7.5c-3.33301 0 -6.83301 -0.333008 -10.5 -1s-6.16699 -1 -7.5 -1c-68 0 -117.333 -22 -148 -66c-31.333 -43.333 -72.333 -65 -123 -65c-64 0 -117.333 15.333 -160 46
c-56.667 40.667 -85 105.667 -85 195c0 84.667 13 151 39 199c34 62.667 90.667 94 170 94c73.333 0 130.666 -26 171.999 -78c18.667 -24 44.667 -36 78 -36c44 0 74.667 4.33301 92 13s26 22 26 40c0 31.333 -37.667 64 -113 98s-148.333 51 -219 51
c-114.667 0 -207 -28 -277 -84c-51.333 -41.333 -89 -96.666 -113 -165.999c-14.667 -42 -22 -80 -22 -114c0 -115.333 49 -203.333 147 -264c76.667 -48.667 166.334 -73 269.001 -73c78 0 147 16 207 48c80.667 42.667 121 85 121 127z" />
    <glyph glyph-name="D" unicode="D" horiz-adv-x="687" 
d="M509 73c98 60.667 146.999 148.666 146.999 263.999c0 34 -7.33301 72 -22 114c-24 69.333 -61.667 124.666 -113 165.999c-8 12.667 -25 24.5 -51 35.5s-55.5 20.5 -88.5 28.5s-66.5 14.333 -100.5 19s-63 7 -87 7c-44 0 -79.167 -5.33301 -105.5 -16
s-39.5 -27.334 -39.5 -50.001c2 -9.33301 3.66699 -18 5 -26s2.33301 -15.333 3 -22c2.66699 -19.333 4.66699 -37.666 6 -54.999s2 -33.666 2 -48.999c0 -99.333 -1.5 -182.666 -4.5 -249.999s-6.83301 -121 -11.5 -161c0 -24 13.333 -45.333 40 -64s54.667 -28 84 -28
c27.333 0 56 2.33301 86 7s59.833 11 89.5 19s58.334 17.333 86.001 28s52.5 21.667 74.5 33zM449.999 518.999c26 -48 39.0049 -114.323 39.0049 -198.99c0 -22 -1.33301 -43.667 -4 -65s-7.16699 -40.833 -13.5 -58.5s-15 -32.834 -26 -45.501
s-24.833 -21.334 -41.5 -26.001c-15.333 -4.66699 -29 -7.83398 -41 -9.50098s-23.667 -2.5 -35 -2.5s-22.833 0.666992 -34.5 2s-25.167 2.66602 -40.5 3.99902c0 7.33301 -0.333008 14 -1 20l-2 18.5c-0.666992 6.33301 -1.33398 13.166 -2.00098 20.499
s-1 16.666 -1 27.999c-0.666992 22.667 -1.33398 42 -2.00098 58s-1.33398 31 -2.00098 45l-2 42c-0.666992 14 -1.33398 30.667 -2.00098 50c0 3.33301 0.5 16.666 1.5 39.999s2.83301 56.333 5.5 99c0 17.333 1 41.666 3 72.999
c19.333 -0.666992 39.166 -3.16699 59.499 -7.5s39.5 -10.333 57.5 -18s34.5 -17.334 49.5 -29.001s26.5 -24.834 34.5 -39.501z" />
    <glyph glyph-name="E" unicode="E" horiz-adv-x="833" 
d="M801 201c0 10 -3.33301 16.666 -10 19.999s-15.667 5 -27 5h-10c-3.33301 0 -7 -0.333008 -11 -1c-56 0 -101.333 -23 -136 -69c-35.333 -46 -74 -69 -116 -69c-58 0 -113.333 15.667 -166 47c-66 40 -99 95.333 -99 166c0 4.66699 1.66699 9.66699 5 15
s7.66602 10 12.999 14s11 7.33301 17 10s12 4 18 4c17.333 0 36.5 -0.5 57.5 -1.5s43.833 -2.16699 68.5 -3.5s47.834 -2.5 69.501 -3.5s41.834 -1.5 60.501 -1.5l15.5 -2.5c6.33301 -1 12.833 -1.5 19.5 -1.5c16 0 29 3 39 9s15 17.667 15 35s-3.5 29.833 -10.5 37.5
s-19.167 11.5 -36.5 11.5c-36.667 0 -78.667 -2.16699 -126 -6.5s-94 -9.5 -140 -15.5c-28 0 -50.167 4 -66.5 12s-24.5 22.333 -24.5 43c0 53.333 28 99 84 137c47.333 32.667 96.666 49 147.999 49c28 0 73.667 -27 137 -81c28.667 -24.667 60 -37 94 -37
c20 0 35 1.33301 45 4c21.333 5.33301 32 15.333 32 30c0 1.33301 -0.666992 5.33301 -2 12c-14.667 48.667 -65 87 -151 115c-62 20.667 -122.667 31 -182 31c-108 0 -194.333 -23 -259 -69c-50 -35.333 -85.667 -84.666 -107 -147.999c-14 -42 -21 -88.667 -21 -140
c0 -25.333 2.5 -49.166 7.5 -71.499s15.167 -47.833 30.5 -76.5c30.667 -56.667 73 -103.334 127 -140.001c68.667 -46.667 151.667 -70 249 -70c96.667 0 181 24 253 72c64 42.667 96 85.667 96 129z" />
    <glyph glyph-name="F" unicode="F" horiz-adv-x="608" 
d="M220 511c0 50 7.66992 82.002 23.0029 96.002c15.333 14.667 50.333 22 105 22c62.667 0 98 -24.667 106 -74c2.66699 -22.667 12.667 -34 30 -34c54.667 0 87 1.33301 97 4c10.667 2.66699 16 12.334 16 29.001c-0.666992 4.66699 -1 9.66699 -1 15v19v11
c0 4.66699 0.333008 10 1 16c0 15.333 -0.833008 28.833 -2.5 40.5s-5.83398 20.5 -12.501 26.5c-9.33301 8 -21.5 14.333 -36.5 19s-31.167 8 -48.5 10s-35 3.16699 -53 3.5s-35 0.5 -51 0.5c-29.333 0 -58 -0.333008 -86 -1s-55 -1.66699 -81 -3
c-112 -7.33301 -168 -24.333 -168 -51c0 -40.667 1 -103.334 3 -188.001v-19c0 -7.33301 0.333008 -15.333 1 -24c0 -89.333 -2 -178.333 -6 -267c-1.33301 -30 -3.33301 -65.333 -6 -106c0 -10 1.16699 -18.5 3.5 -25.5s6.83301 -12.667 13.5 -17s16 -7.66602 28 -9.99902
s27.667 -3.5 47 -3.5c20 0 36 1 48 3s21.5 5.16699 28.5 9.5s11.667 10.166 14 17.499s3.5 16.333 3.5 27c0 4.66699 -0.333008 13.834 -1 27.501s-1 24.834 -1 33.501c0 26 -0.5 55.167 -1.5 87.5s-2.16699 68.166 -3.5 107.499c4.66699 8 11.667 15 21 21
s18.666 9 27.999 9l164 -14c16 0 29 3 39 9s15 17.667 15 35s-3.5 29.833 -10.5 37.5s-19.167 11.5 -36.5 11.5c-18 0 -31.167 -0.666992 -39.5 -2s-16 -3 -23 -5s-15.833 -4.33301 -26.5 -7s-27.334 -5.33398 -50.001 -8.00098c-23.333 0 -42.5 2.5 -57.5 7.5
s-25.167 13.833 -30.5 26.5c-0.666992 17.333 -1.16699 32.166 -1.5 44.499s-0.5 23.166 -0.5 32.499z" />
    <glyph glyph-name="G" unicode="G" horiz-adv-x="819" 
d="M442 266l189.999 -0.00488281l-34.5 -71.5c-10.333 -22.333 -19.166 -39.166 -26.499 -50.499c-31.333 -43.333 -72.333 -65 -123 -65c-64 0 -117.333 15.333 -160 46c-56.667 40.667 -85 105.667 -85 195c0 84.667 13 151 39 199c34 62.667 90.667 94 170 94
c73.333 0 130.666 -26 171.999 -78c18.667 -24 44.667 -36 78 -36c44 0 74.667 4.33301 92 13s26 22 26 40c0 31.333 -37.667 64 -113 98s-148.333 51 -219 51c-114.667 0 -207 -28 -277 -84c-51.333 -41.333 -89 -96.666 -113 -165.999c-14.667 -42 -22 -80 -22 -114
c0 -115.333 49 -203.333 147 -264c76.667 -48.667 166.334 -73 269.001 -73c78 0 147 16 207 48c16 8.66699 31.5 23.334 46.5 44.001s28 43.334 39 68.001s19.833 49.334 26.5 74.001s10 45.334 10 62.001c-2 15.333 -6.16699 27.333 -12.5 36s-17.833 13 -34.5 13
c-18 0 -41 -0.666992 -69 -2s-57.167 -3 -87.5 -5s-60.5 -4.33301 -90.5 -7s-56.333 -5.33398 -79 -8.00098z" />
    <glyph glyph-name="H" unicode="H" horiz-adv-x="762" 
d="M709 85l-16.9971 357.004c0.666992 28 2.66699 64 6 108c1.33301 26 3 50.5 5 73.5s4 44.167 6 63.5c0 10 -7.66699 17.167 -23 21.5s-41 6.5 -77 6.5c-24 0 -42.667 -3.66699 -56 -11c-18 -10 -27 -26.333 -27 -49c0 -2.66699 1 -10.334 3 -23.001l8 -53
c1.33301 -7.33301 2.66602 -16 3.99902 -26s3.33301 -21.667 6 -35c0 -41.333 -11 -69 -33 -83c-17.333 -11.333 -48 -17 -92 -17c-28 0.666992 -54 1.5 -78 2.5s-45.333 1.5 -64 1.5c-24 0 -40.5 6.16699 -49.5 18.5s-13.5 30.5 -13.5 54.5c0 7.33301 0.5 17 1.5 29
s2.83301 26.333 5.5 43s4.5 31 5.5 43s1.5 21.667 1.5 29c0 24 -4 42 -12 54c-10 14.667 -26.667 22 -50 22c-22 0 -45 -4.33301 -69 -13c-32.667 -10.667 -49 -26.334 -49 -47.001l14 -116c3.33301 -24.667 5.16602 -50.334 5.49902 -77.001s0.5 -54.334 0.5 -83.001
c0 -2.66699 -0.833008 -16.834 -2.5 -42.501l-7.5 -112.5l-7.5 -113.5c-1.66699 -26.333 -2.5 -41.5 -2.5 -45.5c0 -18.667 7.16699 -34.5 21.5 -47.5s31.833 -19.5 52.5 -19.5c28.667 0 52.667 4 72 12c26.667 10.667 40 29 40 55c0 4 -3 34.667 -9 92
c-3.33301 29.333 -5.83301 52 -7.5 68s-2.5 25.667 -2.5 29c0 35.333 10.333 59.333 31 72c14.667 10 37.667 15 69 15h102c40 0 69.333 -4.66699 88 -14c26 -13.333 39 -37.666 39 -72.999c0 -50 -1.83301 -89 -5.5 -117s-8.83398 -52 -15.501 -72
c0 -22 5.66699 -39.667 17 -53c8 -9.33301 17 -14 27 -14l33 -2c28.667 0 51.667 5 69 15c24.667 14 37 38.667 37 74z" />
    <glyph glyph-name="I" unicode="I" horiz-adv-x="298" 
d="M246 87c-0.666992 16.667 -1.33008 35.666 -1.99707 56.999s-1.66699 45 -3 71c-0.666992 22.667 -1.33398 42 -2.00098 58s-1.33398 31 -2.00098 45l-2 42c-0.666992 14 -1.33398 30.667 -2.00098 50c0 3.33301 0.5 16.666 1.5 39.999s2.83301 56.333 5.5 99
c0.666992 24.667 2.66699 61.667 6 111c0 15.333 -3.33301 27.333 -10 36c-9.33301 13.333 -25.333 20 -48 20c-44 0 -79.167 -5.33301 -105.5 -16s-39.5 -27.334 -39.5 -50.001c2 -9.33301 3.66699 -18 5 -26s2.33301 -15.333 3 -22
c2.66699 -19.333 4.66699 -37.666 6 -54.999s2 -33.666 2 -48.999c0 -99.333 -1.5 -182.666 -4.5 -249.999s-6.83301 -121 -11.5 -161c0 -24 13.333 -45.333 40 -64s54.667 -28 84 -28c52.667 0 79 30.667 79 92z" />
    <glyph glyph-name="J" unicode="J" horiz-adv-x="524" 
d="M4 -107l55 -26.9971c12 -11.333 23.167 -20.333 33.5 -27s20.5 -10.334 30.5 -11.001h1c7.33301 0 21 2.5 41 7.5s42.833 11.833 68.5 20.5s52.667 18.5 81 29.5s54.166 22.5 77.499 34.5s42.666 23.833 57.999 35.5s23 22.5 23 32.5c0 2 -0.666992 4.33301 -2 7v43
c0 19.333 -0.166992 40.5 -0.5 63.5l-1 71.5c-0.333008 24.667 -0.833008 47.667 -1.5 69v19c0 7.33301 -0.333008 15.333 -1 24c0 88.667 2 177.667 6 267c0 7.33301 0.166992 21.666 0.5 42.999s0.833008 44.5 1.5 69.5l2 72c0.666992 23 1.33398 39.5 2.00098 49.5
c0 10 -1.16699 18.5 -3.5 25.5s-6.83301 12.667 -13.5 17s-16 7.66602 -28 9.99902s-27.667 3.5 -47 3.5c-20 0 -36 -1 -48 -3s-21.5 -5.16699 -28.5 -9.5s-11.667 -10.166 -14 -17.499s-3.5 -16.333 -3.5 -27v-123c0 -36 0.5 -71.5 1.5 -106.5s2.16699 -72 3.5 -111
s3.66602 -84.5 6.99902 -136.5v-148c0.666992 -5.33301 1 -11 1 -17v-19c0 -18 -0.833008 -37.333 -2.5 -58s-4.83398 -40.334 -9.50098 -59.001s-11 -35.5 -19 -50.5s-18.333 -26.167 -31 -33.5c-1.33301 -0.666992 -4.66602 -1 -9.99902 -1c-6.66699 0 -15 0.666992 -25 2
s-20.167 3 -30.5 5s-19.666 4.16699 -27.999 6.5s-14.166 4.5 -17.499 6.5c-13.333 8 -24.333 12 -33 12c-8 0 -14.333 -1.66699 -19 -5l-53 -36.5c-12.667 -9 -20.667 -15.5 -24 -19.5z" />
    <glyph glyph-name="K" unicode="K" horiz-adv-x="815" 
d="M779 91c-3.33301 22.667 -33.666 33.998 -90.999 33.998s-98.666 16.667 -123.999 50c-45.333 60 -82.333 107 -111 141l-31.5 34.5l-33.5 34.5c0 20 23.333 51 70 93l62 56l63 55c45.333 41.333 68 70.666 68 87.999c0 28.667 -14.333 43 -43 43
c-65.333 0 -121 -29 -167 -87c-20.667 -26 -50.334 -80 -89.001 -162c-27.333 -57.333 -51 -86 -71 -86c-16.667 0 -30.667 6 -42 18s-17 26 -17 42v167c0 4 2 11.667 6 23c8 22.667 12 38.334 12 47.001c0 12 -4.33301 21.333 -13 28s-24 10 -46 10
c-28 0 -57.333 -8 -88 -24c-30.667 -14.667 -46 -27.667 -46 -39l18 -63l19 -63c5.33301 -34.667 9.33301 -76.334 12 -125.001s4 -105 4 -169c0 -34 -2.66699 -66.833 -8 -98.5s-11.333 -61.5 -18 -89.5c0 -19.333 6.16699 -33.166 18.5 -41.499s30.5 -12.5 54.5 -12.5
c26 0 50.333 9.33301 73 28c18.667 14.667 28 34.667 28 60c0 40 -0.666992 72.833 -2 98.5s-2 39.834 -2 42.501c0 1.33301 -0.333008 5.33301 -1 12s-1 12.334 -1 17.001c0 17.333 2.66699 31.833 8 43.5s15.666 17.5 30.999 17.5c18.667 0 45.667 -27.667 81 -83
l69.5 -107.5c16.333 -25.667 26.833 -41.167 31.5 -46.5c42.667 -54.667 83 -82 121 -82c49.333 0 98 10.667 146 32c34 14.667 51 33.667 51 57c0 4 -0.333008 7 -1 9z" />
    <glyph glyph-name="L" unicode="L" horiz-adv-x="607" 
d="M596 126l-0.000976562 17.9971c0 6 0.333008 11.333 1 16c0 16.667 -5.33301 26.334 -16 29.001c-10 2.66699 -42.333 4 -97 4c-17.333 0 -27.333 -11.333 -30 -34c-8 -49.333 -43.333 -74 -106 -74c-54.667 0 -89.667 7.33301 -105 22c-15.333 14 -23 46 -23 96
c0 11.333 0.333008 25.666 1 42.999s1.66699 38 3 62c3.33301 60.667 5.83301 114.834 7.5 162.501s2.5 89.5 2.5 125.5c0 8.66699 0.333008 19.834 1 33.501s1 22.834 1 27.501c0 10.667 -1.16699 19.667 -3.5 27s-7 13.166 -14 17.499s-16.5 7.5 -28.5 9.5s-28 3 -48 3
c-19.333 0 -35 -1.16699 -47 -3.5s-21.333 -5.66602 -28 -9.99902s-11.167 -10 -13.5 -17s-3.5 -15.5 -3.5 -25.5c2.66699 -40.667 4.66699 -76 6 -106c4 -89.333 6 -178.333 6 -267c-0.666992 -8.66699 -1 -16.667 -1 -24v-19c-2 -85.333 -3 -148 -3 -188
c0 -27.333 56 -44.333 168 -51c26 -1.33301 53 -2.33301 81 -3s56.667 -1 86 -1c16 0 33 0.166992 51 0.5s35.667 1.5 53 3.5s33.5 5.33301 48.5 10s27.167 11 36.5 19c6.66699 6 10.834 14.833 12.501 26.5s2.5 25.167 2.5 40.5c-0.666992 6 -1 11 -1 15v12z" />
    <glyph glyph-name="M" unicode="M" horiz-adv-x="901" 
d="M848 39l-6.99805 107.999c-1.33301 21.333 -2.33301 42.666 -3 63.999s-1 42.333 -1 63v285c0 1.33301 0.5 6.5 1.5 15.5s2.16699 22.167 3.5 39.5c0.666992 3.33301 1 7.33301 1 12v17c0 20.667 -5 36.334 -15 47.001s-29 16 -57 16c-35.333 0 -74.333 -31.333 -117 -94
l-101 -175c-36 -62 -64 -93 -84 -93c-36.667 0 -74.334 31.333 -113.001 94l-45 86l-45 87c-32 62 -59 93 -81 93c-36.667 0 -66.334 -4 -89.001 -12c-30 -11.333 -45 -28 -45 -50l12 -70c1.33301 -13.333 2.5 -29.333 3.5 -48s1.5 -40.667 1.5 -66
c0 -102.667 -1 -187.667 -3 -255s-4.66699 -120.666 -8 -159.999c0 -19.333 5.66699 -31.666 17 -36.999s32.333 -8 63 -8c76 0 114 15 114 45c-4.66699 44.667 -8.83398 90.667 -12.501 138s-5.5 101.666 -5.5 162.999c-0.666992 3.33301 -1 10 -1 20
c0 8 1.33301 17.667 4 29c3.33301 13.333 10.666 20 21.999 20c16 0 44 -31.333 84 -94s77.667 -94 113 -94c42.667 0 79.334 31.333 110.001 94s58 94 82 94c14 0 24 -8 30 -24c4 -11.333 6 -25 6 -41v-6c0 -2 -0.333008 -4.66699 -1 -8
c0 -20.667 -0.333008 -43.5 -1 -68.5s-1.66699 -52.5 -3 -82.5c-3.33301 -59.333 -6.33301 -107.333 -9 -144c0 -14.667 2.33301 -25.167 7 -31.5s16.334 -9.5 35.001 -9.5c48.667 0 83.667 4.16699 105 12.5s32 17.833 32 28.5z" />
    <glyph glyph-name="N" unicode="N" horiz-adv-x="781" 
d="M729 663c0 13.333 -5.49805 25.168 -16.498 35.501s-23.5 15.5 -37.5 15.5c-48 0 -82.5 -4.66699 -103.5 -14s-31.5 -21.666 -31.5 -36.999c3.33301 -38 6.33301 -75 9 -111s5.66699 -71.667 9 -107c6 -70 9 -115.333 9 -136c0 -14.667 -2 -27.334 -6 -38.001
s-10.333 -16 -19 -16c-6 0 -12.333 2.33301 -19 7c-30.667 19.333 -68.334 67.666 -113.001 144.999l-57.5 100l-57.5 100c-44 66.667 -81.667 100 -113 100c-41.333 0 -74.333 -6.33301 -99 -19c-19.333 -10 -29 -19.333 -29 -28c0 -25.333 4 -113.333 12 -264
c0 -25.333 -0.5 -52.833 -1.5 -82.5s-2.16699 -61.834 -3.5 -96.501s-2.83301 -67.334 -4.5 -98.001s-3.5 -59.667 -5.5 -87c0 -13.333 4.66699 -22.166 14 -26.499s23.333 -6.5 42 -6.5c39.333 0 69.833 6.33301 91.5 19s33.167 28.334 34.5 47.001l-13 331
c-0.666992 2.66699 -1 9 -1 19c0 14.667 1 29 3 43c4.66699 30.667 14 46 28 46c21.333 0 54.666 -44 99.999 -132l61 -120.5l61 -121.5c45.333 -87.333 77 -131 95 -131c4.66699 0 13 -0.333008 25 -1s21.333 -1 28 -1c30.667 0 52.667 4.33301 66 13c20 12 30 34 30 66
c0.666992 27.333 1.16699 53.166 1.5 77.499s0.833008 47.833 1.5 70.5s1.5 53.334 2.5 92.001l3.5 140c1.33301 54.667 2.33301 99.167 3 133.5s1 58.833 1 73.5z" />
    <glyph glyph-name="O" unicode="O" horiz-adv-x="907" 
d="M868 365c0 102 -43.667 187.668 -131 257.001c-83.333 66 -182 99 -296 99c-112.667 0 -207.667 -33.667 -285 -101c-76.667 -66.667 -115 -151.667 -115 -255v-8c0 -4 -0.333008 -9.66699 -1 -17c0 -44.667 6.66699 -86.334 20 -125.001
c20.667 -59.333 57.667 -107.666 111 -144.999c67.333 -46.667 158.333 -70 273 -70c132 0 234.667 30.667 308 92c52.667 44 87.667 101.667 105 173c7.33301 31.333 11 64.666 11 99.999zM679 332.001c0 -51.333 -14.665 -99.667 -43.998 -145
c-42 -65.333 -106.667 -98 -194 -98c-72.667 0 -130.334 33 -173.001 99c-32 48.667 -48 96.667 -48 144c0 89.333 19.333 159.333 58 210c42.667 56.667 97 85 163 85c55.333 0 103.666 -16.667 144.999 -50c62 -50 93 -131.667 93 -245z" />
    <glyph glyph-name="P" unicode="P" horiz-adv-x="644" 
d="M636 484c0 75.333 -28.6709 131.002 -86.0039 167.002c-63.333 40.667 -169.333 61 -318 61c-57.333 0 -98.666 -8.66699 -123.999 -26c-18.667 -12.667 -28 -31.667 -28 -57c0 -10.667 3.33301 -28.334 10 -53.001c2.66699 -10 4 -18 4 -24v-224
c0 -38.667 -1 -80.667 -3 -126s-5.33301 -94 -10 -146c-5.33301 -65.333 -13.333 -139.333 -24 -222l-6 -45.5l-6 -45.5c2 -0.666992 8.66699 -1 20 -1c9.33301 0.666992 19.333 1 30 1h33c5.33301 0 11.5 -0.166992 18.5 -0.5s13.833 -0.833008 20.5 -1.5
s12.834 -1.16699 18.501 -1.5s9.83398 -0.5 12.501 -0.5c22.667 0 34 9.66699 34 29v732c-1.33301 5.33301 -2.66602 12 -3.99902 20s-2 16.667 -2 26c0 23.333 5.33301 41.333 16 54c14 17.333 37 26 69 26c41.333 0 80.333 -12.667 117 -38c30 -21.333 45 -49 45 -83
c0 -72.667 -18.333 -120.334 -55 -143.001c-21.333 -13.333 -60.333 -36.333 -117 -69l63 -16c56.667 0 112.667 16.333 168 49c69.333 41.333 104 94 104 158z" />
    <glyph glyph-name="Q" unicode="Q" horiz-adv-x="921" 
d="M861 365c0 102 -43.667 187.67 -131 257.003c-83.333 66 -182 99 -296 99c-112.667 0 -207.667 -33.667 -285 -101c-76.667 -66.667 -115 -151.667 -115 -255v-8c0 -4 -0.333008 -9.66699 -1 -17c0 -44.667 6.66699 -86.334 20 -125.001
c20.667 -59.333 57.667 -107.666 111 -144.999c67.333 -46.667 158.333 -70 273 -70c87.333 0 162.333 13.667 225 41c21.333 -11.333 38.833 -22.166 52.5 -32.499s20.5 -19.166 20.5 -26.499c0 -4 -2 -7.33301 -6 -10c-6 -4.66699 -16.5 -10.334 -31.5 -17.001
s-32.167 -13.667 -51.5 -21s-40 -14.5 -62 -21.5s-42.833 -13.333 -62.5 -19s-37.5 -10.334 -53.5 -14.001s-27.667 -5.5 -35 -5.5c-36.667 0 -73.5 4.33301 -110.5 13s-70.5 19 -100.5 31c-16.667 0 -31.834 -4.83301 -45.501 -14.5s-20.5 -19.5 -20.5 -29.5
c0 -23.333 36 -42 108 -56c6 -1.33301 16.167 -2.83301 30.5 -4.5s30 -3.33398 47 -5.00098l51.5 -5c17.333 -1.66699 32 -3.16699 44 -4.5c14.667 0.666992 35.834 3.16699 63.501 7.5s58 10.666 91 18.999s66.833 18.333 101.5 30s66.167 25.167 94.5 40.5
s51.5 32.333 69.5 51s27 38.667 27 60c0 16.667 -11 34.834 -33 54.501s-48.667 38.167 -80 55.5c38.667 41.333 65 90.666 79 147.999c7.33301 31.333 11 64.666 11 99.999zM427 167.003c0 -6 10.0029 -14.502 30.0029 -25.502s44 -23.167 72 -36.5
c-27.333 -10.667 -59 -16 -95 -16c-72.667 0 -130.334 33 -173.001 99c-32 48.667 -48 96.667 -48 144c0 89.333 19.333 159.333 58 210c42.667 56.667 97 85 163 85c55.333 0 103.666 -16.667 144.999 -50c62 -50 93 -131.667 93 -245
c0 -51.333 -14.667 -99.666 -44 -144.999c-1.33301 -1.33301 -2.33301 -2.66602 -3 -3.99902l-2 -4c-11.333 3.33301 -21.333 5.83301 -30 7.5s-16.334 2.5 -23.001 2.5z" />
    <glyph glyph-name="R" unicode="R" horiz-adv-x="704" 
d="M513 111c-2 0.666992 -8.83789 7 -20.5049 19l-40 42.5l-44.5 49.5c-14.667 16.667 -26 30.334 -34 41.001l-11 14c56.667 0 112.667 16.333 168 49c69.333 41.333 104 94 104 158c0 75.333 -28.667 131 -86 167c-63.333 40.667 -169.333 61 -318 61
c-57.333 0 -98.666 -8.66699 -123.999 -26c-18.667 -12.667 -28 -31.667 -28 -57c0 -10.667 3.33301 -28.334 10 -53.001c2.66699 -10 4 -18 4 -24v-224c0 -24.667 -0.666992 -46.167 -2 -64.5s-3.33301 -35.166 -6 -50.499s-5.66699 -30.166 -9 -44.499
s-6.66602 -29.5 -9.99902 -45.5l-11 -53.5c-4 -19.667 -7.66699 -42.834 -11 -69.501c2 -0.666992 8.66699 -1 20 -1c9.33301 0.666992 19.333 1 30 1h33c5.33301 0 11.5 -0.166992 18.5 -0.5s13.833 -0.833008 20.5 -1.5s12.834 -1.16699 18.501 -1.5
s9.83398 -0.5 12.501 -0.5c22.667 0 34 9.66699 34 29v278c4.66699 -6.66699 10.167 -15.167 16.5 -25.5l19 -32.5l18.5 -33c6 -10.667 11 -20 15 -28c22.667 -46 42.167 -81.333 58.5 -106s26.166 -39.334 29.499 -44.001c4.66699 -6.66699 11.667 -12.167 21 -16.5
s18.833 -7.83301 28.5 -10.5s18.334 -4.5 26.001 -5.5s11.834 -1.5 12.501 -1.5l59 3l34 -2c11.333 -0.666992 22 -1 32 -1c22 -0 38.5 4.83301 49.5 14.5s16.5 28.5 16.5 56.5c0 8 -3.33301 14.667 -10 20s-14.167 9.83301 -22.5 13.5s-16.5 6.16699 -24.5 7.5s-13 2 -15 2
zM230.995 500c-1.33301 5.33301 -2.66699 12.001 -4 20.001s-2 16.667 -2 26c0 23.333 5.33301 41.333 16 54c14 17.333 37 26 69 26c41.333 0 80.333 -12.667 117 -38c30 -21.333 45 -49 45 -83c0 -72.667 -18.333 -120.334 -55 -143.001l-43.5 -26.5l-69.5 -40.5l-73 16
v189z" />
    <glyph glyph-name="S" unicode="S" horiz-adv-x="734" 
d="M672 115c0 60 -37.333 111 -112 153l-104 48l-104 49c-74 40.667 -111 91 -111 151c0 58 13 99.667 39 125c22.667 21.333 54.667 32 96 32c36.667 0 89 -10.667 157 -32s108.667 -32 122 -32c32.667 0 49 19.333 49 58c0 21.333 -44 39 -132 53
c-44 6.66699 -88.333 11.667 -133 15s-90 5 -136 5c-74 0 -139.333 -24.333 -196 -73c-57.333 -49.333 -86 -105.666 -86 -168.999c0 -64.667 42 -121.334 126 -170.001l116 -53l117 -54c83.333 -38 125 -79 125 -123s-10.5 -78.667 -31.5 -104s-52.833 -38 -95.5 -38h-22
c-44.667 0 -75 -5.5 -91 -16.5s-24 -27.167 -24 -48.5c0 -14 8.66699 -26 26 -36c14 -8 29 -12 45 -12c11.333 0 42.666 7.66699 93.999 23c70.667 22 128.334 49.667 173.001 83c62 46.667 93 102 93 166z" />
    <glyph glyph-name="T" unicode="T" horiz-adv-x="862" 
d="M839 605c0 23.333 -1 42.501 -3 57.501s-5 26.833 -9 35.5s-9.33301 14.667 -16 18s-14.667 5 -24 5h-711c-17.333 0 -31 -11.667 -41 -35c-7.33301 -18 -11 -34.667 -11 -50c0 -41.333 4 -71.333 12 -90c10.667 -26 31.667 -39 63 -39c52 0 83.333 21.333 94 64
c12 43.333 46.333 65 103 65c24 0 40.833 -8.5 50.5 -25.5s14.5 -44.5 14.5 -82.5c0 -23.333 -1 -61.333 -3 -114l-2 -77.5c-0.666992 -25 -1.66699 -49.833 -3 -74.5l-28 -230c0 -14 8 -23.333 24 -28c4 -1.33301 9.83301 -2.33301 17.5 -3s16 -1.16699 25 -1.5
s17.833 -0.5 26.5 -0.5h22c32 0 53 3.5 63 10.5s15 17.5 15 31.5c-6 26 -10.667 48.167 -14 66.5s-5.83301 34.166 -7.5 47.499s-2.66699 25.333 -3 36s-0.5 21.667 -0.5 33v346c0 18 6.5 33.5 19.5 46.5s32.833 19.5 59.5 19.5c47.333 0 76 -21.667 86 -65
c10 -42.667 36 -64 78 -64c40 0 65.667 4 77 12c17.333 13.333 26 42 26 86z" />
    <glyph glyph-name="U" unicode="U" horiz-adv-x="802" 
d="M763 422c0 8.66699 0.165039 15.6621 0.498047 20.9951s0.5 11.333 0.5 18c0 7.33301 0.166992 16.333 0.5 27s0.5 26 0.5 46c-0.666992 96.667 -22.667 153.667 -66 171c-11.333 4.66699 -36.333 10.334 -75 17.001c-13.333 3.33301 -26.333 6 -39 8
s-25.667 4.33301 -39 7v-4c0 -28.667 9.66699 -62 29 -100c24.667 -50.667 38.334 -88.334 41.001 -113.001c4.66699 -25.333 7.33398 -51.833 8.00098 -79.5s1 -58.5 1 -92.5c0 -36.667 -4 -70 -12 -100s-21.333 -55.667 -40 -77s-43.834 -38 -75.501 -50
s-70.834 -18 -117.501 -18c-28.667 2.66699 -53.5 11.5 -74.5 26.5s-39.167 33.833 -54.5 56.5s-27.833 48.334 -37.5 77.001s-17.334 58 -23.001 88s-9.5 59.667 -11.5 89s-3 56.333 -3 81c0 12.667 2 27.334 6 44.001s8.5 33.834 13.5 51.501s9.5 35.5 13.5 53.5
s6 35.333 6 52c0 9.33301 -2 16 -6 20c-6 7.33301 -17.667 14.666 -35 21.999c-6 2.66699 -12.667 4 -20 4c-12.667 0 -24.167 -9.33301 -34.5 -28s-19.666 -42.167 -27.999 -70.5s-15.5 -59.666 -21.5 -93.999s-11.167 -67.166 -15.5 -98.499s-7.5 -59.166 -9.5 -83.499
s-3 -40.5 -3 -48.5c0 -96 25 -176 75 -240c32.667 -41.333 70.834 -69.833 114.501 -85.5s93.167 -23.5 148.5 -23.5c22.667 0 45.5 3.5 68.5 10.5s45.5 16.333 67.5 28s42.833 25 62.5 40s37.834 30.833 54.501 47.5c86.667 88.667 130 188.667 130 300z" />
    <glyph glyph-name="V" unicode="V" horiz-adv-x="938" 
d="M15 637c0 -30 26.6641 -44.998 79.9971 -44.998c52.667 0 90.667 -13 114 -39c4 -6 22 -38.667 54 -98l40 -74c9.33301 -17.333 14.666 -27.666 15.999 -30.999l24.5 -59.5c9.66699 -23.667 20.334 -48.5 32.001 -74.5l36 -77.5
c12.333 -25.667 24.333 -48.834 36 -69.501s22.5 -37.334 32.5 -50.001s18.333 -19 25 -19c4 0 9.16699 7.33301 15.5 22s13.833 34.167 22.5 58.5l29 83.5c10.667 31.333 22.667 63.5 36 96.5s27.833 65.667 43.5 98s32.667 61.5 51 87.5s37.833 47.833 58.5 65.5
s42.667 28.167 66 31.5c60.667 70.667 91 114.667 91 132c0 9.33301 -3.83301 18.166 -11.5 26.499s-19.167 12.5 -34.5 12.5c-53.333 0 -105 -34.333 -155 -103c-7.33301 -9.33301 -44.666 -73 -111.999 -191c-39.333 -68 -72.666 -102 -99.999 -102
c-18 0 -40 34.333 -66 103c-36 95.333 -63.667 159 -83 191c-41.333 68 -89.666 102 -144.999 102c-56 0 -101.667 -5.66699 -137 -17c-39.333 -13.333 -59 -33.333 -59 -60z" />
    <glyph glyph-name="W" unicode="W" horiz-adv-x="1278" 
d="M1235 419c0 35.333 -14.9951 88.9971 -44.9951 160.997c-37.333 90 -79 135 -125 135c-10.667 0 -36 -4 -76 -12l-39 -8l-38 -8c9.33301 -27.333 31 -56 65 -86c40.667 -36.667 67.667 -66.334 81 -89.001c26 -43.333 39 -99 39 -167
c0 -67.333 -21.667 -128.333 -65 -183c-46 -57.333 -101.333 -86 -166 -86c-52.667 0 -94.334 22 -125.001 66c-22 30.667 -33 58.334 -33 83.001c1.33301 68.667 2.66602 123.5 3.99902 164.5s2.5 73.167 3.5 96.5s2.16699 40.5 3.5 51.5s2.66602 20.5 3.99902 28.5
c4.66699 34 8.16699 63.5 10.5 88.5s3.5 45.167 3.5 60.5c-17.333 -1.33301 -32.5 -2.66602 -45.5 -3.99902s-23.833 -2.66602 -32.5 -3.99902c-54 -7.33301 -84 -14 -90 -20c-2.66699 -2.66699 -4 -10.334 -4 -23.001c0 -0.666992 9 -69.334 27 -206.001
c8 -61.333 12 -113.666 12 -156.999c0 -62 -7.33301 -108.667 -22 -140c-18 -38.667 -47 -58 -87 -58c-85.333 0 -153.333 22.333 -204 67c-56 48.667 -84 119.334 -84 212.001c0 66 16.333 118.333 49 157c18 20.667 47.667 42.667 89 66c32 16.667 48 32 48 46
c0 10.667 -4 24 -12 40s-18 24 -30 24c-22 0 -57.333 -16.667 -106 -50c-54 -38 -99.333 -82.333 -136 -133c-44.667 -61.333 -67 -123.666 -67 -186.999c0 -96 25 -176 75 -240c56 -72 134 -108 234 -108c19.333 0 39.666 2.16699 60.999 6.5s42.833 10.5 64.5 18.5
s43.167 17.333 64.5 28s41.333 22.667 60 36c12 0 37.667 -15.667 77 -47c38.667 -30.667 96.667 -46 174 -46c87.333 0 171.666 42 252.999 126c86.667 88.667 130 188.667 130 300z" />
    <glyph glyph-name="X" unicode="X" horiz-adv-x="893" 
d="M848 66c0 18 -12.3389 29.9971 -37.0059 35.9971c-14.667 3.33301 -38.334 5 -71.001 5h-25c-12.667 0 -19.667 0.333008 -21 1c-12 6 -44 51.667 -96 137c-52 86 -78 134.667 -78 146c0 18 19 43.667 57 77c17.333 15.333 35 30.166 53 44.499l54 44.5
c4 4 7.33301 7 10 9c54 44.667 93.333 83.334 118 116.001c2.66699 2.66699 4 6.33398 4 11.001c0 8.66699 -5.83301 16.667 -17.5 24s-22.5 11 -32.5 11c-46.667 0 -91.667 -20.667 -135 -62c-9.33301 -9.33301 -21.666 -23.333 -36.999 -42s-33.666 -42.667 -54.999 -72
c-30 -40.667 -53 -61 -69 -61c-25.333 0 -47.666 20.667 -66.999 62l-54 114c-26.667 40.667 -62.334 61 -107.001 61c-53.333 0 -99.666 -4.66699 -138.999 -14c-38 -9.33301 -57 -20 -57 -32c0 -33.333 6.33301 -56.666 19 -69.999c10 -10.667 25 -16 45 -16
c1.33301 0 6.33301 0.5 15 1.5s21.334 2.83301 38.001 5.5c4.66699 0.666992 9.5 1.16699 14.5 1.5s10.167 0.5 15.5 0.5c14 0 25.333 -2.33301 34 -7c6 -3.33301 11 -7.33301 15 -12l28.5 -37c7.66699 -10 13.834 -18.333 18.501 -25
c45.333 -63.333 68 -107.666 68 -132.999c0 -48 -25.333 -96.333 -76 -145l-70.5 -57l-70.5 -56c-50.667 -40.667 -76 -74.667 -76 -102c0 -13.333 8 -22.333 24 -27c8 -2.66699 23 -4 45 -4c40 0 82 24.667 126 74c28 30.667 60 75.667 96 135c30 48.667 48.667 73 56 73
c26 0 53.333 -31.333 82 -94c45.333 -96.667 70.666 -149 75.999 -157c4 -6.66699 10.833 -12.167 20.5 -16.5s19.334 -7.83301 29.001 -10.5s18.334 -4.5 26.001 -5.5s11.834 -1.5 12.501 -1.5l59 3l34 -2c11.333 -0.666992 22 -1 32 -1c22 0 38.5 4.5 49.5 13.5
s16.5 27.5 16.5 55.5z" />
    <glyph glyph-name="Y" unicode="Y" horiz-adv-x="819" 
d="M798 681c0 9.33301 -3.33203 17.3311 -9.99902 23.998s-14.667 10 -24 10c-50.667 0 -97.667 -35.667 -141 -107c-20.667 -33.333 -51 -98.666 -91 -195.999c-28.667 -70.667 -51 -106 -67 -106c-15.333 0 -39.666 35.667 -72.999 107l-65 136.5
c-15.333 32.333 -25 52.166 -29 59.499c-40 70.667 -75.667 106 -107 106c-58 0 -103.333 -8.33301 -136 -25c-25.333 -13.333 -38 -26.666 -38 -39.999c0 -14.667 17 -25.334 51 -32.001c34.667 -6.66699 66 -24.667 94 -54l55 -78.5
c15.333 -22.333 27.666 -41.166 36.999 -56.499c16.667 -26 31.334 -50.5 44.001 -73.5s23.667 -44.5 33 -64.5c21.333 -48 32 -87 32 -117c0 -21.333 -0.5 -44.333 -1.5 -69s-2.5 -50.334 -4.5 -77.001s-4.33301 -53.667 -7 -81l-8 -80c0 -10 6.5 -19.167 19.5 -27.5
s26.833 -12.5 41.5 -12.5c41.333 0 69.666 5.66699 84.999 17c10.667 8 16 22.333 16 43c-3.33301 49.333 -7 98.333 -11 147s-6 94 -6 136v24c0.666992 6 1.66699 16.667 3 32c1.33301 11.333 6.83301 25.833 16.5 43.5s21.667 36.834 36 57.501s30.166 42 47.499 64l51 64
l46.5 57c14.333 17.333 25.833 32 34.5 44c50.667 66.667 76 108.334 76 125.001z" />
    <glyph glyph-name="Z" unicode="Z" horiz-adv-x="772" 
d="M743 -4c0 38.667 -5.6709 65.334 -17.0039 80.001c-17.333 21.333 -55.333 32 -114 32c-10 0 -21.833 -0.5 -35.5 -1.5l-46.5 -3.5c-34.667 -3.33301 -62.667 -5.83301 -84 -7.5s-36.333 -2.5 -45 -2.5c-32 0 -56.5 4.66699 -73.5 14s-25.5 25.666 -25.5 48.999
l172.5 189l120.5 133l78.5 87c19.667 22 34.667 39.333 45 52s17 21.667 20 27s4.5 9 4.5 11c0 19.333 -5.66699 31.833 -17 37.5s-34 8.5 -68 8.5h-329c-25.333 0 -38 16.667 -38 50c0 34 -37.667 51 -113 51h-14c-5.33301 0 -11.666 0.333008 -18.999 1
c-24 0 -40.333 -4.33301 -49 -13c-12.667 -10.667 -19 -33.334 -19 -68.001c0 -38.667 14 -66 42 -82c22.667 -12.667 56.334 -19 101.001 -19c3.33301 0 13.333 0.5 30 1.5s40.667 2.83301 72 5.5c9.33301 0.666992 18.666 1.16699 27.999 1.5s19 0.5 29 0.5
c32 0 55.667 -3.33301 71 -10s23 -20 23 -40c0 -11.333 -6.83301 -27.333 -20.5 -48s-31.167 -43.5 -52.5 -68.5s-45 -51.167 -71 -78.5l-76 -78l-67.5 -67c-20.333 -20 -35.166 -35 -44.499 -45c-77.333 -83.333 -116 -129.666 -116 -138.999c0 -18 6 -33 18 -45
c10 -10 21.333 -15 34 -15l63 5c25.333 2 50.5 3.83301 75.5 5.5l68.5 4.5c20.667 1.33301 34.667 2 42 2c32 1.33301 61.333 2.5 88 3.5s51.334 1.5 74.001 1.5c42 0 66 -16.667 72 -50c2 -13.333 6.5 -23.5 13.5 -30.5s15.5 -12 25.5 -15s21 -4.83301 33 -5.5s24 -1 36 -1
c24.667 0 42.334 4.33301 53.001 13c14.667 12 22 34.333 22 67z" />
    <glyph glyph-name="a" unicode="a" horiz-adv-x="861" 
d="M845 46c0 28 -5.66895 45.666 -17.002 52.999c-6 4 -20 6 -42 6c-24 0 -42.333 3 -55 9c-21.333 9.33301 -40 28.333 -56 57l-91.5 203.5l-87.5 203.5c-23.333 54.667 -50.666 90.334 -81.999 107.001c-37.333 20 -97.666 30 -180.999 30c-20 0 -42.333 -7.33301 -67 -22
c-24.667 -14 -37 -26.667 -37 -38c0 -33.333 28.333 -51.333 85 -54c56 -2.66699 91.667 -9.66699 107 -21c20.667 -16.667 44 -52 70 -106c23.333 -50 35 -82 35 -96c0 -12 -6 -23.5 -18 -34.5s-27.333 -21.833 -46 -32.5s-39.5 -21 -62.5 -31l-66.5 -28.5
c-21.333 -9 -40.666 -17.667 -57.999 -26s-30 -15.833 -38 -22.5c-67.333 -34 -101 -59.667 -101 -77c0 -36 33.667 -68 101 -96c54 -22.667 102.667 -34 146 -34c34 0 72.667 10 116 30l61.5 28.5l69.5 33.5c25.333 0 41.666 -10 48.999 -30c14 -41.333 61.333 -62 142 -62
c44 0 75.667 3.5 95 10.5s29 20.167 29 39.5zM524.998 170.999c-15.333 -12 -42.334 -26 -81.001 -42c-39.333 -16 -69 -24 -89 -24c-4.66699 0 -20.667 7.66699 -48 23c-25.333 14.667 -38.666 24.667 -39.999 30c0 17.333 20.333 41 61 71c44 32 84 48 120 48
c32.667 0 54.667 -9.66699 66 -29c7.33301 -13.333 11 -39 11 -77z" />
    <glyph glyph-name="b" unicode="b" horiz-adv-x="688" 
d="M639 259c-4.66699 20 -14 36.999 -28 50.999c-13.333 13.333 -43.333 31 -90 53c-21.333 10 -32 19.667 -32 29c0 5.33301 24.667 37.333 74 96c12.667 14.667 22 30.334 28 47.001s9 33.334 9 50.001c0 35.333 -12 65.666 -36 90.999c-26 26.667 -61 40 -105 40h-299
c-50 0 -80.333 -3.66699 -91 -11c-10 -7.33301 -15 -31.333 -15 -72v-586c0 -22 4 -35.333 12 -40c7.33301 -4.66699 30.666 -7 69.999 -7h314c10 -0 19.5 0.333008 28.5 1s19 3.16699 30 7.5s23.667 11 38 20s31.5 21.833 51.5 38.5c17.333 14 30 31.333 38 52
s12 43.667 12 69c0 10.667 -0.666992 22.167 -2 34.5s-3.66602 24.5 -6.99902 36.5zM450 192.999c0 -46 -22.333 -77.332 -67 -93.999c-27.333 -10.667 -70 -16 -128 -16h-36v232c74 0 125.667 -5 155 -15c50.667 -16.667 76 -52.334 76 -107.001zM422 529
c-5.33301 -32.667 -17 -56.666 -35 -71.999c-32.667 -27.333 -88.667 -41 -168 -41v217c1.33301 0 3.33301 0.166992 6 0.5s5.66699 0.833008 9 1.5h23c48.667 0 88.5 -7.83301 119.5 -23.5s46.5 -38.834 46.5 -69.501c0 -6.66699 -0.333008 -11 -1 -13z" />
    <glyph glyph-name="c" unicode="c" horiz-adv-x="817" 
d="M781 175c0 14.667 -4.16699 24.499 -12.5 29.499s-18.5 7.5 -30.5 7.5c-3.33301 0 -6.83301 -0.333008 -10.5 -1s-6.16699 -1 -7.5 -1c-68 0 -117.333 -22 -148 -66c-31.333 -43.333 -72.333 -65 -123 -65c-64 0 -117.333 15.333 -160 46
c-56.667 40.667 -85 105.667 -85 195c0 84.667 13 151 39 199c34 62.667 90.667 94 170 94c73.333 0 130.666 -26 171.999 -78c18.667 -24 44.667 -36 78 -36c44 0 74.667 4.33301 92 13s26 22 26 40c0 31.333 -37.667 64 -113 98s-148.333 51 -219 51
c-114.667 0 -207 -28 -277 -84c-51.333 -41.333 -89 -96.666 -113 -165.999c-14.667 -42 -22 -80 -22 -114c0 -115.333 49 -203.333 147 -264c76.667 -48.667 166.334 -73 269.001 -73c78 0 147 16 207 48c80.667 42.667 121 85 121 127z" />
    <glyph glyph-name="d" unicode="d" horiz-adv-x="687" 
d="M509 73c98 60.667 146.999 148.666 146.999 263.999c0 34 -7.33301 72 -22 114c-24 69.333 -61.667 124.666 -113 165.999c-8 12.667 -25 24.5 -51 35.5s-55.5 20.5 -88.5 28.5s-66.5 14.333 -100.5 19s-63 7 -87 7c-44 0 -79.167 -5.33301 -105.5 -16
s-39.5 -27.334 -39.5 -50.001c2 -9.33301 3.66699 -18 5 -26s2.33301 -15.333 3 -22c2.66699 -19.333 4.66699 -37.666 6 -54.999s2 -33.666 2 -48.999c0 -99.333 -1.5 -182.666 -4.5 -249.999s-6.83301 -121 -11.5 -161c0 -24 13.333 -45.333 40 -64s54.667 -28 84 -28
c27.333 0 56 2.33301 86 7s59.833 11 89.5 19s58.334 17.333 86.001 28s52.5 21.667 74.5 33zM449.999 518.999c26 -48 39.0049 -114.323 39.0049 -198.99c0 -22 -1.33301 -43.667 -4 -65s-7.16699 -40.833 -13.5 -58.5s-15 -32.834 -26 -45.501
s-24.833 -21.334 -41.5 -26.001c-15.333 -4.66699 -29 -7.83398 -41 -9.50098s-23.667 -2.5 -35 -2.5s-22.833 0.666992 -34.5 2s-25.167 2.66602 -40.5 3.99902c0 7.33301 -0.333008 14 -1 20l-2 18.5c-0.666992 6.33301 -1.33398 13.166 -2.00098 20.499
s-1 16.666 -1 27.999c-0.666992 22.667 -1.33398 42 -2.00098 58s-1.33398 31 -2.00098 45l-2 42c-0.666992 14 -1.33398 30.667 -2.00098 50c0 3.33301 0.5 16.666 1.5 39.999s2.83301 56.333 5.5 99c0 17.333 1 41.666 3 72.999
c19.333 -0.666992 39.166 -3.16699 59.499 -7.5s39.5 -10.333 57.5 -18s34.5 -17.334 49.5 -29.001s26.5 -24.834 34.5 -39.501z" />
    <glyph glyph-name="e" unicode="e" horiz-adv-x="833" 
d="M801 201c0 10 -3.33301 16.666 -10 19.999s-15.667 5 -27 5h-10c-3.33301 0 -7 -0.333008 -11 -1c-56 0 -101.333 -23 -136 -69c-35.333 -46 -74 -69 -116 -69c-58 0 -113.333 15.667 -166 47c-66 40 -99 95.333 -99 166c0 4.66699 1.66699 9.66699 5 15
s7.66602 10 12.999 14s11 7.33301 17 10s12 4 18 4c17.333 0 36.5 -0.5 57.5 -1.5s43.833 -2.16699 68.5 -3.5s47.834 -2.5 69.501 -3.5s41.834 -1.5 60.501 -1.5l15.5 -2.5c6.33301 -1 12.833 -1.5 19.5 -1.5c16 0 29 3 39 9s15 17.667 15 35s-3.5 29.833 -10.5 37.5
s-19.167 11.5 -36.5 11.5c-36.667 0 -78.667 -2.16699 -126 -6.5s-94 -9.5 -140 -15.5c-28 0 -50.167 4 -66.5 12s-24.5 22.333 -24.5 43c0 53.333 28 99 84 137c47.333 32.667 96.666 49 147.999 49c28 0 73.667 -27 137 -81c28.667 -24.667 60 -37 94 -37
c20 0 35 1.33301 45 4c21.333 5.33301 32 15.333 32 30c0 1.33301 -0.666992 5.33301 -2 12c-14.667 48.667 -65 87 -151 115c-62 20.667 -122.667 31 -182 31c-108 0 -194.333 -23 -259 -69c-50 -35.333 -85.667 -84.666 -107 -147.999c-14 -42 -21 -88.667 -21 -140
c0 -25.333 2.5 -49.166 7.5 -71.499s15.167 -47.833 30.5 -76.5c30.667 -56.667 73 -103.334 127 -140.001c68.667 -46.667 151.667 -70 249 -70c96.667 0 181 24 253 72c64 42.667 96 85.667 96 129z" />
    <glyph glyph-name="f" unicode="f" horiz-adv-x="608" 
d="M220 511c0 50 7.66992 82.002 23.0029 96.002c15.333 14.667 50.333 22 105 22c62.667 0 98 -24.667 106 -74c2.66699 -22.667 12.667 -34 30 -34c54.667 0 87 1.33301 97 4c10.667 2.66699 16 12.334 16 29.001c-0.666992 4.66699 -1 9.66699 -1 15v19v11
c0 4.66699 0.333008 10 1 16c0 15.333 -0.833008 28.833 -2.5 40.5s-5.83398 20.5 -12.501 26.5c-9.33301 8 -21.5 14.333 -36.5 19s-31.167 8 -48.5 10s-35 3.16699 -53 3.5s-35 0.5 -51 0.5c-29.333 0 -58 -0.333008 -86 -1s-55 -1.66699 -81 -3
c-112 -7.33301 -168 -24.333 -168 -51c0 -40.667 1 -103.334 3 -188.001v-19c0 -7.33301 0.333008 -15.333 1 -24c0 -89.333 -2 -178.333 -6 -267c-1.33301 -30 -3.33301 -65.333 -6 -106c0 -10 1.16699 -18.5 3.5 -25.5s6.83301 -12.667 13.5 -17s16 -7.66602 28 -9.99902
s27.667 -3.5 47 -3.5c20 0 36 1 48 3s21.5 5.16699 28.5 9.5s11.667 10.166 14 17.499s3.5 16.333 3.5 27c0 4.66699 -0.333008 13.834 -1 27.501s-1 24.834 -1 33.501c0 26 -0.5 55.167 -1.5 87.5s-2.16699 68.166 -3.5 107.499c4.66699 8 11.667 15 21 21
s18.666 9 27.999 9l164 -14c16 0 29 3 39 9s15 17.667 15 35s-3.5 29.833 -10.5 37.5s-19.167 11.5 -36.5 11.5c-18 0 -31.167 -0.666992 -39.5 -2s-16 -3 -23 -5s-15.833 -4.33301 -26.5 -7s-27.334 -5.33398 -50.001 -8.00098c-23.333 0 -42.5 2.5 -57.5 7.5
s-25.167 13.833 -30.5 26.5c-0.666992 17.333 -1.16699 32.166 -1.5 44.499s-0.5 23.166 -0.5 32.499z" />
    <glyph glyph-name="g" unicode="g" horiz-adv-x="819" 
d="M442 266l189.999 -0.00488281l-34.5 -71.5c-10.333 -22.333 -19.166 -39.166 -26.499 -50.499c-31.333 -43.333 -72.333 -65 -123 -65c-64 0 -117.333 15.333 -160 46c-56.667 40.667 -85 105.667 -85 195c0 84.667 13 151 39 199c34 62.667 90.667 94 170 94
c73.333 0 130.666 -26 171.999 -78c18.667 -24 44.667 -36 78 -36c44 0 74.667 4.33301 92 13s26 22 26 40c0 31.333 -37.667 64 -113 98s-148.333 51 -219 51c-114.667 0 -207 -28 -277 -84c-51.333 -41.333 -89 -96.666 -113 -165.999c-14.667 -42 -22 -80 -22 -114
c0 -115.333 49 -203.333 147 -264c76.667 -48.667 166.334 -73 269.001 -73c78 0 147 16 207 48c16 8.66699 31.5 23.334 46.5 44.001s28 43.334 39 68.001s19.833 49.334 26.5 74.001s10 45.334 10 62.001c-2 15.333 -6.16699 27.333 -12.5 36s-17.833 13 -34.5 13
c-18 0 -41 -0.666992 -69 -2s-57.167 -3 -87.5 -5s-60.5 -4.33301 -90.5 -7s-56.333 -5.33398 -79 -8.00098z" />
    <glyph glyph-name="h" unicode="h" horiz-adv-x="762" 
d="M709 85l-16.9971 357.004c0.666992 28 2.66699 64 6 108c1.33301 26 3 50.5 5 73.5s4 44.167 6 63.5c0 10 -7.66699 17.167 -23 21.5s-41 6.5 -77 6.5c-24 0 -42.667 -3.66699 -56 -11c-18 -10 -27 -26.333 -27 -49c0 -2.66699 1 -10.334 3 -23.001l8 -53
c1.33301 -7.33301 2.66602 -16 3.99902 -26s3.33301 -21.667 6 -35c0 -41.333 -11 -69 -33 -83c-17.333 -11.333 -48 -17 -92 -17c-28 0.666992 -54 1.5 -78 2.5s-45.333 1.5 -64 1.5c-24 0 -40.5 6.16699 -49.5 18.5s-13.5 30.5 -13.5 54.5c0 7.33301 0.5 17 1.5 29
s2.83301 26.333 5.5 43s4.5 31 5.5 43s1.5 21.667 1.5 29c0 24 -4 42 -12 54c-10 14.667 -26.667 22 -50 22c-22 0 -45 -4.33301 -69 -13c-32.667 -10.667 -49 -26.334 -49 -47.001l14 -116c3.33301 -24.667 5.16602 -50.334 5.49902 -77.001s0.5 -54.334 0.5 -83.001
c0 -2.66699 -0.833008 -16.834 -2.5 -42.501l-7.5 -112.5l-7.5 -113.5c-1.66699 -26.333 -2.5 -41.5 -2.5 -45.5c0 -18.667 7.16699 -34.5 21.5 -47.5s31.833 -19.5 52.5 -19.5c28.667 0 52.667 4 72 12c26.667 10.667 40 29 40 55c0 4 -3 34.667 -9 92
c-3.33301 29.333 -5.83301 52 -7.5 68s-2.5 25.667 -2.5 29c0 35.333 10.333 59.333 31 72c14.667 10 37.667 15 69 15h102c40 0 69.333 -4.66699 88 -14c26 -13.333 39 -37.666 39 -72.999c0 -50 -1.83301 -89 -5.5 -117s-8.83398 -52 -15.501 -72
c0 -22 5.66699 -39.667 17 -53c8 -9.33301 17 -14 27 -14l33 -2c28.667 0 51.667 5 69 15c24.667 14 37 38.667 37 74z" />
    <glyph glyph-name="i" unicode="i" horiz-adv-x="298" 
d="M246 87c-0.666992 16.667 -1.33008 35.666 -1.99707 56.999s-1.66699 45 -3 71c-0.666992 22.667 -1.33398 42 -2.00098 58s-1.33398 31 -2.00098 45l-2 42c-0.666992 14 -1.33398 30.667 -2.00098 50c0 3.33301 0.5 16.666 1.5 39.999s2.83301 56.333 5.5 99
c0.666992 24.667 2.66699 61.667 6 111c0 15.333 -3.33301 27.333 -10 36c-9.33301 13.333 -25.333 20 -48 20c-44 0 -79.167 -5.33301 -105.5 -16s-39.5 -27.334 -39.5 -50.001c2 -9.33301 3.66699 -18 5 -26s2.33301 -15.333 3 -22
c2.66699 -19.333 4.66699 -37.666 6 -54.999s2 -33.666 2 -48.999c0 -99.333 -1.5 -182.666 -4.5 -249.999s-6.83301 -121 -11.5 -161c0 -24 13.333 -45.333 40 -64s54.667 -28 84 -28c52.667 0 79 30.667 79 92z" />
    <glyph glyph-name="j" unicode="j" horiz-adv-x="524" 
d="M4 -107l55 -26.9971c12 -11.333 23.167 -20.333 33.5 -27s20.5 -10.334 30.5 -11.001h1c7.33301 0 21 2.5 41 7.5s42.833 11.833 68.5 20.5s52.667 18.5 81 29.5s54.166 22.5 77.499 34.5s42.666 23.833 57.999 35.5s23 22.5 23 32.5c0 2 -0.666992 4.33301 -2 7v43
c0 19.333 -0.166992 40.5 -0.5 63.5l-1 71.5c-0.333008 24.667 -0.833008 47.667 -1.5 69v19c0 7.33301 -0.333008 15.333 -1 24c0 88.667 2 177.667 6 267c0 7.33301 0.166992 21.666 0.5 42.999s0.833008 44.5 1.5 69.5l2 72c0.666992 23 1.33398 39.5 2.00098 49.5
c0 10 -1.16699 18.5 -3.5 25.5s-6.83301 12.667 -13.5 17s-16 7.66602 -28 9.99902s-27.667 3.5 -47 3.5c-20 0 -36 -1 -48 -3s-21.5 -5.16699 -28.5 -9.5s-11.667 -10.166 -14 -17.499s-3.5 -16.333 -3.5 -27v-123c0 -36 0.5 -71.5 1.5 -106.5s2.16699 -72 3.5 -111
s3.66602 -84.5 6.99902 -136.5v-148c0.666992 -5.33301 1 -11 1 -17v-19c0 -18 -0.833008 -37.333 -2.5 -58s-4.83398 -40.334 -9.50098 -59.001s-11 -35.5 -19 -50.5s-18.333 -26.167 -31 -33.5c-1.33301 -0.666992 -4.66602 -1 -9.99902 -1c-6.66699 0 -15 0.666992 -25 2
s-20.167 3 -30.5 5s-19.666 4.16699 -27.999 6.5s-14.166 4.5 -17.499 6.5c-13.333 8 -24.333 12 -33 12c-8 0 -14.333 -1.66699 -19 -5l-53 -36.5c-12.667 -9 -20.667 -15.5 -24 -19.5z" />
    <glyph glyph-name="k" unicode="k" horiz-adv-x="815" 
d="M779 91c-3.33301 22.667 -33.666 33.998 -90.999 33.998s-98.666 16.667 -123.999 50c-45.333 60 -82.333 107 -111 141l-31.5 34.5l-33.5 34.5c0 20 23.333 51 70 93l62 56l63 55c45.333 41.333 68 70.666 68 87.999c0 28.667 -14.333 43 -43 43
c-65.333 0 -121 -29 -167 -87c-20.667 -26 -50.334 -80 -89.001 -162c-27.333 -57.333 -51 -86 -71 -86c-16.667 0 -30.667 6 -42 18s-17 26 -17 42v167c0 4 2 11.667 6 23c8 22.667 12 38.334 12 47.001c0 12 -4.33301 21.333 -13 28s-24 10 -46 10
c-28 0 -57.333 -8 -88 -24c-30.667 -14.667 -46 -27.667 -46 -39l18 -63l19 -63c5.33301 -34.667 9.33301 -76.334 12 -125.001s4 -105 4 -169c0 -34 -2.66699 -66.833 -8 -98.5s-11.333 -61.5 -18 -89.5c0 -19.333 6.16699 -33.166 18.5 -41.499s30.5 -12.5 54.5 -12.5
c26 0 50.333 9.33301 73 28c18.667 14.667 28 34.667 28 60c0 40 -0.666992 72.833 -2 98.5s-2 39.834 -2 42.501c0 1.33301 -0.333008 5.33301 -1 12s-1 12.334 -1 17.001c0 17.333 2.66699 31.833 8 43.5s15.666 17.5 30.999 17.5c18.667 0 45.667 -27.667 81 -83
l69.5 -107.5c16.333 -25.667 26.833 -41.167 31.5 -46.5c42.667 -54.667 83 -82 121 -82c49.333 0 98 10.667 146 32c34 14.667 51 33.667 51 57c0 4 -0.333008 7 -1 9z" />
    <glyph glyph-name="l" unicode="l" horiz-adv-x="607" 
d="M596 126l-0.000976562 17.9971c0 6 0.333008 11.333 1 16c0 16.667 -5.33301 26.334 -16 29.001c-10 2.66699 -42.333 4 -97 4c-17.333 0 -27.333 -11.333 -30 -34c-8 -49.333 -43.333 -74 -106 -74c-54.667 0 -89.667 7.33301 -105 22c-15.333 14 -23 46 -23 96
c0 11.333 0.333008 25.666 1 42.999s1.66699 38 3 62c3.33301 60.667 5.83301 114.834 7.5 162.501s2.5 89.5 2.5 125.5c0 8.66699 0.333008 19.834 1 33.501s1 22.834 1 27.501c0 10.667 -1.16699 19.667 -3.5 27s-7 13.166 -14 17.499s-16.5 7.5 -28.5 9.5s-28 3 -48 3
c-19.333 0 -35 -1.16699 -47 -3.5s-21.333 -5.66602 -28 -9.99902s-11.167 -10 -13.5 -17s-3.5 -15.5 -3.5 -25.5c2.66699 -40.667 4.66699 -76 6 -106c4 -89.333 6 -178.333 6 -267c-0.666992 -8.66699 -1 -16.667 -1 -24v-19c-2 -85.333 -3 -148 -3 -188
c0 -27.333 56 -44.333 168 -51c26 -1.33301 53 -2.33301 81 -3s56.667 -1 86 -1c16 0 33 0.166992 51 0.5s35.667 1.5 53 3.5s33.5 5.33301 48.5 10s27.167 11 36.5 19c6.66699 6 10.834 14.833 12.501 26.5s2.5 25.167 2.5 40.5c-0.666992 6 -1 11 -1 15v12z" />
    <glyph glyph-name="m" unicode="m" horiz-adv-x="901" 
d="M848 39l-6.99805 107.999c-1.33301 21.333 -2.33301 42.666 -3 63.999s-1 42.333 -1 63v285c0 1.33301 0.5 6.5 1.5 15.5s2.16699 22.167 3.5 39.5c0.666992 3.33301 1 7.33301 1 12v17c0 20.667 -5 36.334 -15 47.001s-29 16 -57 16c-35.333 0 -74.333 -31.333 -117 -94
l-101 -175c-36 -62 -64 -93 -84 -93c-36.667 0 -74.334 31.333 -113.001 94l-45 86l-45 87c-32 62 -59 93 -81 93c-36.667 0 -66.334 -4 -89.001 -12c-30 -11.333 -45 -28 -45 -50l12 -70c1.33301 -13.333 2.5 -29.333 3.5 -48s1.5 -40.667 1.5 -66
c0 -102.667 -1 -187.667 -3 -255s-4.66699 -120.666 -8 -159.999c0 -19.333 5.66699 -31.666 17 -36.999s32.333 -8 63 -8c76 0 114 15 114 45c-4.66699 44.667 -8.83398 90.667 -12.501 138s-5.5 101.666 -5.5 162.999c-0.666992 3.33301 -1 10 -1 20
c0 8 1.33301 17.667 4 29c3.33301 13.333 10.666 20 21.999 20c16 0 44 -31.333 84 -94s77.667 -94 113 -94c42.667 0 79.334 31.333 110.001 94s58 94 82 94c14 0 24 -8 30 -24c4 -11.333 6 -25 6 -41v-6c0 -2 -0.333008 -4.66699 -1 -8
c0 -20.667 -0.333008 -43.5 -1 -68.5s-1.66699 -52.5 -3 -82.5c-3.33301 -59.333 -6.33301 -107.333 -9 -144c0 -14.667 2.33301 -25.167 7 -31.5s16.334 -9.5 35.001 -9.5c48.667 0 83.667 4.16699 105 12.5s32 17.833 32 28.5z" />
    <glyph glyph-name="n" unicode="n" horiz-adv-x="781" 
d="M729 663c0 13.333 -5.49805 25.168 -16.498 35.501s-23.5 15.5 -37.5 15.5c-48 0 -82.5 -4.66699 -103.5 -14s-31.5 -21.666 -31.5 -36.999c3.33301 -38 6.33301 -75 9 -111s5.66699 -71.667 9 -107c6 -70 9 -115.333 9 -136c0 -14.667 -2 -27.334 -6 -38.001
s-10.333 -16 -19 -16c-6 0 -12.333 2.33301 -19 7c-30.667 19.333 -68.334 67.666 -113.001 144.999l-57.5 100l-57.5 100c-44 66.667 -81.667 100 -113 100c-41.333 0 -74.333 -6.33301 -99 -19c-19.333 -10 -29 -19.333 -29 -28c0 -25.333 4 -113.333 12 -264
c0 -25.333 -0.5 -52.833 -1.5 -82.5s-2.16699 -61.834 -3.5 -96.501s-2.83301 -67.334 -4.5 -98.001s-3.5 -59.667 -5.5 -87c0 -13.333 4.66699 -22.166 14 -26.499s23.333 -6.5 42 -6.5c39.333 0 69.833 6.33301 91.5 19s33.167 28.334 34.5 47.001l-13 331
c-0.666992 2.66699 -1 9 -1 19c0 14.667 1 29 3 43c4.66699 30.667 14 46 28 46c21.333 0 54.666 -44 99.999 -132l61 -120.5l61 -121.5c45.333 -87.333 77 -131 95 -131c4.66699 0 13 -0.333008 25 -1s21.333 -1 28 -1c30.667 0 52.667 4.33301 66 13c20 12 30 34 30 66
c0.666992 27.333 1.16699 53.166 1.5 77.499s0.833008 47.833 1.5 70.5s1.5 53.334 2.5 92.001l3.5 140c1.33301 54.667 2.33301 99.167 3 133.5s1 58.833 1 73.5z" />
    <glyph glyph-name="o" unicode="o" horiz-adv-x="907" 
d="M868 365c0 102 -43.667 187.668 -131 257.001c-83.333 66 -182 99 -296 99c-112.667 0 -207.667 -33.667 -285 -101c-76.667 -66.667 -115 -151.667 -115 -255v-8c0 -4 -0.333008 -9.66699 -1 -17c0 -44.667 6.66699 -86.334 20 -125.001
c20.667 -59.333 57.667 -107.666 111 -144.999c67.333 -46.667 158.333 -70 273 -70c132 0 234.667 30.667 308 92c52.667 44 87.667 101.667 105 173c7.33301 31.333 11 64.666 11 99.999zM679 332.001c0 -51.333 -14.665 -99.667 -43.998 -145
c-42 -65.333 -106.667 -98 -194 -98c-72.667 0 -130.334 33 -173.001 99c-32 48.667 -48 96.667 -48 144c0 89.333 19.333 159.333 58 210c42.667 56.667 97 85 163 85c55.333 0 103.666 -16.667 144.999 -50c62 -50 93 -131.667 93 -245z" />
    <glyph glyph-name="p" unicode="p" horiz-adv-x="644" 
d="M636 484c0 75.333 -28.6709 131.002 -86.0039 167.002c-63.333 40.667 -169.333 61 -318 61c-57.333 0 -98.666 -8.66699 -123.999 -26c-18.667 -12.667 -28 -31.667 -28 -57c0 -10.667 3.33301 -28.334 10 -53.001c2.66699 -10 4 -18 4 -24v-224
c0 -38.667 -1 -80.667 -3 -126s-5.33301 -94 -10 -146c-5.33301 -65.333 -13.333 -139.333 -24 -222l-6 -45.5l-6 -45.5c2 -0.666992 8.66699 -1 20 -1c9.33301 0.666992 19.333 1 30 1h33c5.33301 0 11.5 -0.166992 18.5 -0.5s13.833 -0.833008 20.5 -1.5
s12.834 -1.16699 18.501 -1.5s9.83398 -0.5 12.501 -0.5c22.667 0 34 9.66699 34 29v732c-1.33301 5.33301 -2.66602 12 -3.99902 20s-2 16.667 -2 26c0 23.333 5.33301 41.333 16 54c14 17.333 37 26 69 26c41.333 0 80.333 -12.667 117 -38c30 -21.333 45 -49 45 -83
c0 -72.667 -18.333 -120.334 -55 -143.001c-21.333 -13.333 -60.333 -36.333 -117 -69l63 -16c56.667 0 112.667 16.333 168 49c69.333 41.333 104 94 104 158z" />
    <glyph glyph-name="q" unicode="q" horiz-adv-x="921" 
d="M861 365c0 102 -43.667 187.67 -131 257.003c-83.333 66 -182 99 -296 99c-112.667 0 -207.667 -33.667 -285 -101c-76.667 -66.667 -115 -151.667 -115 -255v-8c0 -4 -0.333008 -9.66699 -1 -17c0 -44.667 6.66699 -86.334 20 -125.001
c20.667 -59.333 57.667 -107.666 111 -144.999c67.333 -46.667 158.333 -70 273 -70c87.333 0 162.333 13.667 225 41c21.333 -11.333 38.833 -22.166 52.5 -32.499s20.5 -19.166 20.5 -26.499c0 -4 -2 -7.33301 -6 -10c-6 -4.66699 -16.5 -10.334 -31.5 -17.001
s-32.167 -13.667 -51.5 -21s-40 -14.5 -62 -21.5s-42.833 -13.333 -62.5 -19s-37.5 -10.334 -53.5 -14.001s-27.667 -5.5 -35 -5.5c-36.667 0 -73.5 4.33301 -110.5 13s-70.5 19 -100.5 31c-16.667 0 -31.834 -4.83301 -45.501 -14.5s-20.5 -19.5 -20.5 -29.5
c0 -23.333 36 -42 108 -56c6 -1.33301 16.167 -2.83301 30.5 -4.5s30 -3.33398 47 -5.00098l51.5 -5c17.333 -1.66699 32 -3.16699 44 -4.5c14.667 0.666992 35.834 3.16699 63.501 7.5s58 10.666 91 18.999s66.833 18.333 101.5 30s66.167 25.167 94.5 40.5
s51.5 32.333 69.5 51s27 38.667 27 60c0 16.667 -11 34.834 -33 54.501s-48.667 38.167 -80 55.5c38.667 41.333 65 90.666 79 147.999c7.33301 31.333 11 64.666 11 99.999zM427 167.003c0 -6 10.0029 -14.502 30.0029 -25.502s44 -23.167 72 -36.5
c-27.333 -10.667 -59 -16 -95 -16c-72.667 0 -130.334 33 -173.001 99c-32 48.667 -48 96.667 -48 144c0 89.333 19.333 159.333 58 210c42.667 56.667 97 85 163 85c55.333 0 103.666 -16.667 144.999 -50c62 -50 93 -131.667 93 -245
c0 -51.333 -14.667 -99.666 -44 -144.999c-1.33301 -1.33301 -2.33301 -2.66602 -3 -3.99902l-2 -4c-11.333 3.33301 -21.333 5.83301 -30 7.5s-16.334 2.5 -23.001 2.5z" />
    <glyph glyph-name="r" unicode="r" horiz-adv-x="704" 
d="M513 111c-2 0.666992 -8.83789 7 -20.5049 19l-40 42.5l-44.5 49.5c-14.667 16.667 -26 30.334 -34 41.001l-11 14c56.667 0 112.667 16.333 168 49c69.333 41.333 104 94 104 158c0 75.333 -28.667 131 -86 167c-63.333 40.667 -169.333 61 -318 61
c-57.333 0 -98.666 -8.66699 -123.999 -26c-18.667 -12.667 -28 -31.667 -28 -57c0 -10.667 3.33301 -28.334 10 -53.001c2.66699 -10 4 -18 4 -24v-224c0 -24.667 -0.666992 -46.167 -2 -64.5s-3.33301 -35.166 -6 -50.499s-5.66699 -30.166 -9 -44.499
s-6.66602 -29.5 -9.99902 -45.5l-11 -53.5c-4 -19.667 -7.66699 -42.834 -11 -69.501c2 -0.666992 8.66699 -1 20 -1c9.33301 0.666992 19.333 1 30 1h33c5.33301 0 11.5 -0.166992 18.5 -0.5s13.833 -0.833008 20.5 -1.5s12.834 -1.16699 18.501 -1.5
s9.83398 -0.5 12.501 -0.5c22.667 0 34 9.66699 34 29v278c4.66699 -6.66699 10.167 -15.167 16.5 -25.5l19 -32.5l18.5 -33c6 -10.667 11 -20 15 -28c22.667 -46 42.167 -81.333 58.5 -106s26.166 -39.334 29.499 -44.001c4.66699 -6.66699 11.667 -12.167 21 -16.5
s18.833 -7.83301 28.5 -10.5s18.334 -4.5 26.001 -5.5s11.834 -1.5 12.501 -1.5l59 3l34 -2c11.333 -0.666992 22 -1 32 -1c22 -0 38.5 4.83301 49.5 14.5s16.5 28.5 16.5 56.5c0 8 -3.33301 14.667 -10 20s-14.167 9.83301 -22.5 13.5s-16.5 6.16699 -24.5 7.5s-13 2 -15 2
zM230.995 500c-1.33301 5.33301 -2.66699 12.001 -4 20.001s-2 16.667 -2 26c0 23.333 5.33301 41.333 16 54c14 17.333 37 26 69 26c41.333 0 80.333 -12.667 117 -38c30 -21.333 45 -49 45 -83c0 -72.667 -18.333 -120.334 -55 -143.001l-43.5 -26.5l-69.5 -40.5l-73 16
v189z" />
    <glyph glyph-name="s" unicode="s" horiz-adv-x="734" 
d="M672 115c0 60 -37.333 111 -112 153l-104 48l-104 49c-74 40.667 -111 91 -111 151c0 58 13 99.667 39 125c22.667 21.333 54.667 32 96 32c36.667 0 89 -10.667 157 -32s108.667 -32 122 -32c32.667 0 49 19.333 49 58c0 21.333 -44 39 -132 53
c-44 6.66699 -88.333 11.667 -133 15s-90 5 -136 5c-74 0 -139.333 -24.333 -196 -73c-57.333 -49.333 -86 -105.666 -86 -168.999c0 -64.667 42 -121.334 126 -170.001l116 -53l117 -54c83.333 -38 125 -79 125 -123s-10.5 -78.667 -31.5 -104s-52.833 -38 -95.5 -38h-22
c-44.667 0 -75 -5.5 -91 -16.5s-24 -27.167 -24 -48.5c0 -14 8.66699 -26 26 -36c14 -8 29 -12 45 -12c11.333 0 42.666 7.66699 93.999 23c70.667 22 128.334 49.667 173.001 83c62 46.667 93 102 93 166z" />
    <glyph glyph-name="t" unicode="t" horiz-adv-x="862" 
d="M839 605c0 23.333 -1 42.501 -3 57.501s-5 26.833 -9 35.5s-9.33301 14.667 -16 18s-14.667 5 -24 5h-711c-17.333 0 -31 -11.667 -41 -35c-7.33301 -18 -11 -34.667 -11 -50c0 -41.333 4 -71.333 12 -90c10.667 -26 31.667 -39 63 -39c52 0 83.333 21.333 94 64
c12 43.333 46.333 65 103 65c24 0 40.833 -8.5 50.5 -25.5s14.5 -44.5 14.5 -82.5c0 -23.333 -1 -61.333 -3 -114l-2 -77.5c-0.666992 -25 -1.66699 -49.833 -3 -74.5l-28 -230c0 -14 8 -23.333 24 -28c4 -1.33301 9.83301 -2.33301 17.5 -3s16 -1.16699 25 -1.5
s17.833 -0.5 26.5 -0.5h22c32 0 53 3.5 63 10.5s15 17.5 15 31.5c-6 26 -10.667 48.167 -14 66.5s-5.83301 34.166 -7.5 47.499s-2.66699 25.333 -3 36s-0.5 21.667 -0.5 33v346c0 18 6.5 33.5 19.5 46.5s32.833 19.5 59.5 19.5c47.333 0 76 -21.667 86 -65
c10 -42.667 36 -64 78 -64c40 0 65.667 4 77 12c17.333 13.333 26 42 26 86z" />
    <glyph glyph-name="u" unicode="u" horiz-adv-x="802" 
d="M763 422c0 8.66699 0.165039 15.6621 0.498047 20.9951s0.5 11.333 0.5 18c0 7.33301 0.166992 16.333 0.5 27s0.5 26 0.5 46c-0.666992 96.667 -22.667 153.667 -66 171c-11.333 4.66699 -36.333 10.334 -75 17.001c-13.333 3.33301 -26.333 6 -39 8
s-25.667 4.33301 -39 7v-4c0 -28.667 9.66699 -62 29 -100c24.667 -50.667 38.334 -88.334 41.001 -113.001c4.66699 -25.333 7.33398 -51.833 8.00098 -79.5s1 -58.5 1 -92.5c0 -36.667 -4 -70 -12 -100s-21.333 -55.667 -40 -77s-43.834 -38 -75.501 -50
s-70.834 -18 -117.501 -18c-28.667 2.66699 -53.5 11.5 -74.5 26.5s-39.167 33.833 -54.5 56.5s-27.833 48.334 -37.5 77.001s-17.334 58 -23.001 88s-9.5 59.667 -11.5 89s-3 56.333 -3 81c0 12.667 2 27.334 6 44.001s8.5 33.834 13.5 51.501s9.5 35.5 13.5 53.5
s6 35.333 6 52c0 9.33301 -2 16 -6 20c-6 7.33301 -17.667 14.666 -35 21.999c-6 2.66699 -12.667 4 -20 4c-12.667 0 -24.167 -9.33301 -34.5 -28s-19.666 -42.167 -27.999 -70.5s-15.5 -59.666 -21.5 -93.999s-11.167 -67.166 -15.5 -98.499s-7.5 -59.166 -9.5 -83.499
s-3 -40.5 -3 -48.5c0 -96 25 -176 75 -240c32.667 -41.333 70.834 -69.833 114.501 -85.5s93.167 -23.5 148.5 -23.5c22.667 0 45.5 3.5 68.5 10.5s45.5 16.333 67.5 28s42.833 25 62.5 40s37.834 30.833 54.501 47.5c86.667 88.667 130 188.667 130 300z" />
    <glyph glyph-name="v" unicode="v" horiz-adv-x="938" 
d="M15 637c0 -30 26.6641 -44.998 79.9971 -44.998c52.667 0 90.667 -13 114 -39c4 -6 22 -38.667 54 -98l40 -74c9.33301 -17.333 14.666 -27.666 15.999 -30.999l24.5 -59.5c9.66699 -23.667 20.334 -48.5 32.001 -74.5l36 -77.5
c12.333 -25.667 24.333 -48.834 36 -69.501s22.5 -37.334 32.5 -50.001s18.333 -19 25 -19c4 0 9.16699 7.33301 15.5 22s13.833 34.167 22.5 58.5l29 83.5c10.667 31.333 22.667 63.5 36 96.5s27.833 65.667 43.5 98s32.667 61.5 51 87.5s37.833 47.833 58.5 65.5
s42.667 28.167 66 31.5c60.667 70.667 91 114.667 91 132c0 9.33301 -3.83301 18.166 -11.5 26.499s-19.167 12.5 -34.5 12.5c-53.333 0 -105 -34.333 -155 -103c-7.33301 -9.33301 -44.666 -73 -111.999 -191c-39.333 -68 -72.666 -102 -99.999 -102
c-18 0 -40 34.333 -66 103c-36 95.333 -63.667 159 -83 191c-41.333 68 -89.666 102 -144.999 102c-56 0 -101.667 -5.66699 -137 -17c-39.333 -13.333 -59 -33.333 -59 -60z" />
    <glyph glyph-name="w" unicode="w" horiz-adv-x="1278" 
d="M1235 419c0 35.333 -14.9951 88.9971 -44.9951 160.997c-37.333 90 -79 135 -125 135c-10.667 0 -36 -4 -76 -12l-39 -8l-38 -8c9.33301 -27.333 31 -56 65 -86c40.667 -36.667 67.667 -66.334 81 -89.001c26 -43.333 39 -99 39 -167
c0 -67.333 -21.667 -128.333 -65 -183c-46 -57.333 -101.333 -86 -166 -86c-52.667 0 -94.334 22 -125.001 66c-22 30.667 -33 58.334 -33 83.001c1.33301 68.667 2.66602 123.5 3.99902 164.5s2.5 73.167 3.5 96.5s2.16699 40.5 3.5 51.5s2.66602 20.5 3.99902 28.5
c4.66699 34 8.16699 63.5 10.5 88.5s3.5 45.167 3.5 60.5c-17.333 -1.33301 -32.5 -2.66602 -45.5 -3.99902s-23.833 -2.66602 -32.5 -3.99902c-54 -7.33301 -84 -14 -90 -20c-2.66699 -2.66699 -4 -10.334 -4 -23.001c0 -0.666992 9 -69.334 27 -206.001
c8 -61.333 12 -113.666 12 -156.999c0 -62 -7.33301 -108.667 -22 -140c-18 -38.667 -47 -58 -87 -58c-85.333 0 -153.333 22.333 -204 67c-56 48.667 -84 119.334 -84 212.001c0 66 16.333 118.333 49 157c18 20.667 47.667 42.667 89 66c32 16.667 48 32 48 46
c0 10.667 -4 24 -12 40s-18 24 -30 24c-22 0 -57.333 -16.667 -106 -50c-54 -38 -99.333 -82.333 -136 -133c-44.667 -61.333 -67 -123.666 -67 -186.999c0 -96 25 -176 75 -240c56 -72 134 -108 234 -108c19.333 0 39.666 2.16699 60.999 6.5s42.833 10.5 64.5 18.5
s43.167 17.333 64.5 28s41.333 22.667 60 36c12 0 37.667 -15.667 77 -47c38.667 -30.667 96.667 -46 174 -46c87.333 0 171.666 42 252.999 126c86.667 88.667 130 188.667 130 300z" />
    <glyph glyph-name="x" unicode="x" horiz-adv-x="893" 
d="M848 66c0 18 -12.3389 29.9971 -37.0059 35.9971c-14.667 3.33301 -38.334 5 -71.001 5h-25c-12.667 0 -19.667 0.333008 -21 1c-12 6 -44 51.667 -96 137c-52 86 -78 134.667 -78 146c0 18 19 43.667 57 77c17.333 15.333 35 30.166 53 44.499l54 44.5
c4 4 7.33301 7 10 9c54 44.667 93.333 83.334 118 116.001c2.66699 2.66699 4 6.33398 4 11.001c0 8.66699 -5.83301 16.667 -17.5 24s-22.5 11 -32.5 11c-46.667 0 -91.667 -20.667 -135 -62c-9.33301 -9.33301 -21.666 -23.333 -36.999 -42s-33.666 -42.667 -54.999 -72
c-30 -40.667 -53 -61 -69 -61c-25.333 0 -47.666 20.667 -66.999 62l-54 114c-26.667 40.667 -62.334 61 -107.001 61c-53.333 0 -99.666 -4.66699 -138.999 -14c-38 -9.33301 -57 -20 -57 -32c0 -33.333 6.33301 -56.666 19 -69.999c10 -10.667 25 -16 45 -16
c1.33301 0 6.33301 0.5 15 1.5s21.334 2.83301 38.001 5.5c4.66699 0.666992 9.5 1.16699 14.5 1.5s10.167 0.5 15.5 0.5c14 0 25.333 -2.33301 34 -7c6 -3.33301 11 -7.33301 15 -12l28.5 -37c7.66699 -10 13.834 -18.333 18.501 -25
c45.333 -63.333 68 -107.666 68 -132.999c0 -48 -25.333 -96.333 -76 -145l-70.5 -57l-70.5 -56c-50.667 -40.667 -76 -74.667 -76 -102c0 -13.333 8 -22.333 24 -27c8 -2.66699 23 -4 45 -4c40 0 82 24.667 126 74c28 30.667 60 75.667 96 135c30 48.667 48.667 73 56 73
c26 0 53.333 -31.333 82 -94c45.333 -96.667 70.666 -149 75.999 -157c4 -6.66699 10.833 -12.167 20.5 -16.5s19.334 -7.83301 29.001 -10.5s18.334 -4.5 26.001 -5.5s11.834 -1.5 12.501 -1.5l59 3l34 -2c11.333 -0.666992 22 -1 32 -1c22 0 38.5 4.5 49.5 13.5
s16.5 27.5 16.5 55.5z" />
    <glyph glyph-name="y" unicode="y" horiz-adv-x="819" 
d="M798 681c0 9.33301 -3.33203 17.3311 -9.99902 23.998s-14.667 10 -24 10c-50.667 0 -97.667 -35.667 -141 -107c-20.667 -33.333 -51 -98.666 -91 -195.999c-28.667 -70.667 -51 -106 -67 -106c-15.333 0 -39.666 35.667 -72.999 107l-65 136.5
c-15.333 32.333 -25 52.166 -29 59.499c-40 70.667 -75.667 106 -107 106c-58 0 -103.333 -8.33301 -136 -25c-25.333 -13.333 -38 -26.666 -38 -39.999c0 -14.667 17 -25.334 51 -32.001c34.667 -6.66699 66 -24.667 94 -54l55 -78.5
c15.333 -22.333 27.666 -41.166 36.999 -56.499c16.667 -26 31.334 -50.5 44.001 -73.5s23.667 -44.5 33 -64.5c21.333 -48 32 -87 32 -117c0 -21.333 -0.5 -44.333 -1.5 -69s-2.5 -50.334 -4.5 -77.001s-4.33301 -53.667 -7 -81l-8 -80c0 -10 6.5 -19.167 19.5 -27.5
s26.833 -12.5 41.5 -12.5c41.333 0 69.666 5.66699 84.999 17c10.667 8 16 22.333 16 43c-3.33301 49.333 -7 98.333 -11 147s-6 94 -6 136v24c0.666992 6 1.66699 16.667 3 32c1.33301 11.333 6.83301 25.833 16.5 43.5s21.667 36.834 36 57.501s30.166 42 47.499 64l51 64
l46.5 57c14.333 17.333 25.833 32 34.5 44c50.667 66.667 76 108.334 76 125.001z" />
    <glyph glyph-name="z" unicode="z" horiz-adv-x="772" 
d="M743 -4c0 38.667 -5.6709 65.334 -17.0039 80.001c-17.333 21.333 -55.333 32 -114 32c-10 0 -21.833 -0.5 -35.5 -1.5l-46.5 -3.5c-34.667 -3.33301 -62.667 -5.83301 -84 -7.5s-36.333 -2.5 -45 -2.5c-32 0 -56.5 4.66699 -73.5 14s-25.5 25.666 -25.5 48.999
l172.5 189l120.5 133l78.5 87c19.667 22 34.667 39.333 45 52s17 21.667 20 27s4.5 9 4.5 11c0 19.333 -5.66699 31.833 -17 37.5s-34 8.5 -68 8.5h-329c-25.333 0 -38 16.667 -38 50c0 34 -37.667 51 -113 51h-14c-5.33301 0 -11.666 0.333008 -18.999 1
c-24 0 -40.333 -4.33301 -49 -13c-12.667 -10.667 -19 -33.334 -19 -68.001c0 -38.667 14 -66 42 -82c22.667 -12.667 56.334 -19 101.001 -19c3.33301 0 13.333 0.5 30 1.5s40.667 2.83301 72 5.5c9.33301 0.666992 18.666 1.16699 27.999 1.5s19 0.5 29 0.5
c32 0 55.667 -3.33301 71 -10s23 -20 23 -40c0 -11.333 -6.83301 -27.333 -20.5 -48s-31.167 -43.5 -52.5 -68.5s-45 -51.167 -71 -78.5l-76 -78l-67.5 -67c-20.333 -20 -35.166 -35 -44.499 -45c-77.333 -83.333 -116 -129.666 -116 -138.999c0 -18 6 -33 18 -45
c10 -10 21.333 -15 34 -15l63 5c25.333 2 50.5 3.83301 75.5 5.5l68.5 4.5c20.667 1.33301 34.667 2 42 2c32 1.33301 61.333 2.5 88 3.5s51.334 1.5 74.001 1.5c42 0 66 -16.667 72 -50c2 -13.333 6.5 -23.5 13.5 -30.5s15.5 -12 25.5 -15s21 -4.83301 33 -5.5s24 -1 36 -1
c24.667 0 42.334 4.33301 53.001 13c14.667 12 22 34.333 22 67z" />
    <glyph glyph-name="space" unicode="&#xa0;" horiz-adv-x="500" 
 />
    <glyph glyph-name="FL00A8h" unicode="&#xa8;" horiz-adv-x="815" 
d="M791 201c0 10 -3.33301 16.666 -10 19.999s-15.667 5 -27 5h-10c-3.33301 0 -7 -0.333008 -11 -1c-56 0 -101.333 -23 -136 -69c-35.333 -46 -74 -69 -116 -69c-58 0 -113.333 15.667 -166 47c-66 40 -99 95.333 -99 166c0 4.66699 1.66699 9.66699 5 15
s7.66602 10 12.999 14s11 7.33301 17 10s12 4 18 4c17.333 0 36.5 -0.5 57.5 -1.5s43.833 -2.16699 68.5 -3.5s47.834 -2.5 69.501 -3.5s41.834 -1.5 60.501 -1.5l15.5 -2.5c6.33301 -1 12.833 -1.5 19.5 -1.5c16 0 29 3 39 9s15 17.667 15 35s-3.5 29.833 -10.5 37.5
s-19.167 11.5 -36.5 11.5c-36.667 0 -78.667 -2.16699 -126 -6.5s-94 -9.5 -140 -15.5c-28 0 -50.167 4 -66.5 12s-24.5 22.333 -24.5 43c0 53.333 28 99 84 137c47.333 32.667 96.666 49 147.999 49c28 0 73.667 -27 137 -81c28.667 -24.667 60 -37 94 -37
c20 0 35 1.33301 45 4c21.333 5.33301 32 15.333 32 30c0 1.33301 -0.666992 5.33301 -2 12c-14.667 48.667 -65 87 -151 115c-62 20.667 -122.667 31 -182 31c-108 0 -194.333 -23 -259 -69c-50 -35.333 -85.667 -84.666 -107 -147.999c-14 -42 -21 -88.667 -21 -140
c0 -25.333 2.5 -49.166 7.5 -71.499s15.167 -47.833 30.5 -76.5c30.667 -56.667 73 -103.334 127 -140.001c68.667 -46.667 151.667 -70 249 -70c96.667 0 181 24 253 72c64 42.667 96 85.667 96 129zM636 862.999c0 16.667 -6.16699 30.5 -18.5 41.5
s-26.833 16.5 -43.5 16.5s-30.5 -5.83301 -41.5 -17.5s-16.5 -26.167 -16.5 -43.5c0 -16 6.16699 -29.833 18.5 -41.5s26.833 -17.5 43.5 -17.5s30.5 6.16699 41.5 18.5s16.5 26.833 16.5 43.5zM358 862.999c0 16.667 -6.16699 30.5 -18.5 41.5s-26.833 16.5 -43.5 16.5
s-30.5 -5.83301 -41.5 -17.5s-16.5 -26.167 -16.5 -43.5c0 -16 6.16699 -29.833 18.5 -41.5s26.833 -17.5 43.5 -17.5s30.5 6.16699 41.5 18.5s16.5 26.833 16.5 43.5z" />
    <glyph glyph-name="FL00B8h" unicode="&#xb8;" horiz-adv-x="815" 
d="M791 201c0 10 -3.33301 16.666 -10 19.999s-15.667 5 -27 5h-10c-3.33301 0 -7 -0.333008 -11 -1c-56 0 -101.333 -23 -136 -69c-35.333 -46 -74 -69 -116 -69c-58 0 -113.333 15.667 -166 47c-66 40 -99 95.333 -99 166c0 4.66699 1.66699 9.66699 5 15
s7.66602 10 12.999 14s11 7.33301 17 10s12 4 18 4c17.333 0 36.5 -0.5 57.5 -1.5s43.833 -2.16699 68.5 -3.5s47.834 -2.5 69.501 -3.5s41.834 -1.5 60.501 -1.5l15.5 -2.5c6.33301 -1 12.833 -1.5 19.5 -1.5c16 0 29 3 39 9s15 17.667 15 35s-3.5 29.833 -10.5 37.5
s-19.167 11.5 -36.5 11.5c-36.667 0 -78.667 -2.16699 -126 -6.5s-94 -9.5 -140 -15.5c-28 0 -50.167 4 -66.5 12s-24.5 22.333 -24.5 43c0 53.333 28 99 84 137c47.333 32.667 96.666 49 147.999 49c28 0 73.667 -27 137 -81c28.667 -24.667 60 -37 94 -37
c20 0 35 1.33301 45 4c21.333 5.33301 32 15.333 32 30c0 1.33301 -0.666992 5.33301 -2 12c-14.667 48.667 -65 87 -151 115c-62 20.667 -122.667 31 -182 31c-108 0 -194.333 -23 -259 -69c-50 -35.333 -85.667 -84.666 -107 -147.999c-14 -42 -21 -88.667 -21 -140
c0 -25.333 2.5 -49.166 7.5 -71.499s15.167 -47.833 30.5 -76.5c30.667 -56.667 73 -103.334 127 -140.001c68.667 -46.667 151.667 -70 249 -70c96.667 0 181 24 253 72c64 42.667 96 85.667 96 129zM636 862.999c0 16.667 -6.16699 30.5 -18.5 41.5
s-26.833 16.5 -43.5 16.5s-30.5 -5.83301 -41.5 -17.5s-16.5 -26.167 -16.5 -43.5c0 -16 6.16699 -29.833 18.5 -41.5s26.833 -17.5 43.5 -17.5s30.5 6.16699 41.5 18.5s16.5 26.833 16.5 43.5zM358 862.999c0 16.667 -6.16699 30.5 -18.5 41.5s-26.833 16.5 -43.5 16.5
s-30.5 -5.83301 -41.5 -17.5s-16.5 -26.167 -16.5 -43.5c0 -16 6.16699 -29.833 18.5 -41.5s26.833 -17.5 43.5 -17.5s30.5 6.16699 41.5 18.5s16.5 26.833 16.5 43.5z" />
    <glyph glyph-name="Agrave" unicode="&#xc0;" horiz-adv-x="860" 
d="M844 46c0 28 -5.66895 45.666 -17.002 52.999c-6 4 -20 6 -42 6c-24 0 -42.333 3 -55 9c-21.333 9.33301 -40 28.333 -56 57l-91.5 203.5l-87.5 203.5c-23.333 54.667 -50.666 90.334 -81.999 107.001c-37.333 20 -97.666 30 -180.999 30c-20 0 -42.333 -7.33301 -67 -22
c-24.667 -14 -37 -26.667 -37 -38c0 -33.333 28.333 -51.333 85 -54c56 -2.66699 91.667 -9.66699 107 -21c20.667 -16.667 44 -52 70 -106c23.333 -50 35 -82 35 -96c0 -12 -6 -23.5 -18 -34.5s-27.333 -21.833 -46 -32.5s-39.5 -21 -62.5 -31l-66.5 -28.5
c-21.333 -9 -40.666 -17.667 -57.999 -26s-30 -15.833 -38 -22.5c-67.333 -34 -101 -59.667 -101 -77c0 -36 33.667 -68 101 -96c54 -22.667 102.667 -34 146 -34c34 0 72.667 10 116 30l61.5 28.5l69.5 33.5c25.333 0 41.666 -10 48.999 -30c14 -41.333 61.333 -62 142 -62
c44 0 75.667 3.5 95 10.5s29 20.167 29 39.5zM523.998 170.999c-15.333 -12 -42.334 -26 -81.001 -42c-39.333 -16 -69 -24 -89 -24c-4.66699 0 -20.667 7.66699 -48 23c-25.333 14.667 -38.666 24.667 -39.999 30c0 17.333 20.333 41 61 71c44 32 84 48 120 48
c32.667 0 54.667 -9.66699 66 -29c7.33301 -13.333 11 -39 11 -77z" />
    <glyph glyph-name="Aacute" unicode="&#xc1;" 
d="M587 615c0 15.333 -0.828125 28.8369 -2.49512 40.5039s-5.83398 20.5 -12.501 26.5c-8.66699 8 -20.334 14.333 -35.001 19s-30.834 8.33398 -48.501 11.001s-36.334 4.5 -56.001 5.5s-38.834 1.5 -57.501 1.5c-21.333 0 -41.5 -0.333008 -60.5 -1s-35.167 -1 -48.5 -1
c-23.333 0 -42.666 -0.333008 -57.999 -1s-28.333 -1.16699 -39 -1.5s-19.5 -0.833008 -26.5 -1.5s-13.833 -1 -20.5 -1h-33c-10.667 0 -20.667 0.333008 -30 1c-5.33301 0 -9.16602 -3.16699 -11.499 -9.5s-3.5 -10.5 -3.5 -12.5c0 -4 1.16699 -12.833 3.5 -26.5
s5 -30.334 8 -50.001s6.5 -40.834 10.5 -63.501s7.5 -44.667 10.5 -66l8 -59c2.33301 -18 3.5 -31.667 3.5 -41c0 -6.66699 -0.333008 -17.5 -1 -32.5s-1.5 -32.5 -2.5 -52.5s-2.16699 -41.333 -3.5 -64s-2.5 -44.834 -3.5 -66.501s-1.83301 -41.667 -2.5 -60
s-1 -32.833 -1 -43.5c0 -25.333 9.33301 -44.333 28 -57c25.333 -17.333 66.666 -26 123.999 -26c148.667 0 254.667 20.333 318 61c57.333 36 86 91.667 86 167c0 64 -34.667 116.667 -104 158c-55.333 32.667 -111.333 49 -168 49l-63 -16l117 -69
c36.667 -22.667 55 -70.334 55 -143.001c0 -34.667 -15 -62.334 -45 -83.001c-36.667 -25.333 -75.667 -38 -117 -38c-32 0 -55 8.66699 -69 26c-10.667 12.667 -16 30.667 -16 54c0 9.33301 0.666992 18 2 26s2.66602 14.667 3.99902 20v441l68 -9
c6.66699 0.666992 13.5 1.16699 20.5 1.5s14.833 0.5 23.5 0.5c30 0 54 -6 72 -18l10 -15c4 -6 7.66699 -12 11 -18l9 -16l4 -7c2.66699 -22.667 12.667 -34 30 -34h54c11.333 0 20.5 0.166992 27.5 0.5s12.167 1.5 15.5 3.5c5.33301 2.66699 9.33301 6.16699 12 10.5
s4 10.5 4 18.5v61z" />
    <glyph glyph-name="Acircumflex" unicode="&#xc2;" horiz-adv-x="685" 
d="M637 259c-4.66699 20 -14 36.999 -28 50.999c-13.333 13.333 -43.333 31 -90 53c-21.333 10 -32 19.667 -32 29c0 5.33301 24.667 37.333 74 96c12.667 14.667 22 30.334 28 47.001s9 33.334 9 50.001c0 35.333 -12 65.666 -36 90.999c-26 26.667 -61 40 -105 40h-299
c-50 0 -80.333 -3.66699 -91 -11c-10 -7.33301 -15 -31.333 -15 -72v-586c0 -22 4 -35.333 12 -40c7.33301 -4.66699 30.666 -7 69.999 -7h314c10 -0 19.5 0.333008 28.5 1s19 3.16699 30 7.5s23.667 11 38 20s31.5 21.833 51.5 38.5c17.333 14 30 31.333 38 52
s12 43.667 12 69c0 10.667 -0.666992 22.167 -2 34.5s-3.66602 24.5 -6.99902 36.5zM448 192.999c0 -46 -22.333 -77.332 -67 -93.999c-27.333 -10.667 -70 -16 -128 -16h-36v232c74 0 125.667 -5 155 -15c50.667 -16.667 76 -52.334 76 -107.001zM420 529
c-5.33301 -32.667 -17 -56.666 -35 -71.999c-32.667 -27.333 -88.667 -41 -168 -41v217c1.33301 0 3.33301 0.166992 6 0.5s5.66699 0.833008 9 1.5h23c48.667 0 88.5 -7.83301 119.5 -23.5s46.5 -38.834 46.5 -69.501c0 -6.66699 -0.333008 -11 -1 -13z" />
    <glyph glyph-name="Atilde" unicode="&#xc3;" horiz-adv-x="608" 
d="M597 588l0.000976562 10.998c0 4.66699 0.333008 10 1 16c0 15.333 -0.833008 28.833 -2.5 40.5s-5.83398 20.5 -12.501 26.5c-9.33301 8 -21.5 14.333 -36.5 19s-31.167 8 -48.5 10s-35 3.16699 -53 3.5s-35 0.5 -51 0.5c-29.333 0 -58 -0.333008 -86 -1
s-55 -1.66699 -81 -3c-112 -7.33301 -168 -24.333 -168 -51c0 -40.667 1 -103.334 3 -188.001v-19c0 -7.33301 0.333008 -15.333 1 -24c0 -89.333 -2 -178.333 -6 -267c-1.33301 -30 -3.33301 -65.333 -6 -106c0 -10 1.16699 -18.5 3.5 -25.5s6.83301 -12.667 13.5 -17
s16 -7.66602 28 -9.99902s27.667 -3.5 47 -3.5c20 0 36 1 48 3s21.5 5.16699 28.5 9.5s11.667 10.166 14 17.499s3.5 16.333 3.5 27c0 4.66699 -0.333008 13.834 -1 27.501s-1 24.834 -1 33.501c0 36 -0.833008 77.833 -2.5 125.5s-4.16699 101.834 -7.5 162.501
c-1.33301 24 -2.33301 44.667 -3 62s-1 31.666 -1 42.999c0 50 7.66699 82 23 96c15.333 14.667 50.333 22 105 22c62.667 0 98 -24.667 106 -74c2.66699 -22.667 12.667 -34 30 -34c54.667 0 87 1.33301 97 4c10.667 2.66699 16 12.334 16 29.001
c-0.666992 4.66699 -1 9.66699 -1 15v19z" />
    <glyph glyph-name="Adieresis" unicode="&#xc4;" horiz-adv-x="1070" 
d="M1049 76c0 14.667 -1.83105 24.998 -5.49805 30.998s-8.5 9 -14.5 9c-5.33301 0 -21 -5.66699 -47 -17s-46.667 -17 -62 -17c-20.667 0 -39.334 7 -56.001 21c-20.667 17.333 -38.334 45.333 -53.001 84c-9.33301 23.333 -23.833 63 -43.5 119l-75.5 221
c-26.667 80.667 -53.334 131.667 -80.001 153c-28.667 23.333 -82.334 35 -161.001 35c-36 0 -66.333 -5 -91 -15c-34.667 -14 -52 -37.667 -52 -71c0 -22 32.333 -34.333 97 -37c65.333 -3.33301 98 -20.666 98 -51.999c0 -10 -2 -21.333 -6 -34
c-6.66699 -20 -15.334 -40.667 -26.001 -62l-74 -143l-71 -143c-21.333 -41.333 -42.666 -62 -63.999 -62c-12 0 -32.667 18.667 -62 56s-59 56 -89 56c-25.333 0 -46 -7.33301 -62 -22s-24 -37 -24 -67c0 -45.333 23 -77.333 69 -96c36.667 -15.333 86.334 -23 149.001 -23
h185c78.667 0 141.5 5.66699 188.5 17s79.833 24.333 98.5 39c16 0 38.667 -12 68 -36c28.667 -24 64.334 -36 107.001 -36c64.667 0 112 19 142 57c11.333 14.667 17 26.334 17 35.001zM677.002 164.998c0 -26 -11.668 -46.668 -35.001 -62.001
c-29.333 -18 -77.666 -27 -144.999 -27c-79.333 0 -119 14.333 -119 43l28.5 57.5l33 64.5l32 60.5l25.5 45.5c30.667 52.667 51.667 79 63 79c14.667 0 38.667 -43.667 72 -131l19.5 -54c7.66699 -21.333 16.167 -46.666 25.5 -75.999z" />
    <glyph glyph-name="Aring" unicode="&#xc5;" horiz-adv-x="831" 
d="M800 201c0 10 -3.33301 16.666 -10 19.999s-15.667 5 -27 5h-10c-3.33301 0 -7 -0.333008 -11 -1c-56 0 -101.333 -23 -136 -69c-35.333 -46 -74 -69 -116 -69c-58 0 -113.333 15.667 -166 47c-66 40 -99 95.333 -99 166c0 4.66699 1.66699 9.66699 5 15
s7.66602 10 12.999 14s11 7.33301 17 10s12 4 18 4c17.333 0 36.5 -0.5 57.5 -1.5s43.833 -2.16699 68.5 -3.5s47.834 -2.5 69.501 -3.5s41.834 -1.5 60.501 -1.5l15.5 -2.5c6.33301 -1 12.833 -1.5 19.5 -1.5c16 0 29 3 39 9s15 17.667 15 35s-3.5 29.833 -10.5 37.5
s-19.167 11.5 -36.5 11.5c-36.667 0 -78.667 -2.16699 -126 -6.5s-94 -9.5 -140 -15.5c-28 0 -50.167 4 -66.5 12s-24.5 22.333 -24.5 43c0 53.333 28 99 84 137c47.333 32.667 96.666 49 147.999 49c28 0 73.667 -27 137 -81c28.667 -24.667 60 -37 94 -37
c20 0 35 1.33301 45 4c21.333 5.33301 32 15.333 32 30c0 1.33301 -0.666992 5.33301 -2 12c-14.667 48.667 -65 87 -151 115c-62 20.667 -122.667 31 -182 31c-108 0 -194.333 -23 -259 -69c-50 -35.333 -85.667 -84.666 -107 -147.999c-14 -42 -21 -88.667 -21 -140
c0 -25.333 2.5 -49.166 7.5 -71.499s15.167 -47.833 30.5 -76.5c30.667 -56.667 73 -103.334 127 -140.001c68.667 -46.667 151.667 -70 249 -70c96.667 0 181 24 253 72c64 42.667 96 85.667 96 129z" />
    <glyph glyph-name="AE" unicode="&#xc6;" horiz-adv-x="1301" 
d="M1260 95c-3.33301 22.667 -33.6631 34.002 -90.9961 34.002s-98.666 16.667 -123.999 50c-45.333 60 -82.333 107 -111 141l-31.5 34.5l-33.5 34.5c0 20 23.333 51 70 93l62 56l63 55c45.333 41.333 68 70.666 68 87.999c0 28.667 -14.333 43 -43 43
c-65.333 0 -121 -29 -167 -87c-20.667 -26 -50.334 -80 -89.001 -162c-27.333 -57.333 -51 -86 -71 -86c-13.333 0 -22.833 3.66699 -28.5 11s-8.5 17.333 -8.5 30c1.33301 20.667 2.83301 39.167 4.5 55.5s3.83398 31.5 6.50098 45.5
c3.33301 10.667 6.66602 19.834 9.99902 27.501l9.5 22.5c3 7.33301 5.33301 14.833 7 22.5s2.5 16.834 2.5 27.501c0 5.33301 -1.33301 13.166 -4 23.499s-7.33398 20.666 -14.001 30.999s-15.167 19.333 -25.5 27s-23.5 11.5 -39.5 11.5c-28 -1.33301 -50 -3.5 -66 -6.5
s-27.833 -7.16699 -35.5 -12.5s-12.334 -12 -14.001 -20s-2.5 -18 -2.5 -30c0 -18 1.66699 -36.167 5 -54.5s7.16602 -36.833 11.499 -55.5s8.16602 -37.667 11.499 -57s5 -39 5 -59c0 -15.333 -6.33301 -26.5 -19 -33.5s-25.667 -10.5 -39 -10.5
c-20 0 -43.667 28.667 -71 86c-38.667 82 -68.334 136 -89.001 162c-46 58 -101.667 87 -167 87c-28.667 0 -43 -14.333 -43 -43c0 -17.333 22.667 -46.666 68 -87.999l63 -55l62 -56c46.667 -42 70 -73 70 -93l-33.5 -34.5l-31.5 -34.5c-29.333 -34 -66.333 -81 -111 -141
c-25.333 -33.333 -66.666 -50 -123.999 -50c-8 0 -17.5 -0.333008 -28.5 -1s-21.167 -2.16699 -30.5 -4.5s-17.333 -6.33301 -24 -12s-10 -13.5 -10 -23.5c0 -23.333 17 -42.333 51 -57c48 -21.333 96.667 -32 146 -32c38 0 78.333 27.333 121 82
c4.66699 5.33301 15.167 20.833 31.5 46.5l69.5 107.5c35.333 55.333 62.333 83 81 83c20.667 0 36 -5.5 46 -16.5s15 -26.5 15 -46.5c0 -21.333 -0.5 -40.333 -1.5 -57s-2.16699 -32.5 -3.5 -47.5s-2.5 -30 -3.5 -45s-1.5 -31.833 -1.5 -50.5c0 -8 2 -15.167 6 -21.5
s9 -11.833 15 -16.5s12.5 -8.5 19.5 -11.5s13.5 -5.16699 19.5 -6.5c15.333 0 29 5.16699 41 15.5s18.333 23.166 19 38.499l10 224c3.33301 13.333 7.83301 24.166 13.5 32.499s15.167 12.5 28.5 12.5c18.667 0 45.667 -27.667 81 -83l69.5 -107.5
c16.333 -25.667 26.833 -41.167 31.5 -46.5c42.667 -54.667 83 -82 121 -82c49.333 0 98 10.667 146 32c34 14.667 51 33.667 51 57z" />
    <glyph glyph-name="Ccedilla" unicode="&#xc7;" horiz-adv-x="665" 
d="M581 258c32 32 48.0068 65.0039 48.0068 99.0039c-2 30.667 -14 54.667 -36 72s-60.333 31 -115 41c-22.667 4.66699 -41.5 11.834 -56.5 21.501s-25.167 22.5 -30.5 38.5c-2 6 -3 11 -3 15c0 22 34.333 34.333 103 37c69.333 4 111.333 12.333 126 25
c7.33301 6.66699 14.166 14.167 20.499 22.5s9.5 18.833 9.5 31.5c0 10.667 -1.83301 19.834 -5.5 27.501s-8.16699 13.667 -13.5 18s-11.166 7.5 -17.499 9.5s-12.5 3 -18.5 3c-4 0 -10.833 -1 -20.5 -3s-19.834 -4.33301 -30.501 -7l-31 -8
c-10 -2.66699 -17 -4.33398 -21 -5.00098c-76.667 -13.333 -128.667 -20 -156 -20c-34.667 0 -57.334 8.33301 -68.001 25c-4 5.33301 -6.33301 10 -7 14s-1 9 -1 15c0 3.33301 0.166992 7.33301 0.5 12s0.833008 10.334 1.5 17.001c0 6.66699 -1.33301 11.834 -4 15.501
s-6.83398 6.5 -12.501 8.5s-12.667 3.5 -21 4.5l-28.5 3.5h-38c-4.66699 0 -12 -0.333008 -22 -1s-18 -1.66699 -24 -3c-14 -6 -24.5 -15.167 -31.5 -27.5s-10.5 -25.833 -10.5 -40.5c0 -19.333 3.66699 -34.5 11 -45.5s16.833 -19.5 28.5 -25.5s24.667 -9.83301 39 -11.5
s28.5 -2.5 42.5 -2.5h39c18 0 34.667 -2 50 -6c14.667 -3.33301 28 -11 40 -23s18 -23 18 -33c0 -18.667 -20.333 -35.334 -61 -50.001c-6.66699 -2.66699 -16.5 -5.83398 -29.5 -9.50098l-48.5 -13.5c-16 -4 -29.167 -10.167 -39.5 -18.5s-15.5 -18.166 -15.5 -29.499
c0 -7.33301 2.33301 -16 7 -26c5.33301 -10.667 12.666 -17.667 21.999 -21s21 -5 35 -5c6.66699 0 14.5 0.666992 23.5 2s15.5 2.33301 19.5 3c6 1.33301 12 3 18 5s12.333 3.66699 19 5c23.333 5.33301 41.666 8 54.999 8c18 0 34.5 -4.33301 49.5 -13
s28.833 -23.334 41.5 -44.001c4.66699 -7.33301 7.83398 -14.166 9.50098 -20.499s2.5 -13.833 2.5 -22.5c0 -24 -9.66699 -48.667 -29 -74c-8.66699 -11.333 -18.167 -21.833 -28.5 -31.5s-21.833 -18.834 -34.5 -27.501c-32 -22.667 -59.833 -38.334 -83.5 -47.001
s-47.834 -13 -72.501 -13c-13.333 0 -24 0.666992 -32 2s-15 2 -21 2c-24.667 0 -46.667 -8.66699 -66 -26c-18.667 -16.667 -28 -35.334 -28 -56.001c0 -10.667 3.16699 -20.667 9.5 -30s15.833 -17 28.5 -23c2.66699 -1.33301 5.66699 -2 9 -2
c15.333 3.33301 31.166 7.83301 47.499 13.5s32.5 10.5 48.5 14.5c10.667 2 22.667 3.66699 36 5s27.166 3.66602 41.499 6.99902s28.833 8.16602 43.5 14.499s29 15.166 43 26.499z" />
    <glyph glyph-name="Egrave" unicode="&#xc8;" horiz-adv-x="778" 
d="M50 663c0 -14.667 0.333984 -39.1689 1.00098 -73.502s1.66699 -78.833 3 -133.5l3.5 -140c1 -38.667 1.83301 -69.334 2.5 -92.001s1.16699 -46.167 1.5 -70.5s0.833008 -50.166 1.5 -77.499c0 -32 10 -54 30 -66c13.333 -8.66699 35.333 -13 66 -13
c6.66699 0 16 0.333008 28 1s20.333 1 25 1c18 0 49.667 43.667 95 131l61 121.5l61 120.5c44.667 88 78 132 100 132c14 0 23.333 -15.333 28 -46c2 -14 3 -28.333 3 -43c0 -10 -0.333008 -16.333 -1 -19l-13 -331c1.33301 -18.667 12.833 -34.334 34.5 -47.001
s52.167 -19 91.5 -19c18.667 0 32.667 2.16699 42 6.5s14 13.166 14 26.499c-2 27.333 -3.83301 56.333 -5.5 87s-3.16699 63.334 -4.5 98.001s-2.5 66.834 -3.5 96.501s-1.5 57.167 -1.5 82.5c8 150.667 12 238.667 12 264c0 8.66699 -9.66699 18 -29 28
c-24.667 12.667 -57.667 19 -99 19c-31.333 0 -69 -33.333 -113 -100l-57.5 -100l-57.5 -100c-44.667 -77.333 -82.334 -125.666 -113.001 -144.999c-6.66699 -4.66699 -13 -7 -19 -7c-8.66699 0 -15 5.33301 -19 16s-6 23.334 -6 38.001c0 20.667 3 66 9 136
c3.33301 35.333 6.33301 71 9 107s5.66699 73 9 111c0 15.333 -10.5 27.666 -31.5 36.999s-55.5 14 -103.5 14c-14 0 -26.5 -5.16699 -37.5 -15.5s-16.5 -22.166 -16.5 -35.499z" />
    <glyph glyph-name="Eacute" unicode="&#xc9;" horiz-adv-x="766" 
d="M47 663c0 -14.667 0.333984 -39.1689 1.00098 -73.502s1.66699 -78.833 3 -133.5l3.5 -140c1 -38.667 1.83301 -69.334 2.5 -92.001s1.16699 -46.167 1.5 -70.5s0.833008 -50.166 1.5 -77.499c0 -32 10 -54 30 -66c13.333 -8.66699 35.333 -13 66 -13
c6.66699 0 16 0.333008 28 1s20.333 1 25 1c18 0 49.667 43.667 95 131l61 121.5l61 120.5c44.667 88 78 132 100 132c14 0 23.333 -15.333 28 -46c2 -14 3 -28.333 3 -43c0 -10 -0.333008 -16.333 -1 -19l-13 -331c1.33301 -18.667 12.833 -34.334 34.5 -47.001
s52.167 -19 91.5 -19c18.667 0 32.667 2.16699 42 6.5s14 13.166 14 26.499c-2 27.333 -3.83301 56.333 -5.5 87s-3.16699 63.334 -4.5 98.001s-2.5 66.834 -3.5 96.501s-1.5 57.167 -1.5 82.5c8 150.667 12 238.667 12 264c0 8.66699 -9.66699 18 -29 28
c-24.667 12.667 -57.667 19 -99 19c-31.333 0 -69 -33.333 -113 -100l-57.5 -100l-57.5 -100c-44.667 -77.333 -82.334 -125.666 -113.001 -144.999c-6.66699 -4.66699 -13 -7 -19 -7c-8.66699 0 -15 5.33301 -19 16s-6 23.334 -6 38.001c0 20.667 3 66 9 136
c3.33301 35.333 6.33301 71 9 107s5.66699 73 9 111c0 15.333 -10.5 27.666 -31.5 36.999s-55.5 14 -103.5 14c-14 0 -26.5 -5.16699 -37.5 -15.5s-16.5 -22.166 -16.5 -35.499zM516.001 753.998c69.333 4 111.335 12.3301 126.002 24.9971s22 31.334 22 56.001
c0 20 -5 33.833 -15 41.5s-20 11.5 -30 11.5h-6c-14.667 0 -33.334 -3.33301 -56.001 -10c-11.333 -3.33301 -20.666 -5.66602 -27.999 -6.99902s-12.333 -2.33301 -15 -3c-76.667 -13.333 -128.667 -20 -156 -20c-34.667 0 -57.334 8.33301 -68.001 25
c-4 5.33301 -6.33301 10 -7 14s-1 9 -1 15c0 3.33301 0.166992 7.33301 0.5 12s0.833008 10.334 1.5 17.001c0 6.66699 -1.33301 11.834 -4 15.501s-6.83398 6.5 -12.501 8.5s-12.667 3.5 -21 4.5l-28.5 3.5h-38c-4.66699 0 -12 -0.333008 -22 -1s-18 -1.66699 -24 -3
c-14 -6 -24.5 -15.167 -31.5 -27.5s-10.5 -25.833 -10.5 -40.5c0 -18 4.66699 -34.167 14 -48.5s21 -23.5 35 -27.5c14.667 -4.66699 26.667 -7.33398 36 -8.00098s21.333 -1 36 -1h39c18 0 34.667 -2 50 -6c14.667 -3.33301 28 -11 40 -23s18 -23 18 -33z" />
    <glyph glyph-name="Ecircumflex" unicode="&#xca;" horiz-adv-x="813" 
d="M778 91c-3.33301 22.667 -33.666 33.998 -90.999 33.998s-98.666 16.667 -123.999 50c-45.333 60 -82.333 107 -111 141l-31.5 34.5l-33.5 34.5c0 20 23.333 51 70 93l62 56l63 55c45.333 41.333 68 70.666 68 87.999c0 28.667 -14.333 43 -43 43
c-65.333 0 -121 -29 -167 -87c-20.667 -26 -50.334 -80 -89.001 -162c-27.333 -57.333 -51 -86 -71 -86c-16.667 0 -30.667 6 -42 18s-17 26 -17 42v167c0 4 2 11.667 6 23c8 22.667 12 38.334 12 47.001c0 12 -4.33301 21.333 -13 28s-24 10 -46 10
c-28 0 -57.333 -8 -88 -24c-30.667 -14.667 -46 -27.667 -46 -39l18 -63l19 -63c5.33301 -34.667 9.33301 -76.334 12 -125.001s4 -105 4 -169c0 -34 -2.66699 -66.833 -8 -98.5s-11.333 -61.5 -18 -89.5c0 -19.333 6.16699 -33.166 18.5 -41.499s30.5 -12.5 54.5 -12.5
c26 0 50.333 9.33301 73 28c18.667 14.667 28 34.667 28 60c0 40 -0.666992 72.833 -2 98.5s-2 39.834 -2 42.501c0 1.33301 -0.333008 5.33301 -1 12s-1 12.334 -1 17.001c0 17.333 2.66699 31.833 8 43.5s15.666 17.5 30.999 17.5c18.667 0 45.667 -27.667 81 -83
l69.5 -107.5c16.333 -25.667 26.833 -41.167 31.5 -46.5c42.667 -54.667 83 -82 121 -82c49.333 0 98 10.667 146 32c34 14.667 51 33.667 51 57c0 4 -0.333008 7 -1 9z" />
    <glyph glyph-name="Edieresis" unicode="&#xcb;" horiz-adv-x="958" 
d="M943 77c0 30 -26.6689 44.999 -80.002 44.999s-91.333 13 -114 39c-4 6 -22 38.667 -54 98l-40 74c-9.33301 17.333 -14.666 27.666 -15.999 30.999c-50 124 -95.333 213.333 -136 268c-41.333 55.333 -83 83 -125 83c-60.667 0 -116.667 -5.66699 -168 -17
c-42.667 -8.66699 -64 -17.667 -64 -27c0 -21.333 9.33301 -42.333 28 -63c16 -18 28.667 -27 38 -27c14 0 33.667 2 59 6c24.667 4 42 6 52 6c22.667 0 39.834 -6.83301 51.501 -20.5s17.5 -39.5 17.5 -77.5c0 -14 -5.5 -29.833 -16.5 -47.5s-25 -36.334 -42 -56.001
s-36 -39.667 -57 -60l-60.5 -59.5c-19.333 -19.333 -36.666 -37.666 -51.999 -54.999s-26.333 -32.666 -33 -45.999c-60.667 -70.667 -91 -114.667 -91 -132c0 -9.33301 3.83301 -18.166 11.5 -26.499s19.167 -12.5 34.5 -12.5c53.333 -0 105 34.333 155 103
c7.33301 9.33301 44.666 73 111.999 191c38.667 68 72 102 100 102c18 0 40 -34.333 66 -103c36 -95.333 63.667 -159 83 -191c40.667 -68 89 -102 145 -102s101.667 5.66699 137 17c39.333 13.333 59 33.333 59 60z" />
    <glyph glyph-name="Igrave" unicode="&#xcc;" horiz-adv-x="898" 
d="M847 39l-6.99805 107.999c-1.33301 21.333 -2.33301 42.666 -3 63.999s-1 42.333 -1 63v285c0 1.33301 0.5 6.5 1.5 15.5s2.16699 22.167 3.5 39.5c0.666992 3.33301 1 7.33301 1 12v17c0 20.667 -5 36.334 -15 47.001s-29 16 -57 16c-35.333 0 -74.333 -31.333 -117 -94
l-101 -175c-36 -62 -64 -93 -84 -93c-36.667 0 -74.334 31.333 -113.001 94l-45 86l-45 87c-32 62 -59 93 -81 93c-36.667 0 -66.334 -4 -89.001 -12c-30 -11.333 -45 -28 -45 -50l12 -70c1.33301 -13.333 2.5 -29.333 3.5 -48s1.5 -40.667 1.5 -66
c0 -102.667 -1 -187.667 -3 -255s-4.66699 -120.666 -8 -159.999c0 -19.333 5.66699 -31.666 17 -36.999s32.333 -8 63 -8c76 0 114 15 114 45c-4.66699 44.667 -8.83398 90.667 -12.501 138s-5.5 101.666 -5.5 162.999c-0.666992 3.33301 -1 10 -1 20
c0 8 1.33301 17.667 4 29c3.33301 13.333 10.666 20 21.999 20c16 0 44 -31.333 84 -94s77.667 -94 113 -94c42.667 0 79.334 31.333 110.001 94s58 94 82 94c14 0 24 -8 30 -24c4 -11.333 6 -25 6 -41v-6c0 -2 -0.333008 -4.66699 -1 -8
c0 -20.667 -0.333008 -43.5 -1 -68.5s-1.66699 -52.5 -3 -82.5c-3.33301 -59.333 -6.33301 -107.333 -9 -144c0 -14.667 2.33301 -25.167 7 -31.5s16.334 -9.5 35.001 -9.5c48.667 0 83.667 4.16699 105 12.5s32 17.833 32 28.5z" />
    <glyph glyph-name="Iacute" unicode="&#xcd;" horiz-adv-x="758" 
d="M707 85l-16.9971 357.004c0.666992 28 2.66699 64 6 108c1.33301 26 3 50.5 5 73.5s4 44.167 6 63.5c0 10 -7.66699 17.167 -23 21.5s-41 6.5 -77 6.5c-24 0 -42.667 -3.66699 -56 -11c-18 -10 -27 -26.333 -27 -49c0 -2.66699 1 -10.334 3 -23.001l8 -53
c1.33301 -7.33301 2.66602 -16 3.99902 -26s3.33301 -21.667 6 -35c0 -41.333 -11 -69 -33 -83c-17.333 -11.333 -48 -17 -92 -17c-28 0.666992 -54 1.5 -78 2.5s-45.333 1.5 -64 1.5c-24 0 -40.5 6.16699 -49.5 18.5s-13.5 30.5 -13.5 54.5c0 7.33301 0.5 17 1.5 29
s2.83301 26.333 5.5 43s4.5 31 5.5 43s1.5 21.667 1.5 29c0 24 -4 42 -12 54c-10 14.667 -26.667 22 -50 22c-22 0 -45 -4.33301 -69 -13c-32.667 -10.667 -49 -26.334 -49 -47.001l14 -116c3.33301 -24.667 5.16602 -50.334 5.49902 -77.001s0.5 -54.334 0.5 -83.001
c0 -2.66699 -0.833008 -16.834 -2.5 -42.501l-7.5 -112.5l-7.5 -113.5c-1.66699 -26.333 -2.5 -41.5 -2.5 -45.5c0 -18.667 7.16699 -34.5 21.5 -47.5s31.833 -19.5 52.5 -19.5c28.667 0 52.667 4 72 12c26.667 10.667 40 29 40 55c0 4 -3 34.667 -9 92
c-3.33301 29.333 -5.83301 52 -7.5 68s-2.5 25.667 -2.5 29c0 35.333 10.333 59.333 31 72c14.667 10 37.667 15 69 15h102c40 0 69.333 -4.66699 88 -14c26 -13.333 39 -37.666 39 -72.999c0 -50 -1.83301 -89 -5.5 -117s-8.83398 -52 -15.501 -72
c0 -22 5.66699 -39.667 17 -53c8 -9.33301 17 -14 27 -14l33 -2c28.667 0 51.667 5 69 15c24.667 14 37 38.667 37 74z" />
    <glyph glyph-name="Icircumflex" unicode="&#xce;" horiz-adv-x="903" 
d="M866 365c0 102 -43.667 187.668 -131 257.001c-83.333 66 -182 99 -296 99c-112.667 0 -207.667 -33.667 -285 -101c-76.667 -66.667 -115 -151.667 -115 -255v-8c0 -4 -0.333008 -9.66699 -1 -17c0 -44.667 6.66699 -86.334 20 -125.001
c20.667 -59.333 57.667 -107.666 111 -144.999c67.333 -46.667 158.333 -70 273 -70c132 0 234.667 30.667 308 92c52.667 44 87.667 101.667 105 173c7.33301 31.333 11 64.666 11 99.999zM677 332.001c0 -51.333 -14.665 -99.667 -43.998 -145
c-42 -65.333 -106.667 -98 -194 -98c-72.667 0 -130.334 33 -173.001 99c-32 48.667 -48 96.667 -48 144c0 89.333 19.333 159.333 58 210c42.667 56.667 97 85 163 85c55.333 0 103.666 -16.667 144.999 -50c62 -50 93 -131.667 93 -245z" />
    <glyph glyph-name="Idieresis" unicode="&#xcf;" horiz-adv-x="977" 
d="M937 650c0 20 -7.16797 35.8359 -21.501 47.5029s-30.5 17.5 -48.5 17.5h-759c-22.667 0 -40 -7.83301 -52 -23.5s-18 -34.834 -18 -57.501c0 -12.667 6.5 -23.5 19.5 -32.5s29.833 -13.5 50.5 -13.5c40 0 66.333 -8.33301 79 -25c12.667 -15.333 19 -45.333 19 -90
c-3.33301 -31.333 -5.33301 -60.333 -6 -87s-1.16699 -53 -1.5 -79s-1 -52.667 -2 -80s-3.5 -56.666 -7.5 -87.999c-2.66699 -21.333 -4.5 -37.833 -5.5 -49.5s-1.5 -18.167 -1.5 -19.5c0 -22.667 4.66699 -40.5 14 -53.5s21.666 -19.5 36.999 -19.5c42 0 70 3 84 9
c27.333 11.333 41 36.666 41 75.999c-2 31.333 -4.5 66.666 -7.5 105.999s-5.83301 79 -8.5 119s-5 78.833 -7 116.5s-3 70.5 -3 98.5c0 35.333 8.33301 57.333 25 66c16.667 10 47.334 15 92.001 15h22c10 0 22.667 -0.333008 38 -1s29 -1 41 -1h33c24 0 41 -10.667 51 -32
c16 -34 24 -102.667 24 -206c0 -47.333 -3 -108.333 -9 -183c-1.33301 -12.667 -2.66602 -27 -3.99902 -43s-3 -34.333 -5 -55c0 -25.333 2.33301 -43 7 -53c9.33301 -21.333 26.333 -32 51 -32c52.667 0 86.667 8 102 24c10.667 10.667 16 37.667 16 81
c0 30 -1 62.5 -3 97.5l-6.5 108.5c-2.33301 37.333 -4.5 74.833 -6.5 112.5s-3 74.167 -3 109.5c0 14 0.833008 25.167 2.5 33.5s5 15 10 20s12 8.33301 21 10s21.167 2.5 36.5 2.5c21.333 0 38.333 3.66699 51 11s19 21.666 19 42.999z" />
    <glyph glyph-name="Eth" unicode="&#xd0;" horiz-adv-x="642" 
d="M634 484c0 75.333 -28.6709 131.002 -86.0039 167.002c-63.333 40.667 -169.333 61 -318 61c-57.333 0 -98.666 -8.66699 -123.999 -26c-18.667 -12.667 -28 -31.667 -28 -57c0 -10.667 3.33301 -28.334 10 -53.001c2.66699 -10 4 -18 4 -24v-224
c0 -38.667 -1 -80.667 -3 -126s-5.33301 -94 -10 -146c-5.33301 -65.333 -13.333 -139.333 -24 -222l-6 -45.5l-6 -45.5c2 -0.666992 8.66699 -1 20 -1c9.33301 0.666992 19.333 1 30 1h33c5.33301 0 11.5 -0.166992 18.5 -0.5s13.833 -0.833008 20.5 -1.5
s12.834 -1.16699 18.501 -1.5s9.83398 -0.5 12.501 -0.5c22.667 0 34 9.66699 34 29v732c-1.33301 5.33301 -2.66602 12 -3.99902 20s-2 16.667 -2 26c0 23.333 5.33301 41.333 16 54c14 17.333 37 26 69 26c41.333 0 80.333 -12.667 117 -38c30 -21.333 45 -49 45 -83
c0 -72.667 -18.333 -120.334 -55 -143.001c-21.333 -13.333 -60.333 -36.333 -117 -69l63 -16c56.667 0 112.667 16.333 168 49c69.333 41.333 104 94 104 158z" />
    <glyph glyph-name="Ntilde" unicode="&#xd1;" horiz-adv-x="814" 
d="M779 175c0 14.667 -4.16699 24.499 -12.5 29.499s-18.5 7.5 -30.5 7.5c-3.33301 0 -6.83301 -0.333008 -10.5 -1s-6.16699 -1 -7.5 -1c-68 0 -117.333 -22 -148 -66c-31.333 -43.333 -72.333 -65 -123 -65c-64 0 -117.333 15.333 -160 46
c-56.667 40.667 -85 105.667 -85 195c0 84.667 13 151 39 199c34 62.667 90.667 94 170 94c73.333 0 130.666 -26 171.999 -78c18.667 -24 44.667 -36 78 -36c44 0 74.667 4.33301 92 13s26 22 26 40c0 31.333 -37.667 64 -113 98s-148.333 51 -219 51
c-114.667 0 -207 -28 -277 -84c-51.333 -41.333 -89 -96.666 -113 -165.999c-14.667 -42 -22 -80 -22 -114c0 -115.333 49 -203.333 147 -264c76.667 -48.667 166.334 -73 269.001 -73c78 0 147 16 207 48c80.667 42.667 121 85 121 127z" />
    <glyph glyph-name="Ograve" unicode="&#xd2;" horiz-adv-x="862" 
d="M839 605c0 23.333 -1 42.501 -3 57.501s-5 26.833 -9 35.5s-9.33301 14.667 -16 18s-14.667 5 -24 5h-711c-17.333 0 -31 -11.667 -41 -35c-7.33301 -18 -11 -34.667 -11 -50c0 -41.333 4 -71.333 12 -90c10.667 -26 31.667 -39 63 -39c52 0 83.333 21.333 94 64
c12 43.333 46.333 65 103 65c24 0 40.833 -8.5 50.5 -25.5s14.5 -44.5 14.5 -82.5c0 -23.333 -1 -61.333 -3 -114l-2 -77.5c-0.666992 -25 -1.66699 -49.833 -3 -74.5l-28 -230c0 -14 8 -23.333 24 -28c4 -1.33301 9.83301 -2.33301 17.5 -3s16 -1.16699 25 -1.5
s17.833 -0.5 26.5 -0.5h22c32 0 53 3.5 63 10.5s15 17.5 15 31.5c-6 26 -10.667 48.167 -14 66.5s-5.83301 34.166 -7.5 47.499s-2.66699 25.333 -3 36s-0.5 21.667 -0.5 33v346c0 18 6.5 33.5 19.5 46.5s32.833 19.5 59.5 19.5c47.333 0 76 -21.667 86 -65
c10 -42.667 36 -64 78 -64c40 0 65.667 4 77 12c17.333 13.333 26 42 26 86z" />
    <glyph glyph-name="Oacute" unicode="&#xd3;" horiz-adv-x="955" 
d="M941 637c0 26.667 -19.665 46.666 -58.998 59.999c-35.333 11.333 -81 17 -137 17s-104.333 -34 -145 -102c-19.333 -32 -47 -95.667 -83 -191c-26 -68.667 -48 -103 -66 -103c-28 0 -61.333 34 -100 102c-67.333 118 -104.666 181.667 -111.999 191
c-50 68.667 -101.667 103 -155 103c-15.333 0 -26.833 -4.16699 -34.5 -12.5s-11.5 -17.166 -11.5 -26.499c0 -17.333 30.333 -61.333 91 -132c6.66699 -13.333 17.667 -28.666 33 -45.999s32.666 -35.666 51.999 -54.999l60.5 -59.5c21 -20.333 40 -40.333 57 -60
s31 -38.334 42 -56.001s16.5 -33.5 16.5 -47.5c0 -38 -5.83301 -63.833 -17.5 -77.5s-28.834 -20.5 -51.501 -20.5c-10 0 -27.333 2 -52 6c-25.333 4 -45 6 -59 6c-9.33301 0 -22 -9 -38 -27c-18.667 -20.667 -28 -41.667 -28 -63c0 -9.33301 21.333 -18.333 64 -27
c51.333 -11.333 107.333 -17 168 -17c42 0 83.667 27.667 125 83c40.667 54.667 86 144 136 268c1.33301 3.33301 6.66602 13.666 15.999 30.999l40 74c32 59.333 50 92 54 98c22.667 26 60.667 39 114 39s80 15 80 45z" />
    <glyph glyph-name="Ocircumflex" unicode="&#xd4;" horiz-adv-x="1000" 
d="M982 355c0 108.667 -38.332 190.332 -114.999 244.999c-38.667 27.333 -110 56.666 -214 87.999c-76 22.667 -114 47.334 -114 74.001c28 36 46.833 68.833 56.5 98.5s14.5 54.167 14.5 73.5c0 9.33301 -1 17 -3 23c-3.33301 14.667 -14.5 26 -33.5 34
s-39.167 12 -60.5 12c-23.333 0 -49 -6 -77 -18c-27.333 -11.333 -41 -23 -41 -35c2.66699 -13.333 7.16699 -28.166 13.5 -44.499l19 -50.5c6.33301 -17.333 11.833 -34.166 16.5 -50.499s7 -30.5 7 -42.5c0 -40.667 -37.667 -67 -113 -79
c-52 -8.66699 -95.5 -17.834 -130.5 -27.501s-61.167 -20.167 -78.5 -31.5c-74.667 -48.667 -112 -138.334 -112 -269.001c0 -104 36.667 -185.667 110 -245c40.667 -32.667 108.667 -65.334 204 -98.001c72.667 -24.667 109 -48.667 109 -72
c0 -24 -7.66699 -69.667 -23 -137c-3.33301 -16 -7 -31.667 -11 -47s-7.66699 -30.666 -11 -45.999c0 -11.333 11 -22.333 33 -33c17.333 -8.66699 32 -13 44 -13c22 0 47.667 9 77 27s44 35 44 51c0 50 -4.33301 95.333 -13 136s-18.334 75.334 -29.001 104.001
c0 10.667 20 18 60 22l119 12c28.667 4 60.667 18 96 42c44 30 79.333 67 106 111c33.333 55.333 50 117.333 50 186zM802.001 345.998c0 -74 -14.668 -136.668 -44.001 -188.001s-69.666 -77 -120.999 -77c-36 0 -61 16 -75 48c-8 18.667 -12 44.667 -12 78v17
c0 11.333 -0.5 33.333 -1.5 66s-2.16699 76 -3.5 130c-0.666992 10.667 -1 23 -1 37v47c0 42.667 3.33301 73 10 91s19.667 27 39 27c52.667 0 98.667 -20.667 138 -62c47.333 -51.333 71 -122.666 71 -213.999zM442 116.997c-9.33301 -24 -25.001 -35.999 -47.001 -35.999
c-48 0 -94.667 24.667 -140 74c-44.667 49.333 -67 102.666 -67 159.999c0 52 17 112 51 180c42.667 84.667 94 127 154 127c3.33301 0 6.83301 0.166992 10.5 0.5s7.83398 0.833008 12.501 1.5c14.667 0 24 -22.333 28 -67z" />
    <glyph glyph-name="Otilde" unicode="&#xd5;" horiz-adv-x="891" 
d="M847 66c0 18 -12.3389 29.9971 -37.0059 35.9971c-14.667 3.33301 -38.334 5 -71.001 5h-25c-12.667 0 -19.667 0.333008 -21 1c-12 6 -44 51.667 -96 137c-52 86 -78 134.667 -78 146c0 18 19 43.667 57 77c17.333 15.333 35 30.166 53 44.499l54 44.5
c4 4 7.33301 7 10 9c54 44.667 93.333 83.334 118 116.001c2.66699 2.66699 4 6.33398 4 11.001c0 8.66699 -5.83301 16.667 -17.5 24s-22.5 11 -32.5 11c-46.667 0 -91.667 -20.667 -135 -62c-9.33301 -9.33301 -21.666 -23.333 -36.999 -42s-33.666 -42.667 -54.999 -72
c-30 -40.667 -53 -61 -69 -61c-25.333 0 -47.666 20.667 -66.999 62l-54 114c-26.667 40.667 -62.334 61 -107.001 61c-53.333 0 -99.666 -4.66699 -138.999 -14c-38 -9.33301 -57 -20 -57 -32c0 -33.333 6.33301 -56.666 19 -69.999c10 -10.667 25 -16 45 -16
c1.33301 0 6.33301 0.5 15 1.5s21.334 2.83301 38.001 5.5c4.66699 0.666992 9.5 1.16699 14.5 1.5s10.167 0.5 15.5 0.5c14 0 25.333 -2.33301 34 -7c6 -3.33301 11 -7.33301 15 -12l28.5 -37c7.66699 -10 13.834 -18.333 18.501 -25
c45.333 -63.333 68 -107.666 68 -132.999c0 -48 -25.333 -96.333 -76 -145l-70.5 -57l-70.5 -56c-50.667 -40.667 -76 -74.667 -76 -102c0 -13.333 8 -22.333 24 -27c8 -2.66699 23 -4 45 -4c40 0 82 24.667 126 74c28 30.667 60 75.667 96 135c30 48.667 48.667 73 56 73
c26 0 53.333 -31.333 82 -94c45.333 -96.667 70.666 -149 75.999 -157c4 -6.66699 10.833 -12.167 20.5 -16.5s19.334 -7.83301 29.001 -10.5s18.334 -4.5 26.001 -5.5s11.834 -1.5 12.501 -1.5l59 3l34 -2c11.333 -0.666992 22 -1 32 -1c22 0 38.5 4.5 49.5 13.5
s16.5 27.5 16.5 55.5z" />
    <glyph glyph-name="Odieresis" unicode="&#xd6;" horiz-adv-x="828" 
d="M761 422c0 8.66699 0.162109 15.6709 0.495117 21.0039s0.5 11.333 0.5 18c0 7.33301 0.166992 16.333 0.5 27s0.5 26 0.5 46c-0.666992 96.667 -22.667 153.667 -66 171c-11.333 4.66699 -36.333 10.334 -75 17.001c-13.333 3.33301 -26.333 6 -39 8
s-25.667 4.33301 -39 7c2.66699 -11.333 4.66699 -21.333 6 -30s2.83301 -16.834 4.5 -24.501s3.83398 -15.334 6.50098 -23.001s6.66699 -16.5 12 -26.5c24.667 -50.667 38.334 -88.334 41.001 -113.001c4.66699 -25.333 7.33398 -51.833 8.00098 -79.5s1 -58.5 1 -92.5
c0 -36.667 -4 -70 -12 -100s-21.333 -55.667 -40 -77s-43.834 -38 -75.501 -50s-70.834 -18 -117.501 -18c-45.333 4 -81.833 14.5 -109.5 31.5s-48.834 38 -63.501 63s-24.334 53 -29.001 84s-7 62.167 -7 93.5c0 32.667 2.33301 62.834 7 90.501s9.66699 55 15 82
s10.333 54.5 15 82.5s7 58.667 7 92c0 9.33301 -2 16 -6 20c-6 7.33301 -17.667 14.666 -35 21.999c-6 2.66699 -12.667 4 -20 4c-12.667 0 -24.167 -9.33301 -34.5 -28s-19.666 -42.167 -27.999 -70.5s-15.5 -59.666 -21.5 -93.999s-11.167 -67.166 -15.5 -98.499
s-7.5 -59.166 -9.5 -83.499s-3 -40.5 -3 -48.5c0 -96 25 -176 75 -240c32.667 -41.333 70.834 -69.833 114.501 -85.5s93.167 -23.5 148.5 -23.5c8.66699 0 20.334 1.66699 35.001 5s29.834 7 45.501 11s30.334 8 44.001 12s23.5 7 29.5 9c8 2 15.833 4.66699 23.5 8
s15.167 7 22.5 11c20 -7.33301 35.667 -16.5 47 -27.5s17 -20.5 17 -28.5c0 -4 -2 -7.33301 -6 -10c-6 -4.66699 -16.5 -10.334 -31.5 -17.001s-32.167 -13.667 -51.5 -21s-40 -14.5 -62 -21.5s-42.833 -13.333 -62.5 -19s-37.5 -10.334 -53.5 -14.001
s-27.667 -5.5 -35 -5.5c-36.667 0 -73.5 4.33301 -110.5 13s-70.5 19 -100.5 31c-16.667 0 -31.834 -4.83301 -45.501 -14.5s-20.5 -19.5 -20.5 -29.5c0 -23.333 36 -42 108 -56c6 -1.33301 16.167 -2.83301 30.5 -4.5s30 -3.33398 47 -5.00098l51.5 -5
c17.333 -1.66699 32 -3.16699 44 -4.5c14.667 0.666992 35.834 3.16699 63.501 7.5s58 10.666 91 18.999s66.833 18.333 101.5 30s66.167 25.167 94.5 40.5s51.5 32.333 69.5 51s27 38.667 27 60c0 8 -3.5 16.5 -10.5 25.5s-16.333 18.167 -28 27.5
s-24.834 18.666 -39.501 27.999s-29.667 18.333 -45 27c16.667 21.333 30.834 44.5 42.501 69.5s21.334 50.333 29.001 76s13.167 51.167 16.5 76.5s5 49 5 71z" />
    <glyph glyph-name="multiply" unicode="&#xd7;" horiz-adv-x="636" 
d="M207 341c-10 6.66699 -18.0039 17.6631 -24.0039 32.9961s-10.5 32.166 -13.5 50.499s-5 37.5 -6 57.5s-1.5 38.333 -1.5 55c0 8 0.333008 17.833 1 29.5s2 23.834 4 36.501s4.83301 25.167 8.5 37.5s8.16699 23.5 13.5 33.5
c-2.66699 6.66699 -9.83398 12.5 -21.501 17.5s-24.667 9 -39 12s-28.666 5.16699 -42.999 6.5s-25.833 2 -34.5 2c-6 0 -10.5 -2.5 -13.5 -7.5s-5.16699 -11.5 -6.5 -19.5s-2.5 -17.167 -3.5 -27.5s-2.5 -20.833 -4.5 -31.5l-6.5 -40.5
c-1.66699 -10.333 -2.83398 -20.166 -3.50098 -29.499s-1.16699 -19.5 -1.5 -30.5s-0.5 -24.833 -0.5 -41.5c0 -32.667 7.66699 -66 23 -100s39 -63.333 71 -88c11.333 -9.33301 27.5 -18.333 48.5 -27s43.833 -16.667 68.5 -24s49.5 -13.166 74.5 -17.499
s47.5 -6.5 67.5 -6.5c9.33301 0 17.833 -1.16699 25.5 -3.5s13.834 -3.5 18.501 -3.5v-452c0 -15.333 10.333 -23 31 -23c2.66699 0 6.83398 0.166992 12.501 0.5s11.834 0.833008 18.501 1.5s13.5 1.16699 20.5 1.5s13.167 0.5 18.5 0.5h33
c10.667 0 20.667 -0.333008 30 -1c11.333 0 18 0.333008 20 1l-6 45.5l-6 45.5c-11.333 82.667 -19.333 156.667 -24 222c-4.66699 52 -8 100.667 -10 146s-3 87.333 -3 126v224c0 6 1.33301 14 4 24c6.66699 24.667 10 42.334 10 53.001c0 25.333 -9.33301 44.333 -28 57
c-12.667 8.66699 -24.167 15.167 -34.5 19.5s-22.166 6.5 -35.499 6.5s-24.166 -4.16699 -32.499 -12.5s-14.833 -18.333 -19.5 -30s-8 -23.834 -10 -36.501s-3 -23.667 -3 -33c0 -10.667 1 -25.167 3 -43.5s4.66699 -37.166 8 -56.499v-225l-58.5 18l-57 16.5l-45.5 13
c-12.667 3.66699 -21 6.83398 -25 9.50098z" />
    <glyph glyph-name="Oslash" unicode="&#xd8;" horiz-adv-x="1277" 
d="M1235 419c0 35.333 -14.9951 88.9971 -44.9951 160.997c-37.333 90 -79 135 -125 135c-10.667 0 -36 -4 -76 -12l-39 -8l-38 -8c9.33301 -27.333 31 -56 65 -86c40.667 -36.667 67.667 -66.334 81 -89.001c26 -43.333 39 -99 39 -167
c0 -67.333 -21.667 -128.333 -65 -183c-46 -57.333 -101.333 -86 -166 -86c-52.667 0 -94.334 22 -125.001 66c-22 30.667 -33 58.334 -33 83.001c1.33301 68.667 2.66602 123.5 3.99902 164.5s2.5 73.167 3.5 96.5s2.16699 40.5 3.5 51.5s2.66602 20.5 3.99902 28.5
c4.66699 34 8.16699 63.5 10.5 88.5s3.5 45.167 3.5 60.5c-17.333 -1.33301 -32.5 -2.66602 -45.5 -3.99902s-23.833 -2.66602 -32.5 -3.99902c-54 -7.33301 -84 -14 -90 -20c-2.66699 -2.66699 -4 -10.334 -4 -23.001c0 -0.666992 9 -69.334 27 -206.001
c8 -61.333 12 -113.666 12 -156.999c0 -62 -7.33301 -108.667 -22 -140c-18 -38.667 -47 -58 -87 -58c-85.333 0 -153.333 22.333 -204 67c-56 48.667 -84 119.334 -84 212.001c0 66 16.333 118.333 49 157c18 20.667 47.667 42.667 89 66c32 16.667 48 32 48 46
c0 10.667 -4 24 -12 40s-18 24 -30 24c-22 0 -57.333 -16.667 -106 -50c-54 -38 -99.333 -82.333 -136 -133c-44.667 -61.333 -67 -123.666 -67 -186.999c0 -96 25 -176 75 -240c56 -72 134 -108 234 -108c19.333 0 39.666 2.16699 60.999 6.5s42.833 10.5 64.5 18.5
s43.167 17.333 64.5 28s41.333 22.667 60 36c12 0 37.667 -15.667 77 -47c38.667 -30.667 96.667 -46 174 -46c87.333 0 171.666 42 252.999 126c86.667 88.667 130 188.667 130 300z" />
    <glyph glyph-name="Ugrave" unicode="&#xd9;" horiz-adv-x="1282" 
d="M1241 382c0 42.667 -11.998 101.662 -35.998 176.995c-30 94 -65.333 141 -106 141c-38 0 -76.333 -4.33301 -115 -13c-40.667 -9.33301 -67 -18.666 -79 -27.999l117 -108c46.667 -50.667 70 -118.667 70 -204c0 -75.333 -21 -139 -63 -191
c-41.333 -52 -90.666 -78 -147.999 -78c-54.667 0 -95 14.667 -121 44c-23.333 26 -38.333 67.333 -45 124c-4 32 -6 94.667 -6 188c0 6.66699 1.5 20.667 4.5 42l12.5 89l12 81.5c2.66699 19 4 30.833 4 35.5v2l-45.5 2c-15.667 0.666992 -32.167 1 -49.5 1
c-30.667 0 -55 -2.66699 -73 -8s-27 -14.666 -27 -27.999l16.5 -73l16.5 -72c10 -78 15 -183 15 -315c0 -28.667 -20.333 -51.334 -61 -68.001c-30 -12.667 -61 -19 -93 -19c-70.667 0 -131.334 24 -182.001 72c-51.333 48 -77 105 -77 171c0 46 24.333 97.333 73 154
c46 54 97 95.333 153 124l-33 68c-4 7.33301 -10.333 11 -19 11c-69.333 0 -140.666 -43.667 -213.999 -131c-72.667 -86.667 -109 -170.667 -109 -252c0 -95.333 34.667 -174.666 104 -237.999c61.333 -55.333 129.666 -83 204.999 -83c40 0 81.333 7.83301 124 23.5
s86.334 33.167 131.001 52.5l22 10c26 0 53.667 -11 83 -33c37.333 -28 65.666 -45.667 84.999 -53c10 -3.33301 21.333 -5 34 -5c13.333 0 35 3 65 9l65.5 12.5c15.667 3 25.167 4.5 28.5 4.5c12.667 0 19 -3.66699 19 -11c0 -8 -6.83301 -17.167 -20.5 -27.5
s-29.834 -20.5 -48.501 -30.5s-37.834 -19.5 -57.501 -28.5l-47.5 -21.5c-15.333 -6.66699 -33.333 -12.167 -54 -16.5s-41 -7.66602 -61 -9.99902s-38.167 -4 -54.5 -5s-27.5 -1.5 -33.5 -1.5c-36.667 0 -73.5 4.33301 -110.5 13s-70.5 19 -100.5 31
c-16.667 0 -31.834 -4.83301 -45.501 -14.5s-20.5 -19.5 -20.5 -29.5c0 -23.333 36 -42 108 -56c6 -1.33301 16 -2.66602 30 -3.99902s29.333 -2.66602 46 -3.99902s33.334 -2.5 50.001 -3.5s31 -1.5 43 -1.5c127.333 0 233 21 317 63s148.667 98 194 168
c72 108.667 108 225.667 108 351z" />
    <glyph glyph-name="Uacute" unicode="&#xda;" horiz-adv-x="818" 
d="M801 211c0 64 -34.6641 116.672 -103.997 158.005c-55.333 32.667 -111.333 49 -168 49l-63 -16l117 -69c36.667 -22.667 55 -70.334 55 -143.001c0 -34.667 -15 -62.334 -45 -83.001c-36.667 -25.333 -75.667 -38 -117 -38c-32 0 -55 8.66699 -69 26
c-10.667 12.667 -16 30.667 -16 54c0 9.33301 0.666992 18 2 26s2.66602 14.667 3.99902 20l21 373c0 15.333 -4 29.166 -12 41.499s-17.5 23.166 -28.5 32.499s-22.667 17.333 -35 24s-22.833 12 -31.5 16c-19.333 8.66699 -44 16.334 -74 23.001s-66 10 -108 10
c-20 0 -42.333 -7.33301 -67 -22c-24.667 -14 -37 -26.667 -37 -38c0 -33.333 28.333 -51.333 85 -54c56 -2.66699 91.667 -9.66699 107 -21h15l10 -57c3.33301 -19.333 6.16602 -37.833 8.49902 -55.5s4.33301 -33.834 6 -48.501s2.5 -26 2.5 -34
c0 -6.66699 -0.333008 -17.5 -1 -32.5s-1.5 -32.5 -2.5 -52.5s-2.16699 -41.333 -3.5 -64s-2.5 -44.834 -3.5 -66.501s-1.83301 -41.667 -2.5 -60s-1 -32.833 -1 -43.5c0 -25.333 9.33301 -44.333 28 -57c25.333 -17.333 66.666 -26 123.999 -26
c148.667 0 254.667 20.333 318 61c57.333 36 86 91.667 86 167z" />
    <glyph glyph-name="Ucircumflex" unicode="&#xdb;" horiz-adv-x="953" 
d="M633 211c0 64 -34.6641 116.672 -103.997 158.005c-55.333 32.667 -111.333 49 -168 49l-63 -16l117 -69c36.667 -22.667 55 -70.334 55 -143.001c0 -34.667 -15 -62.334 -45 -83.001c-36.667 -25.333 -75.667 -38 -117 -38c-32 0 -55 8.66699 -69 26
c-10.667 12.667 -16 30.667 -16 54c0 9.33301 0.666992 18 2 26s2.66602 14.667 3.99902 20v492c0 19.333 -11.333 29 -34 29c-2.66699 0 -6.83398 -0.166992 -12.501 -0.5s-11.834 -0.833008 -18.501 -1.5s-13.5 -1.16699 -20.5 -1.5s-13.167 -0.5 -18.5 -0.5h-33
c-10.667 0 -20.667 0.333008 -30 1c-5.33301 0 -9.16602 -3.16699 -11.499 -9.5s-3.5 -10.5 -3.5 -12.5c0 -4 1.16699 -12.833 3.5 -26.5s5 -30.334 8 -50.001s6.5 -40.834 10.5 -63.501s7.5 -44.667 10.5 -66l8 -59c2.33301 -18 3.5 -31.667 3.5 -41
c0 -6.66699 -0.333008 -17.5 -1 -32.5s-1.5 -32.5 -2.5 -52.5s-2.16699 -41.333 -3.5 -64s-2.5 -44.834 -3.5 -66.501s-1.83301 -41.667 -2.5 -60s-1 -32.833 -1 -43.5c0 -25.333 9.33301 -44.333 28 -57c25.333 -17.333 66.666 -26 123.999 -26
c148.667 0 254.667 20.333 318 61c57.333 36 86 91.667 86 167zM902.003 82.0049c-0.666992 16.667 -1.33008 35.666 -1.99707 56.999s-1.66699 45 -3 71c-0.666992 22.667 -1.33398 42 -2.00098 58s-1.33398 31 -2.00098 45l-2 42
c-0.666992 14 -1.33398 30.667 -2.00098 50c0 3.33301 0.5 16.666 1.5 39.999s2.83301 56.333 5.5 99c0.666992 24.667 2.66699 61.667 6 111c0 15.333 -3.33301 27.333 -10 36c-9.33301 13.333 -25.333 20 -48 20c-44 0 -79.167 -5.33301 -105.5 -16
s-39.5 -27.334 -39.5 -50.001c2 -9.33301 3.66699 -18 5 -26s2.33301 -15.333 3 -22c2.66699 -19.333 4.66699 -37.666 6 -54.999s2 -33.666 2 -48.999c0 -99.333 -1.5 -182.666 -4.5 -249.999s-6.83301 -121 -11.5 -161c0 -24 13.333 -45.333 40 -64s54.667 -28 84 -28
c52.667 0 79 30.667 79 92z" />
    <glyph glyph-name="Udieresis" unicode="&#xdc;" horiz-adv-x="643" 
d="M631 211c0 64 -34.6641 116.672 -103.997 158.005c-55.333 32.667 -111.333 49 -168 49l-63 -16l117 -69c36.667 -22.667 55 -70.334 55 -143.001c0 -34.667 -15 -62.334 -45 -83.001c-36.667 -25.333 -75.667 -38 -117 -38c-32 0 -55 8.66699 -69 26
c-10.667 12.667 -16 30.667 -16 54c0 9.33301 0.666992 18 2 26s2.66602 14.667 3.99902 20v492c0 19.333 -11.333 29 -34 29c-2.66699 0 -6.83398 -0.166992 -12.501 -0.5s-11.834 -0.833008 -18.501 -1.5s-13.5 -1.16699 -20.5 -1.5s-13.167 -0.5 -18.5 -0.5h-33
c-10.667 0 -20.667 0.333008 -30 1c-5.33301 0 -9.16602 -3.16699 -11.499 -9.5s-3.5 -10.5 -3.5 -12.5c0 -4 1.16699 -12.833 3.5 -26.5s5 -30.334 8 -50.001s6.5 -40.834 10.5 -63.501s7.5 -44.667 10.5 -66l8 -59c2.33301 -18 3.5 -31.667 3.5 -41
c0 -6.66699 -0.333008 -17.5 -1 -32.5s-1.5 -32.5 -2.5 -52.5s-2.16699 -41.333 -3.5 -64s-2.5 -44.834 -3.5 -66.501s-1.83301 -41.667 -2.5 -60s-1 -32.833 -1 -43.5c0 -25.333 9.33301 -44.333 28 -57c25.333 -17.333 66.666 -26 123.999 -26
c148.667 0 254.667 20.333 318 61c57.333 36 86 91.667 86 167z" />
    <glyph glyph-name="Yacute" unicode="&#xdd;" horiz-adv-x="831" 
d="M31 201c0 -43.333 31.998 -86.332 95.998 -128.999c72 -48 156.333 -72 253 -72c97.333 0 180.333 23.333 249 70c54 36.667 96.333 83.334 127 140.001c15.333 28.667 25.5 54.167 30.5 76.5s7.5 46.166 7.5 71.499c0 51.333 -7 98 -21 140
c-21.333 63.333 -57 112.666 -107 147.999c-65.333 46 -151.666 69 -258.999 69c-59.333 0 -120 -10.333 -182 -31c-86 -28 -136.333 -66.333 -151 -115c-1.33301 -6.66699 -2 -10.667 -2 -12c0 -14.667 10.667 -24.667 32 -30c10 -2.66699 25 -4 45 -4
c34 0 65.333 12.333 94 37c62.667 54 108.334 81 137.001 81c51.333 0 100.666 -16.333 147.999 -49c56 -38 84 -83.667 84 -137c0 -20.667 -8.16699 -35 -24.5 -43s-38.5 -12 -66.5 -12c-46 6 -92.667 11.167 -140 15.5s-89.333 6.5 -126 6.5
c-17.333 0 -29.5 -3.83301 -36.5 -11.5s-10.5 -20.167 -10.5 -37.5s5 -29 15 -35s23 -9 39 -9c6.66699 0 13.167 0.5 19.5 1.5l15.5 2.5c18.667 0 38.834 0.5 60.501 1.5s44.834 2.16699 69.501 3.5s47.5 2.5 68.5 3.5s40.167 1.5 57.5 1.5c6 0 12 -1.33301 18 -4
s11.667 -6 17 -10s9.66602 -8.66699 12.999 -14s5 -10.333 5 -15c0 -70.667 -33 -126 -99 -166c-52.667 -31.333 -108 -47 -166 -47c-42.667 0 -81.334 23 -116.001 69c-35.333 46 -80.666 69 -135.999 69c-4 0.666992 -7.66699 1 -11 1h-10
c-11.333 0 -20.333 -1.66699 -27 -5s-10 -10 -10 -20z" />
    <glyph glyph-name="Thorn" unicode="&#xde;" horiz-adv-x="1182" 
d="M253 92c-0.666992 16.667 -1.33301 35.665 -2 56.998s-1.66699 45 -3 71c-0.666992 12 -1.16699 22.833 -1.5 32.5s-0.5 18.834 -0.5 27.501c9.33301 -1.33301 18.833 -2.83301 28.5 -4.5s18.834 -4.16699 27.501 -7.5c3.33301 -1.33301 6.5 -2.5 9.5 -3.5
s6.16699 -2.16699 9.5 -3.5c1.33301 -8 3.16602 -15.833 5.49902 -23.5s4.83301 -15.167 7.5 -22.5c20.667 -59.333 57.667 -107.666 111 -144.999c67.333 -46.667 158.333 -70 273 -70c132 0 234.667 30.667 308 92c52.667 44 87.667 101.667 105 173
c7.33301 31.333 11 64.666 11 99.999c0 102 -43.667 187.667 -131 257c-83.333 66 -182 99 -296 99c-112.667 0 -207.667 -33.667 -285 -101c-72.667 -64 -111 -143.667 -115 -239l-48 -2c-8 0 -14.5 2.5 -19.5 7.5s-7.5 14.5 -7.5 28.5c0 3.33301 0.5 16.666 1.5 39.999
s2.83301 56.333 5.5 99c0.666992 24.667 2.66699 61.667 6 111c0 15.333 -3.33301 27.333 -10 36c-9.33301 13.333 -25.333 20 -48 20c-44 0 -79.167 -5.33301 -105.5 -16s-39.5 -27.334 -39.5 -50.001c2 -9.33301 3.66699 -18 5 -26s2.33301 -15.333 3 -22
c2.66699 -19.333 4.66699 -37.666 6 -54.999s2 -33.666 2 -48.999c0 -99.333 -1.5 -182.666 -4.5 -249.999s-6.83301 -121 -11.5 -161c0 -24 13.333 -45.333 40 -64s54.667 -28 84 -28c52.667 0 79 30.667 79 92zM953.001 331.998c0 -51.333 -14.665 -99.667 -43.998 -145
c-42 -65.333 -106.667 -98 -194 -98c-72.667 0 -130.334 33 -173.001 99c-32 48.667 -48 96.667 -48 144c0 89.333 19.333 159.333 58 210c42.667 56.667 97 85 163 85c55.333 0 103.666 -16.667 144.999 -50c62 -50 93 -131.667 93 -245z" />
    <glyph glyph-name="germandbls" unicode="&#xdf;" 
d="M311 277l21.9961 4c-2 -15.333 -7.83301 -29 -17.5 -41s-25.167 -28 -46.5 -48l-71 -57l-70 -56c-50.667 -40.667 -76 -74.667 -76 -102c0 -13.333 8 -22.333 24 -27c8 -2.66699 23 -4 45 -4c40 0 82 24.667 126 74c28 30.667 60 75.667 96 135
c5.33301 8.66699 12.333 19 21 31l27 36.5l27.5 35c9 11 17.167 20.5 24.5 28.5v-261c0 -19.333 11.333 -29 34 -29c2.66699 0 6.83398 0.166992 12.501 0.5s11.834 0.833008 18.501 1.5s13.5 1.16699 20.5 1.5s13.167 0.5 18.5 0.5h33c10.667 0 20.667 -0.333008 30 -1
c11.333 0 18 0.333008 20 1c-3.33301 26.667 -7 49.834 -11 69.501l-11 53.5c-3.33301 16 -6.66602 31.167 -9.99902 45.5s-6.33301 29.166 -9 44.499s-4.66699 32.166 -6 50.499s-2 39.833 -2 64.5v224c0 6 1.33301 14 4 24c6.66699 24.667 10 42.334 10 53.001
c0 25.333 -9.33301 44.333 -28 57c-25.333 17.333 -66.666 26 -123.999 26c-148.667 0 -254.667 -20.333 -318 -61c-57.333 -36 -86 -91.667 -86 -167c0 -64 34.667 -116.667 104 -158c55.333 -32.667 111.333 -49 168 -49zM442.996 500v-189.001l-37 -8
c-24 6 -44.333 12 -61 18s-30.834 11.5 -42.501 16.5s-21 9.5 -28 13.5s-12.833 7.66699 -17.5 11c-36.667 22.667 -55 70.334 -55 143.001c0 34 15 61.667 45 83c36.667 25.333 75.667 38 117 38c32 0 55 -8.66699 69 -26c10.667 -12.667 16 -30.667 16 -54
c0 -9.33301 -0.666992 -18 -2 -26s-2.66602 -14.667 -3.99902 -20z" />
    <glyph glyph-name="agrave" unicode="&#xe0;" horiz-adv-x="860" 
d="M844 46c0 28 -5.66895 45.666 -17.002 52.999c-6 4 -20 6 -42 6c-24 0 -42.333 3 -55 9c-21.333 9.33301 -40 28.333 -56 57l-91.5 203.5l-87.5 203.5c-23.333 54.667 -50.666 90.334 -81.999 107.001c-37.333 20 -97.666 30 -180.999 30c-20 0 -42.333 -7.33301 -67 -22
c-24.667 -14 -37 -26.667 -37 -38c0 -33.333 28.333 -51.333 85 -54c56 -2.66699 91.667 -9.66699 107 -21c20.667 -16.667 44 -52 70 -106c23.333 -50 35 -82 35 -96c0 -12 -6 -23.5 -18 -34.5s-27.333 -21.833 -46 -32.5s-39.5 -21 -62.5 -31l-66.5 -28.5
c-21.333 -9 -40.666 -17.667 -57.999 -26s-30 -15.833 -38 -22.5c-67.333 -34 -101 -59.667 -101 -77c0 -36 33.667 -68 101 -96c54 -22.667 102.667 -34 146 -34c34 0 72.667 10 116 30l61.5 28.5l69.5 33.5c25.333 0 41.666 -10 48.999 -30c14 -41.333 61.333 -62 142 -62
c44 0 75.667 3.5 95 10.5s29 20.167 29 39.5zM523.998 170.999c-15.333 -12 -42.334 -26 -81.001 -42c-39.333 -16 -69 -24 -89 -24c-4.66699 0 -20.667 7.66699 -48 23c-25.333 14.667 -38.666 24.667 -39.999 30c0 17.333 20.333 41 61 71c44 32 84 48 120 48
c32.667 0 54.667 -9.66699 66 -29c7.33301 -13.333 11 -39 11 -77z" />
    <glyph glyph-name="aacute" unicode="&#xe1;" 
d="M587 615c0 15.333 -0.828125 28.8369 -2.49512 40.5039s-5.83398 20.5 -12.501 26.5c-8.66699 8 -20.334 14.333 -35.001 19s-30.834 8.33398 -48.501 11.001s-36.334 4.5 -56.001 5.5s-38.834 1.5 -57.501 1.5c-21.333 0 -41.5 -0.333008 -60.5 -1s-35.167 -1 -48.5 -1
c-23.333 0 -42.666 -0.333008 -57.999 -1s-28.333 -1.16699 -39 -1.5s-19.5 -0.833008 -26.5 -1.5s-13.833 -1 -20.5 -1h-33c-10.667 0 -20.667 0.333008 -30 1c-5.33301 0 -9.16602 -3.16699 -11.499 -9.5s-3.5 -10.5 -3.5 -12.5c0 -4 1.16699 -12.833 3.5 -26.5
s5 -30.334 8 -50.001s6.5 -40.834 10.5 -63.501s7.5 -44.667 10.5 -66l8 -59c2.33301 -18 3.5 -31.667 3.5 -41c0 -6.66699 -0.333008 -17.5 -1 -32.5s-1.5 -32.5 -2.5 -52.5s-2.16699 -41.333 -3.5 -64s-2.5 -44.834 -3.5 -66.501s-1.83301 -41.667 -2.5 -60
s-1 -32.833 -1 -43.5c0 -25.333 9.33301 -44.333 28 -57c25.333 -17.333 66.666 -26 123.999 -26c148.667 0 254.667 20.333 318 61c57.333 36 86 91.667 86 167c0 64 -34.667 116.667 -104 158c-55.333 32.667 -111.333 49 -168 49l-63 -16l117 -69
c36.667 -22.667 55 -70.334 55 -143.001c0 -34.667 -15 -62.334 -45 -83.001c-36.667 -25.333 -75.667 -38 -117 -38c-32 0 -55 8.66699 -69 26c-10.667 12.667 -16 30.667 -16 54c0 9.33301 0.666992 18 2 26s2.66602 14.667 3.99902 20v441l68 -9
c6.66699 0.666992 13.5 1.16699 20.5 1.5s14.833 0.5 23.5 0.5c30 0 54 -6 72 -18l10 -15c4 -6 7.66699 -12 11 -18l9 -16l4 -7c2.66699 -22.667 12.667 -34 30 -34h54c11.333 0 20.5 0.166992 27.5 0.5s12.167 1.5 15.5 3.5c5.33301 2.66699 9.33301 6.16699 12 10.5
s4 10.5 4 18.5v61z" />
    <glyph glyph-name="acircumflex" unicode="&#xe2;" horiz-adv-x="685" 
d="M637 259c-4.66699 20 -14 36.999 -28 50.999c-13.333 13.333 -43.333 31 -90 53c-21.333 10 -32 19.667 -32 29c0 5.33301 24.667 37.333 74 96c12.667 14.667 22 30.334 28 47.001s9 33.334 9 50.001c0 35.333 -12 65.666 -36 90.999c-26 26.667 -61 40 -105 40h-299
c-50 0 -80.333 -3.66699 -91 -11c-10 -7.33301 -15 -31.333 -15 -72v-586c0 -22 4 -35.333 12 -40c7.33301 -4.66699 30.666 -7 69.999 -7h314c10 -0 19.5 0.333008 28.5 1s19 3.16699 30 7.5s23.667 11 38 20s31.5 21.833 51.5 38.5c17.333 14 30 31.333 38 52
s12 43.667 12 69c0 10.667 -0.666992 22.167 -2 34.5s-3.66602 24.5 -6.99902 36.5zM448 192.999c0 -46 -22.333 -77.332 -67 -93.999c-27.333 -10.667 -70 -16 -128 -16h-36v232c74 0 125.667 -5 155 -15c50.667 -16.667 76 -52.334 76 -107.001zM420 529
c-5.33301 -32.667 -17 -56.666 -35 -71.999c-32.667 -27.333 -88.667 -41 -168 -41v217c1.33301 0 3.33301 0.166992 6 0.5s5.66699 0.833008 9 1.5h23c48.667 0 88.5 -7.83301 119.5 -23.5s46.5 -38.834 46.5 -69.501c0 -6.66699 -0.333008 -11 -1 -13z" />
    <glyph glyph-name="atilde" unicode="&#xe3;" horiz-adv-x="608" 
d="M597 588l0.000976562 10.998c0 4.66699 0.333008 10 1 16c0 15.333 -0.833008 28.833 -2.5 40.5s-5.83398 20.5 -12.501 26.5c-9.33301 8 -21.5 14.333 -36.5 19s-31.167 8 -48.5 10s-35 3.16699 -53 3.5s-35 0.5 -51 0.5c-29.333 0 -58 -0.333008 -86 -1
s-55 -1.66699 -81 -3c-112 -7.33301 -168 -24.333 -168 -51c0 -40.667 1 -103.334 3 -188.001v-19c0 -7.33301 0.333008 -15.333 1 -24c0 -89.333 -2 -178.333 -6 -267c-1.33301 -30 -3.33301 -65.333 -6 -106c0 -10 1.16699 -18.5 3.5 -25.5s6.83301 -12.667 13.5 -17
s16 -7.66602 28 -9.99902s27.667 -3.5 47 -3.5c20 0 36 1 48 3s21.5 5.16699 28.5 9.5s11.667 10.166 14 17.499s3.5 16.333 3.5 27c0 4.66699 -0.333008 13.834 -1 27.501s-1 24.834 -1 33.501c0 36 -0.833008 77.833 -2.5 125.5s-4.16699 101.834 -7.5 162.501
c-1.33301 24 -2.33301 44.667 -3 62s-1 31.666 -1 42.999c0 50 7.66699 82 23 96c15.333 14.667 50.333 22 105 22c62.667 0 98 -24.667 106 -74c2.66699 -22.667 12.667 -34 30 -34c54.667 0 87 1.33301 97 4c10.667 2.66699 16 12.334 16 29.001
c-0.666992 4.66699 -1 9.66699 -1 15v19z" />
    <glyph glyph-name="adieresis" unicode="&#xe4;" horiz-adv-x="1070" 
d="M1049 76c0 14.667 -1.83105 24.998 -5.49805 30.998s-8.5 9 -14.5 9c-5.33301 0 -21 -5.66699 -47 -17s-46.667 -17 -62 -17c-20.667 0 -39.334 7 -56.001 21c-20.667 17.333 -38.334 45.333 -53.001 84c-9.33301 23.333 -23.833 63 -43.5 119l-75.5 221
c-26.667 80.667 -53.334 131.667 -80.001 153c-28.667 23.333 -82.334 35 -161.001 35c-36 0 -66.333 -5 -91 -15c-34.667 -14 -52 -37.667 -52 -71c0 -22 32.333 -34.333 97 -37c65.333 -3.33301 98 -20.666 98 -51.999c0 -10 -2 -21.333 -6 -34
c-6.66699 -20 -15.334 -40.667 -26.001 -62l-74 -143l-71 -143c-21.333 -41.333 -42.666 -62 -63.999 -62c-12 0 -32.667 18.667 -62 56s-59 56 -89 56c-25.333 0 -46 -7.33301 -62 -22s-24 -37 -24 -67c0 -45.333 23 -77.333 69 -96c36.667 -15.333 86.334 -23 149.001 -23
h185c78.667 0 141.5 5.66699 188.5 17s79.833 24.333 98.5 39c16 0 38.667 -12 68 -36c28.667 -24 64.334 -36 107.001 -36c64.667 0 112 19 142 57c11.333 14.667 17 26.334 17 35.001zM677.002 164.998c0 -26 -11.668 -46.668 -35.001 -62.001
c-29.333 -18 -77.666 -27 -144.999 -27c-79.333 0 -119 14.333 -119 43l28.5 57.5l33 64.5l32 60.5l25.5 45.5c30.667 52.667 51.667 79 63 79c14.667 0 38.667 -43.667 72 -131l19.5 -54c7.66699 -21.333 16.167 -46.666 25.5 -75.999z" />
    <glyph glyph-name="aring" unicode="&#xe5;" horiz-adv-x="831" 
d="M800 201c0 10 -3.33301 16.666 -10 19.999s-15.667 5 -27 5h-10c-3.33301 0 -7 -0.333008 -11 -1c-56 0 -101.333 -23 -136 -69c-35.333 -46 -74 -69 -116 -69c-58 0 -113.333 15.667 -166 47c-66 40 -99 95.333 -99 166c0 4.66699 1.66699 9.66699 5 15
s7.66602 10 12.999 14s11 7.33301 17 10s12 4 18 4c17.333 0 36.5 -0.5 57.5 -1.5s43.833 -2.16699 68.5 -3.5s47.834 -2.5 69.501 -3.5s41.834 -1.5 60.501 -1.5l15.5 -2.5c6.33301 -1 12.833 -1.5 19.5 -1.5c16 0 29 3 39 9s15 17.667 15 35s-3.5 29.833 -10.5 37.5
s-19.167 11.5 -36.5 11.5c-36.667 0 -78.667 -2.16699 -126 -6.5s-94 -9.5 -140 -15.5c-28 0 -50.167 4 -66.5 12s-24.5 22.333 -24.5 43c0 53.333 28 99 84 137c47.333 32.667 96.666 49 147.999 49c28 0 73.667 -27 137 -81c28.667 -24.667 60 -37 94 -37
c20 0 35 1.33301 45 4c21.333 5.33301 32 15.333 32 30c0 1.33301 -0.666992 5.33301 -2 12c-14.667 48.667 -65 87 -151 115c-62 20.667 -122.667 31 -182 31c-108 0 -194.333 -23 -259 -69c-50 -35.333 -85.667 -84.666 -107 -147.999c-14 -42 -21 -88.667 -21 -140
c0 -25.333 2.5 -49.166 7.5 -71.499s15.167 -47.833 30.5 -76.5c30.667 -56.667 73 -103.334 127 -140.001c68.667 -46.667 151.667 -70 249 -70c96.667 0 181 24 253 72c64 42.667 96 85.667 96 129z" />
    <glyph glyph-name="ae" unicode="&#xe6;" horiz-adv-x="1301" 
d="M1260 95c-3.33301 22.667 -33.6631 34.002 -90.9961 34.002s-98.666 16.667 -123.999 50c-45.333 60 -82.333 107 -111 141l-31.5 34.5l-33.5 34.5c0 20 23.333 51 70 93l62 56l63 55c45.333 41.333 68 70.666 68 87.999c0 28.667 -14.333 43 -43 43
c-65.333 0 -121 -29 -167 -87c-20.667 -26 -50.334 -80 -89.001 -162c-27.333 -57.333 -51 -86 -71 -86c-13.333 0 -22.833 3.66699 -28.5 11s-8.5 17.333 -8.5 30c1.33301 20.667 2.83301 39.167 4.5 55.5s3.83398 31.5 6.50098 45.5
c3.33301 10.667 6.66602 19.834 9.99902 27.501l9.5 22.5c3 7.33301 5.33301 14.833 7 22.5s2.5 16.834 2.5 27.501c0 5.33301 -1.33301 13.166 -4 23.499s-7.33398 20.666 -14.001 30.999s-15.167 19.333 -25.5 27s-23.5 11.5 -39.5 11.5c-28 -1.33301 -50 -3.5 -66 -6.5
s-27.833 -7.16699 -35.5 -12.5s-12.334 -12 -14.001 -20s-2.5 -18 -2.5 -30c0 -18 1.66699 -36.167 5 -54.5s7.16602 -36.833 11.499 -55.5s8.16602 -37.667 11.499 -57s5 -39 5 -59c0 -15.333 -6.33301 -26.5 -19 -33.5s-25.667 -10.5 -39 -10.5
c-20 0 -43.667 28.667 -71 86c-38.667 82 -68.334 136 -89.001 162c-46 58 -101.667 87 -167 87c-28.667 0 -43 -14.333 -43 -43c0 -17.333 22.667 -46.666 68 -87.999l63 -55l62 -56c46.667 -42 70 -73 70 -93l-33.5 -34.5l-31.5 -34.5c-29.333 -34 -66.333 -81 -111 -141
c-25.333 -33.333 -66.666 -50 -123.999 -50c-8 0 -17.5 -0.333008 -28.5 -1s-21.167 -2.16699 -30.5 -4.5s-17.333 -6.33301 -24 -12s-10 -13.5 -10 -23.5c0 -23.333 17 -42.333 51 -57c48 -21.333 96.667 -32 146 -32c38 0 78.333 27.333 121 82
c4.66699 5.33301 15.167 20.833 31.5 46.5l69.5 107.5c35.333 55.333 62.333 83 81 83c20.667 0 36 -5.5 46 -16.5s15 -26.5 15 -46.5c0 -21.333 -0.5 -40.333 -1.5 -57s-2.16699 -32.5 -3.5 -47.5s-2.5 -30 -3.5 -45s-1.5 -31.833 -1.5 -50.5c0 -8 2 -15.167 6 -21.5
s9 -11.833 15 -16.5s12.5 -8.5 19.5 -11.5s13.5 -5.16699 19.5 -6.5c15.333 0 29 5.16699 41 15.5s18.333 23.166 19 38.499l10 224c3.33301 13.333 7.83301 24.166 13.5 32.499s15.167 12.5 28.5 12.5c18.667 0 45.667 -27.667 81 -83l69.5 -107.5
c16.333 -25.667 26.833 -41.167 31.5 -46.5c42.667 -54.667 83 -82 121 -82c49.333 0 98 10.667 146 32c34 14.667 51 33.667 51 57z" />
    <glyph glyph-name="ccedilla" unicode="&#xe7;" horiz-adv-x="665" 
d="M581 258c32 32 48.0068 65.0039 48.0068 99.0039c-2 30.667 -14 54.667 -36 72s-60.333 31 -115 41c-22.667 4.66699 -41.5 11.834 -56.5 21.501s-25.167 22.5 -30.5 38.5c-2 6 -3 11 -3 15c0 22 34.333 34.333 103 37c69.333 4 111.333 12.333 126 25
c7.33301 6.66699 14.166 14.167 20.499 22.5s9.5 18.833 9.5 31.5c0 10.667 -1.83301 19.834 -5.5 27.501s-8.16699 13.667 -13.5 18s-11.166 7.5 -17.499 9.5s-12.5 3 -18.5 3c-4 0 -10.833 -1 -20.5 -3s-19.834 -4.33301 -30.501 -7l-31 -8
c-10 -2.66699 -17 -4.33398 -21 -5.00098c-76.667 -13.333 -128.667 -20 -156 -20c-34.667 0 -57.334 8.33301 -68.001 25c-4 5.33301 -6.33301 10 -7 14s-1 9 -1 15c0 3.33301 0.166992 7.33301 0.5 12s0.833008 10.334 1.5 17.001c0 6.66699 -1.33301 11.834 -4 15.501
s-6.83398 6.5 -12.501 8.5s-12.667 3.5 -21 4.5l-28.5 3.5h-38c-4.66699 0 -12 -0.333008 -22 -1s-18 -1.66699 -24 -3c-14 -6 -24.5 -15.167 -31.5 -27.5s-10.5 -25.833 -10.5 -40.5c0 -19.333 3.66699 -34.5 11 -45.5s16.833 -19.5 28.5 -25.5s24.667 -9.83301 39 -11.5
s28.5 -2.5 42.5 -2.5h39c18 0 34.667 -2 50 -6c14.667 -3.33301 28 -11 40 -23s18 -23 18 -33c0 -18.667 -20.333 -35.334 -61 -50.001c-6.66699 -2.66699 -16.5 -5.83398 -29.5 -9.50098l-48.5 -13.5c-16 -4 -29.167 -10.167 -39.5 -18.5s-15.5 -18.166 -15.5 -29.499
c0 -7.33301 2.33301 -16 7 -26c5.33301 -10.667 12.666 -17.667 21.999 -21s21 -5 35 -5c6.66699 0 14.5 0.666992 23.5 2s15.5 2.33301 19.5 3c6 1.33301 12 3 18 5s12.333 3.66699 19 5c23.333 5.33301 41.666 8 54.999 8c18 0 34.5 -4.33301 49.5 -13
s28.833 -23.334 41.5 -44.001c4.66699 -7.33301 7.83398 -14.166 9.50098 -20.499s2.5 -13.833 2.5 -22.5c0 -24 -9.66699 -48.667 -29 -74c-8.66699 -11.333 -18.167 -21.833 -28.5 -31.5s-21.833 -18.834 -34.5 -27.501c-32 -22.667 -59.833 -38.334 -83.5 -47.001
s-47.834 -13 -72.501 -13c-13.333 0 -24 0.666992 -32 2s-15 2 -21 2c-24.667 0 -46.667 -8.66699 -66 -26c-18.667 -16.667 -28 -35.334 -28 -56.001c0 -10.667 3.16699 -20.667 9.5 -30s15.833 -17 28.5 -23c2.66699 -1.33301 5.66699 -2 9 -2
c15.333 3.33301 31.166 7.83301 47.499 13.5s32.5 10.5 48.5 14.5c10.667 2 22.667 3.66699 36 5s27.166 3.66602 41.499 6.99902s28.833 8.16602 43.5 14.499s29 15.166 43 26.499z" />
    <glyph glyph-name="egrave" unicode="&#xe8;" horiz-adv-x="778" 
d="M50 663c0 -14.667 0.333984 -39.1689 1.00098 -73.502s1.66699 -78.833 3 -133.5l3.5 -140c1 -38.667 1.83301 -69.334 2.5 -92.001s1.16699 -46.167 1.5 -70.5s0.833008 -50.166 1.5 -77.499c0 -32 10 -54 30 -66c13.333 -8.66699 35.333 -13 66 -13
c6.66699 0 16 0.333008 28 1s20.333 1 25 1c18 0 49.667 43.667 95 131l61 121.5l61 120.5c44.667 88 78 132 100 132c14 0 23.333 -15.333 28 -46c2 -14 3 -28.333 3 -43c0 -10 -0.333008 -16.333 -1 -19l-13 -331c1.33301 -18.667 12.833 -34.334 34.5 -47.001
s52.167 -19 91.5 -19c18.667 0 32.667 2.16699 42 6.5s14 13.166 14 26.499c-2 27.333 -3.83301 56.333 -5.5 87s-3.16699 63.334 -4.5 98.001s-2.5 66.834 -3.5 96.501s-1.5 57.167 -1.5 82.5c8 150.667 12 238.667 12 264c0 8.66699 -9.66699 18 -29 28
c-24.667 12.667 -57.667 19 -99 19c-31.333 0 -69 -33.333 -113 -100l-57.5 -100l-57.5 -100c-44.667 -77.333 -82.334 -125.666 -113.001 -144.999c-6.66699 -4.66699 -13 -7 -19 -7c-8.66699 0 -15 5.33301 -19 16s-6 23.334 -6 38.001c0 20.667 3 66 9 136
c3.33301 35.333 6.33301 71 9 107s5.66699 73 9 111c0 15.333 -10.5 27.666 -31.5 36.999s-55.5 14 -103.5 14c-14 0 -26.5 -5.16699 -37.5 -15.5s-16.5 -22.166 -16.5 -35.499z" />
    <glyph glyph-name="eacute" unicode="&#xe9;" horiz-adv-x="766" 
d="M47 663c0 -14.667 0.333984 -39.1689 1.00098 -73.502s1.66699 -78.833 3 -133.5l3.5 -140c1 -38.667 1.83301 -69.334 2.5 -92.001s1.16699 -46.167 1.5 -70.5s0.833008 -50.166 1.5 -77.499c0 -32 10 -54 30 -66c13.333 -8.66699 35.333 -13 66 -13
c6.66699 0 16 0.333008 28 1s20.333 1 25 1c18 0 49.667 43.667 95 131l61 121.5l61 120.5c44.667 88 78 132 100 132c14 0 23.333 -15.333 28 -46c2 -14 3 -28.333 3 -43c0 -10 -0.333008 -16.333 -1 -19l-13 -331c1.33301 -18.667 12.833 -34.334 34.5 -47.001
s52.167 -19 91.5 -19c18.667 0 32.667 2.16699 42 6.5s14 13.166 14 26.499c-2 27.333 -3.83301 56.333 -5.5 87s-3.16699 63.334 -4.5 98.001s-2.5 66.834 -3.5 96.501s-1.5 57.167 -1.5 82.5c8 150.667 12 238.667 12 264c0 8.66699 -9.66699 18 -29 28
c-24.667 12.667 -57.667 19 -99 19c-31.333 0 -69 -33.333 -113 -100l-57.5 -100l-57.5 -100c-44.667 -77.333 -82.334 -125.666 -113.001 -144.999c-6.66699 -4.66699 -13 -7 -19 -7c-8.66699 0 -15 5.33301 -19 16s-6 23.334 -6 38.001c0 20.667 3 66 9 136
c3.33301 35.333 6.33301 71 9 107s5.66699 73 9 111c0 15.333 -10.5 27.666 -31.5 36.999s-55.5 14 -103.5 14c-14 0 -26.5 -5.16699 -37.5 -15.5s-16.5 -22.166 -16.5 -35.499zM516.001 753.998c69.333 4 111.335 12.3301 126.002 24.9971s22 31.334 22 56.001
c0 20 -5 33.833 -15 41.5s-20 11.5 -30 11.5h-6c-14.667 0 -33.334 -3.33301 -56.001 -10c-11.333 -3.33301 -20.666 -5.66602 -27.999 -6.99902s-12.333 -2.33301 -15 -3c-76.667 -13.333 -128.667 -20 -156 -20c-34.667 0 -57.334 8.33301 -68.001 25
c-4 5.33301 -6.33301 10 -7 14s-1 9 -1 15c0 3.33301 0.166992 7.33301 0.5 12s0.833008 10.334 1.5 17.001c0 6.66699 -1.33301 11.834 -4 15.501s-6.83398 6.5 -12.501 8.5s-12.667 3.5 -21 4.5l-28.5 3.5h-38c-4.66699 0 -12 -0.333008 -22 -1s-18 -1.66699 -24 -3
c-14 -6 -24.5 -15.167 -31.5 -27.5s-10.5 -25.833 -10.5 -40.5c0 -18 4.66699 -34.167 14 -48.5s21 -23.5 35 -27.5c14.667 -4.66699 26.667 -7.33398 36 -8.00098s21.333 -1 36 -1h39c18 0 34.667 -2 50 -6c14.667 -3.33301 28 -11 40 -23s18 -23 18 -33z" />
    <glyph glyph-name="ecircumflex" unicode="&#xea;" horiz-adv-x="813" 
d="M778 91c-3.33301 22.667 -33.666 33.998 -90.999 33.998s-98.666 16.667 -123.999 50c-45.333 60 -82.333 107 -111 141l-31.5 34.5l-33.5 34.5c0 20 23.333 51 70 93l62 56l63 55c45.333 41.333 68 70.666 68 87.999c0 28.667 -14.333 43 -43 43
c-65.333 0 -121 -29 -167 -87c-20.667 -26 -50.334 -80 -89.001 -162c-27.333 -57.333 -51 -86 -71 -86c-16.667 0 -30.667 6 -42 18s-17 26 -17 42v167c0 4 2 11.667 6 23c8 22.667 12 38.334 12 47.001c0 12 -4.33301 21.333 -13 28s-24 10 -46 10
c-28 0 -57.333 -8 -88 -24c-30.667 -14.667 -46 -27.667 -46 -39l18 -63l19 -63c5.33301 -34.667 9.33301 -76.334 12 -125.001s4 -105 4 -169c0 -34 -2.66699 -66.833 -8 -98.5s-11.333 -61.5 -18 -89.5c0 -19.333 6.16699 -33.166 18.5 -41.499s30.5 -12.5 54.5 -12.5
c26 0 50.333 9.33301 73 28c18.667 14.667 28 34.667 28 60c0 40 -0.666992 72.833 -2 98.5s-2 39.834 -2 42.501c0 1.33301 -0.333008 5.33301 -1 12s-1 12.334 -1 17.001c0 17.333 2.66699 31.833 8 43.5s15.666 17.5 30.999 17.5c18.667 0 45.667 -27.667 81 -83
l69.5 -107.5c16.333 -25.667 26.833 -41.167 31.5 -46.5c42.667 -54.667 83 -82 121 -82c49.333 0 98 10.667 146 32c34 14.667 51 33.667 51 57c0 4 -0.333008 7 -1 9z" />
    <glyph glyph-name="edieresis" unicode="&#xeb;" horiz-adv-x="958" 
d="M943 77c0 30 -26.6689 44.999 -80.002 44.999s-91.333 13 -114 39c-4 6 -22 38.667 -54 98l-40 74c-9.33301 17.333 -14.666 27.666 -15.999 30.999c-50 124 -95.333 213.333 -136 268c-41.333 55.333 -83 83 -125 83c-60.667 0 -116.667 -5.66699 -168 -17
c-42.667 -8.66699 -64 -17.667 -64 -27c0 -21.333 9.33301 -42.333 28 -63c16 -18 28.667 -27 38 -27c14 0 33.667 2 59 6c24.667 4 42 6 52 6c22.667 0 39.834 -6.83301 51.501 -20.5s17.5 -39.5 17.5 -77.5c0 -14 -5.5 -29.833 -16.5 -47.5s-25 -36.334 -42 -56.001
s-36 -39.667 -57 -60l-60.5 -59.5c-19.333 -19.333 -36.666 -37.666 -51.999 -54.999s-26.333 -32.666 -33 -45.999c-60.667 -70.667 -91 -114.667 -91 -132c0 -9.33301 3.83301 -18.166 11.5 -26.499s19.167 -12.5 34.5 -12.5c53.333 -0 105 34.333 155 103
c7.33301 9.33301 44.666 73 111.999 191c38.667 68 72 102 100 102c18 0 40 -34.333 66 -103c36 -95.333 63.667 -159 83 -191c40.667 -68 89 -102 145 -102s101.667 5.66699 137 17c39.333 13.333 59 33.333 59 60z" />
    <glyph glyph-name="igrave" unicode="&#xec;" horiz-adv-x="898" 
d="M847 39l-6.99805 107.999c-1.33301 21.333 -2.33301 42.666 -3 63.999s-1 42.333 -1 63v285c0 1.33301 0.5 6.5 1.5 15.5s2.16699 22.167 3.5 39.5c0.666992 3.33301 1 7.33301 1 12v17c0 20.667 -5 36.334 -15 47.001s-29 16 -57 16c-35.333 0 -74.333 -31.333 -117 -94
l-101 -175c-36 -62 -64 -93 -84 -93c-36.667 0 -74.334 31.333 -113.001 94l-45 86l-45 87c-32 62 -59 93 -81 93c-36.667 0 -66.334 -4 -89.001 -12c-30 -11.333 -45 -28 -45 -50l12 -70c1.33301 -13.333 2.5 -29.333 3.5 -48s1.5 -40.667 1.5 -66
c0 -102.667 -1 -187.667 -3 -255s-4.66699 -120.666 -8 -159.999c0 -19.333 5.66699 -31.666 17 -36.999s32.333 -8 63 -8c76 0 114 15 114 45c-4.66699 44.667 -8.83398 90.667 -12.501 138s-5.5 101.666 -5.5 162.999c-0.666992 3.33301 -1 10 -1 20
c0 8 1.33301 17.667 4 29c3.33301 13.333 10.666 20 21.999 20c16 0 44 -31.333 84 -94s77.667 -94 113 -94c42.667 0 79.334 31.333 110.001 94s58 94 82 94c14 0 24 -8 30 -24c4 -11.333 6 -25 6 -41v-6c0 -2 -0.333008 -4.66699 -1 -8
c0 -20.667 -0.333008 -43.5 -1 -68.5s-1.66699 -52.5 -3 -82.5c-3.33301 -59.333 -6.33301 -107.333 -9 -144c0 -14.667 2.33301 -25.167 7 -31.5s16.334 -9.5 35.001 -9.5c48.667 0 83.667 4.16699 105 12.5s32 17.833 32 28.5z" />
    <glyph glyph-name="iacute" unicode="&#xed;" horiz-adv-x="758" 
d="M707 85l-16.9971 357.004c0.666992 28 2.66699 64 6 108c1.33301 26 3 50.5 5 73.5s4 44.167 6 63.5c0 10 -7.66699 17.167 -23 21.5s-41 6.5 -77 6.5c-24 0 -42.667 -3.66699 -56 -11c-18 -10 -27 -26.333 -27 -49c0 -2.66699 1 -10.334 3 -23.001l8 -53
c1.33301 -7.33301 2.66602 -16 3.99902 -26s3.33301 -21.667 6 -35c0 -41.333 -11 -69 -33 -83c-17.333 -11.333 -48 -17 -92 -17c-28 0.666992 -54 1.5 -78 2.5s-45.333 1.5 -64 1.5c-24 0 -40.5 6.16699 -49.5 18.5s-13.5 30.5 -13.5 54.5c0 7.33301 0.5 17 1.5 29
s2.83301 26.333 5.5 43s4.5 31 5.5 43s1.5 21.667 1.5 29c0 24 -4 42 -12 54c-10 14.667 -26.667 22 -50 22c-22 0 -45 -4.33301 -69 -13c-32.667 -10.667 -49 -26.334 -49 -47.001l14 -116c3.33301 -24.667 5.16602 -50.334 5.49902 -77.001s0.5 -54.334 0.5 -83.001
c0 -2.66699 -0.833008 -16.834 -2.5 -42.501l-7.5 -112.5l-7.5 -113.5c-1.66699 -26.333 -2.5 -41.5 -2.5 -45.5c0 -18.667 7.16699 -34.5 21.5 -47.5s31.833 -19.5 52.5 -19.5c28.667 0 52.667 4 72 12c26.667 10.667 40 29 40 55c0 4 -3 34.667 -9 92
c-3.33301 29.333 -5.83301 52 -7.5 68s-2.5 25.667 -2.5 29c0 35.333 10.333 59.333 31 72c14.667 10 37.667 15 69 15h102c40 0 69.333 -4.66699 88 -14c26 -13.333 39 -37.666 39 -72.999c0 -50 -1.83301 -89 -5.5 -117s-8.83398 -52 -15.501 -72
c0 -22 5.66699 -39.667 17 -53c8 -9.33301 17 -14 27 -14l33 -2c28.667 0 51.667 5 69 15c24.667 14 37 38.667 37 74z" />
    <glyph glyph-name="icircumflex" unicode="&#xee;" horiz-adv-x="903" 
d="M866 365c0 102 -43.667 187.668 -131 257.001c-83.333 66 -182 99 -296 99c-112.667 0 -207.667 -33.667 -285 -101c-76.667 -66.667 -115 -151.667 -115 -255v-8c0 -4 -0.333008 -9.66699 -1 -17c0 -44.667 6.66699 -86.334 20 -125.001
c20.667 -59.333 57.667 -107.666 111 -144.999c67.333 -46.667 158.333 -70 273 -70c132 0 234.667 30.667 308 92c52.667 44 87.667 101.667 105 173c7.33301 31.333 11 64.666 11 99.999zM677 332.001c0 -51.333 -14.665 -99.667 -43.998 -145
c-42 -65.333 -106.667 -98 -194 -98c-72.667 0 -130.334 33 -173.001 99c-32 48.667 -48 96.667 -48 144c0 89.333 19.333 159.333 58 210c42.667 56.667 97 85 163 85c55.333 0 103.666 -16.667 144.999 -50c62 -50 93 -131.667 93 -245z" />
    <glyph glyph-name="idieresis" unicode="&#xef;" horiz-adv-x="977" 
d="M937 650c0 20 -7.16797 35.8359 -21.501 47.5029s-30.5 17.5 -48.5 17.5h-759c-22.667 0 -40 -7.83301 -52 -23.5s-18 -34.834 -18 -57.501c0 -12.667 6.5 -23.5 19.5 -32.5s29.833 -13.5 50.5 -13.5c40 0 66.333 -8.33301 79 -25c12.667 -15.333 19 -45.333 19 -90
c-3.33301 -31.333 -5.33301 -60.333 -6 -87s-1.16699 -53 -1.5 -79s-1 -52.667 -2 -80s-3.5 -56.666 -7.5 -87.999c-2.66699 -21.333 -4.5 -37.833 -5.5 -49.5s-1.5 -18.167 -1.5 -19.5c0 -22.667 4.66699 -40.5 14 -53.5s21.666 -19.5 36.999 -19.5c42 0 70 3 84 9
c27.333 11.333 41 36.666 41 75.999c-2 31.333 -4.5 66.666 -7.5 105.999s-5.83301 79 -8.5 119s-5 78.833 -7 116.5s-3 70.5 -3 98.5c0 35.333 8.33301 57.333 25 66c16.667 10 47.334 15 92.001 15h22c10 0 22.667 -0.333008 38 -1s29 -1 41 -1h33c24 0 41 -10.667 51 -32
c16 -34 24 -102.667 24 -206c0 -47.333 -3 -108.333 -9 -183c-1.33301 -12.667 -2.66602 -27 -3.99902 -43s-3 -34.333 -5 -55c0 -25.333 2.33301 -43 7 -53c9.33301 -21.333 26.333 -32 51 -32c52.667 0 86.667 8 102 24c10.667 10.667 16 37.667 16 81
c0 30 -1 62.5 -3 97.5l-6.5 108.5c-2.33301 37.333 -4.5 74.833 -6.5 112.5s-3 74.167 -3 109.5c0 14 0.833008 25.167 2.5 33.5s5 15 10 20s12 8.33301 21 10s21.167 2.5 36.5 2.5c21.333 0 38.333 3.66699 51 11s19 21.666 19 42.999z" />
    <glyph glyph-name="eth" unicode="&#xf0;" horiz-adv-x="642" 
d="M634 484c0 75.333 -28.6709 131.002 -86.0039 167.002c-63.333 40.667 -169.333 61 -318 61c-57.333 0 -98.666 -8.66699 -123.999 -26c-18.667 -12.667 -28 -31.667 -28 -57c0 -10.667 3.33301 -28.334 10 -53.001c2.66699 -10 4 -18 4 -24v-224
c0 -38.667 -1 -80.667 -3 -126s-5.33301 -94 -10 -146c-5.33301 -65.333 -13.333 -139.333 -24 -222l-6 -45.5l-6 -45.5c2 -0.666992 8.66699 -1 20 -1c9.33301 0.666992 19.333 1 30 1h33c5.33301 0 11.5 -0.166992 18.5 -0.5s13.833 -0.833008 20.5 -1.5
s12.834 -1.16699 18.501 -1.5s9.83398 -0.5 12.501 -0.5c22.667 0 34 9.66699 34 29v732c-1.33301 5.33301 -2.66602 12 -3.99902 20s-2 16.667 -2 26c0 23.333 5.33301 41.333 16 54c14 17.333 37 26 69 26c41.333 0 80.333 -12.667 117 -38c30 -21.333 45 -49 45 -83
c0 -72.667 -18.333 -120.334 -55 -143.001c-21.333 -13.333 -60.333 -36.333 -117 -69l63 -16c56.667 0 112.667 16.333 168 49c69.333 41.333 104 94 104 158z" />
    <glyph glyph-name="ntilde" unicode="&#xf1;" horiz-adv-x="814" 
d="M779 175c0 14.667 -4.16699 24.499 -12.5 29.499s-18.5 7.5 -30.5 7.5c-3.33301 0 -6.83301 -0.333008 -10.5 -1s-6.16699 -1 -7.5 -1c-68 0 -117.333 -22 -148 -66c-31.333 -43.333 -72.333 -65 -123 -65c-64 0 -117.333 15.333 -160 46
c-56.667 40.667 -85 105.667 -85 195c0 84.667 13 151 39 199c34 62.667 90.667 94 170 94c73.333 0 130.666 -26 171.999 -78c18.667 -24 44.667 -36 78 -36c44 0 74.667 4.33301 92 13s26 22 26 40c0 31.333 -37.667 64 -113 98s-148.333 51 -219 51
c-114.667 0 -207 -28 -277 -84c-51.333 -41.333 -89 -96.666 -113 -165.999c-14.667 -42 -22 -80 -22 -114c0 -115.333 49 -203.333 147 -264c76.667 -48.667 166.334 -73 269.001 -73c78 0 147 16 207 48c80.667 42.667 121 85 121 127z" />
    <glyph glyph-name="ograve" unicode="&#xf2;" horiz-adv-x="862" 
d="M839 605c0 23.333 -1 42.501 -3 57.501s-5 26.833 -9 35.5s-9.33301 14.667 -16 18s-14.667 5 -24 5h-711c-17.333 0 -31 -11.667 -41 -35c-7.33301 -18 -11 -34.667 -11 -50c0 -41.333 4 -71.333 12 -90c10.667 -26 31.667 -39 63 -39c52 0 83.333 21.333 94 64
c12 43.333 46.333 65 103 65c24 0 40.833 -8.5 50.5 -25.5s14.5 -44.5 14.5 -82.5c0 -23.333 -1 -61.333 -3 -114l-2 -77.5c-0.666992 -25 -1.66699 -49.833 -3 -74.5l-28 -230c0 -14 8 -23.333 24 -28c4 -1.33301 9.83301 -2.33301 17.5 -3s16 -1.16699 25 -1.5
s17.833 -0.5 26.5 -0.5h22c32 0 53 3.5 63 10.5s15 17.5 15 31.5c-6 26 -10.667 48.167 -14 66.5s-5.83301 34.166 -7.5 47.499s-2.66699 25.333 -3 36s-0.5 21.667 -0.5 33v346c0 18 6.5 33.5 19.5 46.5s32.833 19.5 59.5 19.5c47.333 0 76 -21.667 86 -65
c10 -42.667 36 -64 78 -64c40 0 65.667 4 77 12c17.333 13.333 26 42 26 86z" />
    <glyph glyph-name="oacute" unicode="&#xf3;" horiz-adv-x="955" 
d="M941 637c0 26.667 -19.665 46.666 -58.998 59.999c-35.333 11.333 -81 17 -137 17s-104.333 -34 -145 -102c-19.333 -32 -47 -95.667 -83 -191c-26 -68.667 -48 -103 -66 -103c-28 0 -61.333 34 -100 102c-67.333 118 -104.666 181.667 -111.999 191
c-50 68.667 -101.667 103 -155 103c-15.333 0 -26.833 -4.16699 -34.5 -12.5s-11.5 -17.166 -11.5 -26.499c0 -17.333 30.333 -61.333 91 -132c6.66699 -13.333 17.667 -28.666 33 -45.999s32.666 -35.666 51.999 -54.999l60.5 -59.5c21 -20.333 40 -40.333 57 -60
s31 -38.334 42 -56.001s16.5 -33.5 16.5 -47.5c0 -38 -5.83301 -63.833 -17.5 -77.5s-28.834 -20.5 -51.501 -20.5c-10 0 -27.333 2 -52 6c-25.333 4 -45 6 -59 6c-9.33301 0 -22 -9 -38 -27c-18.667 -20.667 -28 -41.667 -28 -63c0 -9.33301 21.333 -18.333 64 -27
c51.333 -11.333 107.333 -17 168 -17c42 0 83.667 27.667 125 83c40.667 54.667 86 144 136 268c1.33301 3.33301 6.66602 13.666 15.999 30.999l40 74c32 59.333 50 92 54 98c22.667 26 60.667 39 114 39s80 15 80 45z" />
    <glyph glyph-name="ocircumflex" unicode="&#xf4;" horiz-adv-x="1000" 
d="M982 355c0 108.667 -38.332 190.332 -114.999 244.999c-38.667 27.333 -110 56.666 -214 87.999c-76 22.667 -114 47.334 -114 74.001c28 36 46.833 68.833 56.5 98.5s14.5 54.167 14.5 73.5c0 9.33301 -1 17 -3 23c-3.33301 14.667 -14.5 26 -33.5 34
s-39.167 12 -60.5 12c-23.333 0 -49 -6 -77 -18c-27.333 -11.333 -41 -23 -41 -35c2.66699 -13.333 7.16699 -28.166 13.5 -44.499l19 -50.5c6.33301 -17.333 11.833 -34.166 16.5 -50.499s7 -30.5 7 -42.5c0 -40.667 -37.667 -67 -113 -79
c-52 -8.66699 -95.5 -17.834 -130.5 -27.501s-61.167 -20.167 -78.5 -31.5c-74.667 -48.667 -112 -138.334 -112 -269.001c0 -104 36.667 -185.667 110 -245c40.667 -32.667 108.667 -65.334 204 -98.001c72.667 -24.667 109 -48.667 109 -72
c0 -24 -7.66699 -69.667 -23 -137c-3.33301 -16 -7 -31.667 -11 -47s-7.66699 -30.666 -11 -45.999c0 -11.333 11 -22.333 33 -33c17.333 -8.66699 32 -13 44 -13c22 0 47.667 9 77 27s44 35 44 51c0 50 -4.33301 95.333 -13 136s-18.334 75.334 -29.001 104.001
c0 10.667 20 18 60 22l119 12c28.667 4 60.667 18 96 42c44 30 79.333 67 106 111c33.333 55.333 50 117.333 50 186zM802.001 345.998c0 -74 -14.668 -136.668 -44.001 -188.001s-69.666 -77 -120.999 -77c-36 0 -61 16 -75 48c-8 18.667 -12 44.667 -12 78v17
c0 11.333 -0.5 33.333 -1.5 66s-2.16699 76 -3.5 130c-0.666992 10.667 -1 23 -1 37v47c0 42.667 3.33301 73 10 91s19.667 27 39 27c52.667 0 98.667 -20.667 138 -62c47.333 -51.333 71 -122.666 71 -213.999zM442 116.997c-9.33301 -24 -25.001 -35.999 -47.001 -35.999
c-48 0 -94.667 24.667 -140 74c-44.667 49.333 -67 102.666 -67 159.999c0 52 17 112 51 180c42.667 84.667 94 127 154 127c3.33301 0 6.83301 0.166992 10.5 0.5s7.83398 0.833008 12.501 1.5c14.667 0 24 -22.333 28 -67z" />
    <glyph glyph-name="otilde" unicode="&#xf5;" horiz-adv-x="891" 
d="M847 66c0 18 -12.3389 29.9971 -37.0059 35.9971c-14.667 3.33301 -38.334 5 -71.001 5h-25c-12.667 0 -19.667 0.333008 -21 1c-12 6 -44 51.667 -96 137c-52 86 -78 134.667 -78 146c0 18 19 43.667 57 77c17.333 15.333 35 30.166 53 44.499l54 44.5
c4 4 7.33301 7 10 9c54 44.667 93.333 83.334 118 116.001c2.66699 2.66699 4 6.33398 4 11.001c0 8.66699 -5.83301 16.667 -17.5 24s-22.5 11 -32.5 11c-46.667 0 -91.667 -20.667 -135 -62c-9.33301 -9.33301 -21.666 -23.333 -36.999 -42s-33.666 -42.667 -54.999 -72
c-30 -40.667 -53 -61 -69 -61c-25.333 0 -47.666 20.667 -66.999 62l-54 114c-26.667 40.667 -62.334 61 -107.001 61c-53.333 0 -99.666 -4.66699 -138.999 -14c-38 -9.33301 -57 -20 -57 -32c0 -33.333 6.33301 -56.666 19 -69.999c10 -10.667 25 -16 45 -16
c1.33301 0 6.33301 0.5 15 1.5s21.334 2.83301 38.001 5.5c4.66699 0.666992 9.5 1.16699 14.5 1.5s10.167 0.5 15.5 0.5c14 0 25.333 -2.33301 34 -7c6 -3.33301 11 -7.33301 15 -12l28.5 -37c7.66699 -10 13.834 -18.333 18.501 -25
c45.333 -63.333 68 -107.666 68 -132.999c0 -48 -25.333 -96.333 -76 -145l-70.5 -57l-70.5 -56c-50.667 -40.667 -76 -74.667 -76 -102c0 -13.333 8 -22.333 24 -27c8 -2.66699 23 -4 45 -4c40 0 82 24.667 126 74c28 30.667 60 75.667 96 135c30 48.667 48.667 73 56 73
c26 0 53.333 -31.333 82 -94c45.333 -96.667 70.666 -149 75.999 -157c4 -6.66699 10.833 -12.167 20.5 -16.5s19.334 -7.83301 29.001 -10.5s18.334 -4.5 26.001 -5.5s11.834 -1.5 12.501 -1.5l59 3l34 -2c11.333 -0.666992 22 -1 32 -1c22 0 38.5 4.5 49.5 13.5
s16.5 27.5 16.5 55.5z" />
    <glyph glyph-name="odieresis" unicode="&#xf6;" horiz-adv-x="828" 
d="M761 422c0 8.66699 0.162109 15.6709 0.495117 21.0039s0.5 11.333 0.5 18c0 7.33301 0.166992 16.333 0.5 27s0.5 26 0.5 46c-0.666992 96.667 -22.667 153.667 -66 171c-11.333 4.66699 -36.333 10.334 -75 17.001c-13.333 3.33301 -26.333 6 -39 8
s-25.667 4.33301 -39 7c2.66699 -11.333 4.66699 -21.333 6 -30s2.83301 -16.834 4.5 -24.501s3.83398 -15.334 6.50098 -23.001s6.66699 -16.5 12 -26.5c24.667 -50.667 38.334 -88.334 41.001 -113.001c4.66699 -25.333 7.33398 -51.833 8.00098 -79.5s1 -58.5 1 -92.5
c0 -36.667 -4 -70 -12 -100s-21.333 -55.667 -40 -77s-43.834 -38 -75.501 -50s-70.834 -18 -117.501 -18c-45.333 4 -81.833 14.5 -109.5 31.5s-48.834 38 -63.501 63s-24.334 53 -29.001 84s-7 62.167 -7 93.5c0 32.667 2.33301 62.834 7 90.501s9.66699 55 15 82
s10.333 54.5 15 82.5s7 58.667 7 92c0 9.33301 -2 16 -6 20c-6 7.33301 -17.667 14.666 -35 21.999c-6 2.66699 -12.667 4 -20 4c-12.667 0 -24.167 -9.33301 -34.5 -28s-19.666 -42.167 -27.999 -70.5s-15.5 -59.666 -21.5 -93.999s-11.167 -67.166 -15.5 -98.499
s-7.5 -59.166 -9.5 -83.499s-3 -40.5 -3 -48.5c0 -96 25 -176 75 -240c32.667 -41.333 70.834 -69.833 114.501 -85.5s93.167 -23.5 148.5 -23.5c8.66699 0 20.334 1.66699 35.001 5s29.834 7 45.501 11s30.334 8 44.001 12s23.5 7 29.5 9c8 2 15.833 4.66699 23.5 8
s15.167 7 22.5 11c20 -7.33301 35.667 -16.5 47 -27.5s17 -20.5 17 -28.5c0 -4 -2 -7.33301 -6 -10c-6 -4.66699 -16.5 -10.334 -31.5 -17.001s-32.167 -13.667 -51.5 -21s-40 -14.5 -62 -21.5s-42.833 -13.333 -62.5 -19s-37.5 -10.334 -53.5 -14.001
s-27.667 -5.5 -35 -5.5c-36.667 0 -73.5 4.33301 -110.5 13s-70.5 19 -100.5 31c-16.667 0 -31.834 -4.83301 -45.501 -14.5s-20.5 -19.5 -20.5 -29.5c0 -23.333 36 -42 108 -56c6 -1.33301 16.167 -2.83301 30.5 -4.5s30 -3.33398 47 -5.00098l51.5 -5
c17.333 -1.66699 32 -3.16699 44 -4.5c14.667 0.666992 35.834 3.16699 63.501 7.5s58 10.666 91 18.999s66.833 18.333 101.5 30s66.167 25.167 94.5 40.5s51.5 32.333 69.5 51s27 38.667 27 60c0 8 -3.5 16.5 -10.5 25.5s-16.333 18.167 -28 27.5
s-24.834 18.666 -39.501 27.999s-29.667 18.333 -45 27c16.667 21.333 30.834 44.5 42.501 69.5s21.334 50.333 29.001 76s13.167 51.167 16.5 76.5s5 49 5 71z" />
    <glyph glyph-name="divide" unicode="&#xf7;" horiz-adv-x="636" 
d="M207 341c-10 6.66699 -18.0039 17.6631 -24.0039 32.9961s-10.5 32.166 -13.5 50.499s-5 37.5 -6 57.5s-1.5 38.333 -1.5 55c0 8 0.333008 17.833 1 29.5s2 23.834 4 36.501s4.83301 25.167 8.5 37.5s8.16699 23.5 13.5 33.5
c-2.66699 6.66699 -9.83398 12.5 -21.501 17.5s-24.667 9 -39 12s-28.666 5.16699 -42.999 6.5s-25.833 2 -34.5 2c-6 0 -10.5 -2.5 -13.5 -7.5s-5.16699 -11.5 -6.5 -19.5s-2.5 -17.167 -3.5 -27.5s-2.5 -20.833 -4.5 -31.5l-6.5 -40.5
c-1.66699 -10.333 -2.83398 -20.166 -3.50098 -29.499s-1.16699 -19.5 -1.5 -30.5s-0.5 -24.833 -0.5 -41.5c0 -32.667 7.66699 -66 23 -100s39 -63.333 71 -88c11.333 -9.33301 27.5 -18.333 48.5 -27s43.833 -16.667 68.5 -24s49.5 -13.166 74.5 -17.499
s47.5 -6.5 67.5 -6.5c9.33301 0 17.833 -1.16699 25.5 -3.5s13.834 -3.5 18.501 -3.5v-452c0 -15.333 10.333 -23 31 -23c2.66699 0 6.83398 0.166992 12.501 0.5s11.834 0.833008 18.501 1.5s13.5 1.16699 20.5 1.5s13.167 0.5 18.5 0.5h33
c10.667 0 20.667 -0.333008 30 -1c11.333 0 18 0.333008 20 1l-6 45.5l-6 45.5c-11.333 82.667 -19.333 156.667 -24 222c-4.66699 52 -8 100.667 -10 146s-3 87.333 -3 126v224c0 6 1.33301 14 4 24c6.66699 24.667 10 42.334 10 53.001c0 25.333 -9.33301 44.333 -28 57
c-12.667 8.66699 -24.167 15.167 -34.5 19.5s-22.166 6.5 -35.499 6.5s-24.166 -4.16699 -32.499 -12.5s-14.833 -18.333 -19.5 -30s-8 -23.834 -10 -36.501s-3 -23.667 -3 -33c0 -10.667 1 -25.167 3 -43.5s4.66699 -37.166 8 -56.499v-225l-58.5 18l-57 16.5l-45.5 13
c-12.667 3.66699 -21 6.83398 -25 9.50098z" />
    <glyph glyph-name="oslash" unicode="&#xf8;" horiz-adv-x="1277" 
d="M1235 419c0 35.333 -14.9951 88.9971 -44.9951 160.997c-37.333 90 -79 135 -125 135c-10.667 0 -36 -4 -76 -12l-39 -8l-38 -8c9.33301 -27.333 31 -56 65 -86c40.667 -36.667 67.667 -66.334 81 -89.001c26 -43.333 39 -99 39 -167
c0 -67.333 -21.667 -128.333 -65 -183c-46 -57.333 -101.333 -86 -166 -86c-52.667 0 -94.334 22 -125.001 66c-22 30.667 -33 58.334 -33 83.001c1.33301 68.667 2.66602 123.5 3.99902 164.5s2.5 73.167 3.5 96.5s2.16699 40.5 3.5 51.5s2.66602 20.5 3.99902 28.5
c4.66699 34 8.16699 63.5 10.5 88.5s3.5 45.167 3.5 60.5c-17.333 -1.33301 -32.5 -2.66602 -45.5 -3.99902s-23.833 -2.66602 -32.5 -3.99902c-54 -7.33301 -84 -14 -90 -20c-2.66699 -2.66699 -4 -10.334 -4 -23.001c0 -0.666992 9 -69.334 27 -206.001
c8 -61.333 12 -113.666 12 -156.999c0 -62 -7.33301 -108.667 -22 -140c-18 -38.667 -47 -58 -87 -58c-85.333 0 -153.333 22.333 -204 67c-56 48.667 -84 119.334 -84 212.001c0 66 16.333 118.333 49 157c18 20.667 47.667 42.667 89 66c32 16.667 48 32 48 46
c0 10.667 -4 24 -12 40s-18 24 -30 24c-22 0 -57.333 -16.667 -106 -50c-54 -38 -99.333 -82.333 -136 -133c-44.667 -61.333 -67 -123.666 -67 -186.999c0 -96 25 -176 75 -240c56 -72 134 -108 234 -108c19.333 0 39.666 2.16699 60.999 6.5s42.833 10.5 64.5 18.5
s43.167 17.333 64.5 28s41.333 22.667 60 36c12 0 37.667 -15.667 77 -47c38.667 -30.667 96.667 -46 174 -46c87.333 0 171.666 42 252.999 126c86.667 88.667 130 188.667 130 300z" />
    <glyph glyph-name="ugrave" unicode="&#xf9;" horiz-adv-x="1282" 
d="M1241 382c0 42.667 -11.998 101.662 -35.998 176.995c-30 94 -65.333 141 -106 141c-38 0 -76.333 -4.33301 -115 -13c-40.667 -9.33301 -67 -18.666 -79 -27.999l117 -108c46.667 -50.667 70 -118.667 70 -204c0 -75.333 -21 -139 -63 -191
c-41.333 -52 -90.666 -78 -147.999 -78c-54.667 0 -95 14.667 -121 44c-23.333 26 -38.333 67.333 -45 124c-4 32 -6 94.667 -6 188c0 6.66699 1.5 20.667 4.5 42l12.5 89l12 81.5c2.66699 19 4 30.833 4 35.5v2l-45.5 2c-15.667 0.666992 -32.167 1 -49.5 1
c-30.667 0 -55 -2.66699 -73 -8s-27 -14.666 -27 -27.999l16.5 -73l16.5 -72c10 -78 15 -183 15 -315c0 -28.667 -20.333 -51.334 -61 -68.001c-30 -12.667 -61 -19 -93 -19c-70.667 0 -131.334 24 -182.001 72c-51.333 48 -77 105 -77 171c0 46 24.333 97.333 73 154
c46 54 97 95.333 153 124l-33 68c-4 7.33301 -10.333 11 -19 11c-69.333 0 -140.666 -43.667 -213.999 -131c-72.667 -86.667 -109 -170.667 -109 -252c0 -95.333 34.667 -174.666 104 -237.999c61.333 -55.333 129.666 -83 204.999 -83c40 0 81.333 7.83301 124 23.5
s86.334 33.167 131.001 52.5l22 10c26 0 53.667 -11 83 -33c37.333 -28 65.666 -45.667 84.999 -53c10 -3.33301 21.333 -5 34 -5c13.333 0 35 3 65 9l65.5 12.5c15.667 3 25.167 4.5 28.5 4.5c12.667 0 19 -3.66699 19 -11c0 -8 -6.83301 -17.167 -20.5 -27.5
s-29.834 -20.5 -48.501 -30.5s-37.834 -19.5 -57.501 -28.5l-47.5 -21.5c-15.333 -6.66699 -33.333 -12.167 -54 -16.5s-41 -7.66602 -61 -9.99902s-38.167 -4 -54.5 -5s-27.5 -1.5 -33.5 -1.5c-36.667 0 -73.5 4.33301 -110.5 13s-70.5 19 -100.5 31
c-16.667 0 -31.834 -4.83301 -45.501 -14.5s-20.5 -19.5 -20.5 -29.5c0 -23.333 36 -42 108 -56c6 -1.33301 16 -2.66602 30 -3.99902s29.333 -2.66602 46 -3.99902s33.334 -2.5 50.001 -3.5s31 -1.5 43 -1.5c127.333 0 233 21 317 63s148.667 98 194 168
c72 108.667 108 225.667 108 351z" />
    <glyph glyph-name="uacute" unicode="&#xfa;" horiz-adv-x="818" 
d="M801 211c0 64 -34.6641 116.672 -103.997 158.005c-55.333 32.667 -111.333 49 -168 49l-63 -16l117 -69c36.667 -22.667 55 -70.334 55 -143.001c0 -34.667 -15 -62.334 -45 -83.001c-36.667 -25.333 -75.667 -38 -117 -38c-32 0 -55 8.66699 -69 26
c-10.667 12.667 -16 30.667 -16 54c0 9.33301 0.666992 18 2 26s2.66602 14.667 3.99902 20l21 373c0 15.333 -4 29.166 -12 41.499s-17.5 23.166 -28.5 32.499s-22.667 17.333 -35 24s-22.833 12 -31.5 16c-19.333 8.66699 -44 16.334 -74 23.001s-66 10 -108 10
c-20 0 -42.333 -7.33301 -67 -22c-24.667 -14 -37 -26.667 -37 -38c0 -33.333 28.333 -51.333 85 -54c56 -2.66699 91.667 -9.66699 107 -21h15l10 -57c3.33301 -19.333 6.16602 -37.833 8.49902 -55.5s4.33301 -33.834 6 -48.501s2.5 -26 2.5 -34
c0 -6.66699 -0.333008 -17.5 -1 -32.5s-1.5 -32.5 -2.5 -52.5s-2.16699 -41.333 -3.5 -64s-2.5 -44.834 -3.5 -66.501s-1.83301 -41.667 -2.5 -60s-1 -32.833 -1 -43.5c0 -25.333 9.33301 -44.333 28 -57c25.333 -17.333 66.666 -26 123.999 -26
c148.667 0 254.667 20.333 318 61c57.333 36 86 91.667 86 167z" />
    <glyph glyph-name="ucircumflex" unicode="&#xfb;" horiz-adv-x="953" 
d="M633 211c0 64 -34.6641 116.672 -103.997 158.005c-55.333 32.667 -111.333 49 -168 49l-63 -16l117 -69c36.667 -22.667 55 -70.334 55 -143.001c0 -34.667 -15 -62.334 -45 -83.001c-36.667 -25.333 -75.667 -38 -117 -38c-32 0 -55 8.66699 -69 26
c-10.667 12.667 -16 30.667 -16 54c0 9.33301 0.666992 18 2 26s2.66602 14.667 3.99902 20v492c0 19.333 -11.333 29 -34 29c-2.66699 0 -6.83398 -0.166992 -12.501 -0.5s-11.834 -0.833008 -18.501 -1.5s-13.5 -1.16699 -20.5 -1.5s-13.167 -0.5 -18.5 -0.5h-33
c-10.667 0 -20.667 0.333008 -30 1c-5.33301 0 -9.16602 -3.16699 -11.499 -9.5s-3.5 -10.5 -3.5 -12.5c0 -4 1.16699 -12.833 3.5 -26.5s5 -30.334 8 -50.001s6.5 -40.834 10.5 -63.501s7.5 -44.667 10.5 -66l8 -59c2.33301 -18 3.5 -31.667 3.5 -41
c0 -6.66699 -0.333008 -17.5 -1 -32.5s-1.5 -32.5 -2.5 -52.5s-2.16699 -41.333 -3.5 -64s-2.5 -44.834 -3.5 -66.501s-1.83301 -41.667 -2.5 -60s-1 -32.833 -1 -43.5c0 -25.333 9.33301 -44.333 28 -57c25.333 -17.333 66.666 -26 123.999 -26
c148.667 0 254.667 20.333 318 61c57.333 36 86 91.667 86 167zM902.003 82.0049c-0.666992 16.667 -1.33008 35.666 -1.99707 56.999s-1.66699 45 -3 71c-0.666992 22.667 -1.33398 42 -2.00098 58s-1.33398 31 -2.00098 45l-2 42
c-0.666992 14 -1.33398 30.667 -2.00098 50c0 3.33301 0.5 16.666 1.5 39.999s2.83301 56.333 5.5 99c0.666992 24.667 2.66699 61.667 6 111c0 15.333 -3.33301 27.333 -10 36c-9.33301 13.333 -25.333 20 -48 20c-44 0 -79.167 -5.33301 -105.5 -16
s-39.5 -27.334 -39.5 -50.001c2 -9.33301 3.66699 -18 5 -26s2.33301 -15.333 3 -22c2.66699 -19.333 4.66699 -37.666 6 -54.999s2 -33.666 2 -48.999c0 -99.333 -1.5 -182.666 -4.5 -249.999s-6.83301 -121 -11.5 -161c0 -24 13.333 -45.333 40 -64s54.667 -28 84 -28
c52.667 0 79 30.667 79 92z" />
    <glyph glyph-name="udieresis" unicode="&#xfc;" horiz-adv-x="643" 
d="M631 211c0 64 -34.6641 116.672 -103.997 158.005c-55.333 32.667 -111.333 49 -168 49l-63 -16l117 -69c36.667 -22.667 55 -70.334 55 -143.001c0 -34.667 -15 -62.334 -45 -83.001c-36.667 -25.333 -75.667 -38 -117 -38c-32 0 -55 8.66699 -69 26
c-10.667 12.667 -16 30.667 -16 54c0 9.33301 0.666992 18 2 26s2.66602 14.667 3.99902 20v492c0 19.333 -11.333 29 -34 29c-2.66699 0 -6.83398 -0.166992 -12.501 -0.5s-11.834 -0.833008 -18.501 -1.5s-13.5 -1.16699 -20.5 -1.5s-13.167 -0.5 -18.5 -0.5h-33
c-10.667 0 -20.667 0.333008 -30 1c-5.33301 0 -9.16602 -3.16699 -11.499 -9.5s-3.5 -10.5 -3.5 -12.5c0 -4 1.16699 -12.833 3.5 -26.5s5 -30.334 8 -50.001s6.5 -40.834 10.5 -63.501s7.5 -44.667 10.5 -66l8 -59c2.33301 -18 3.5 -31.667 3.5 -41
c0 -6.66699 -0.333008 -17.5 -1 -32.5s-1.5 -32.5 -2.5 -52.5s-2.16699 -41.333 -3.5 -64s-2.5 -44.834 -3.5 -66.501s-1.83301 -41.667 -2.5 -60s-1 -32.833 -1 -43.5c0 -25.333 9.33301 -44.333 28 -57c25.333 -17.333 66.666 -26 123.999 -26
c148.667 0 254.667 20.333 318 61c57.333 36 86 91.667 86 167z" />
    <glyph glyph-name="yacute" unicode="&#xfd;" horiz-adv-x="831" 
d="M31 201c0 -43.333 31.998 -86.332 95.998 -128.999c72 -48 156.333 -72 253 -72c97.333 0 180.333 23.333 249 70c54 36.667 96.333 83.334 127 140.001c15.333 28.667 25.5 54.167 30.5 76.5s7.5 46.166 7.5 71.499c0 51.333 -7 98 -21 140
c-21.333 63.333 -57 112.666 -107 147.999c-65.333 46 -151.666 69 -258.999 69c-59.333 0 -120 -10.333 -182 -31c-86 -28 -136.333 -66.333 -151 -115c-1.33301 -6.66699 -2 -10.667 -2 -12c0 -14.667 10.667 -24.667 32 -30c10 -2.66699 25 -4 45 -4
c34 0 65.333 12.333 94 37c62.667 54 108.334 81 137.001 81c51.333 0 100.666 -16.333 147.999 -49c56 -38 84 -83.667 84 -137c0 -20.667 -8.16699 -35 -24.5 -43s-38.5 -12 -66.5 -12c-46 6 -92.667 11.167 -140 15.5s-89.333 6.5 -126 6.5
c-17.333 0 -29.5 -3.83301 -36.5 -11.5s-10.5 -20.167 -10.5 -37.5s5 -29 15 -35s23 -9 39 -9c6.66699 0 13.167 0.5 19.5 1.5l15.5 2.5c18.667 0 38.834 0.5 60.501 1.5s44.834 2.16699 69.501 3.5s47.5 2.5 68.5 3.5s40.167 1.5 57.5 1.5c6 0 12 -1.33301 18 -4
s11.667 -6 17 -10s9.66602 -8.66699 12.999 -14s5 -10.333 5 -15c0 -70.667 -33 -126 -99 -166c-52.667 -31.333 -108 -47 -166 -47c-42.667 0 -81.334 23 -116.001 69c-35.333 46 -80.666 69 -135.999 69c-4 0.666992 -7.66699 1 -11 1h-10
c-11.333 0 -20.333 -1.66699 -27 -5s-10 -10 -10 -20z" />
    <glyph glyph-name="thorn" unicode="&#xfe;" horiz-adv-x="1182" 
d="M253 92c-0.666992 16.667 -1.33301 35.665 -2 56.998s-1.66699 45 -3 71c-0.666992 12 -1.16699 22.833 -1.5 32.5s-0.5 18.834 -0.5 27.501c9.33301 -1.33301 18.833 -2.83301 28.5 -4.5s18.834 -4.16699 27.501 -7.5c3.33301 -1.33301 6.5 -2.5 9.5 -3.5
s6.16699 -2.16699 9.5 -3.5c1.33301 -8 3.16602 -15.833 5.49902 -23.5s4.83301 -15.167 7.5 -22.5c20.667 -59.333 57.667 -107.666 111 -144.999c67.333 -46.667 158.333 -70 273 -70c132 0 234.667 30.667 308 92c52.667 44 87.667 101.667 105 173
c7.33301 31.333 11 64.666 11 99.999c0 102 -43.667 187.667 -131 257c-83.333 66 -182 99 -296 99c-112.667 0 -207.667 -33.667 -285 -101c-72.667 -64 -111 -143.667 -115 -239l-48 -2c-8 0 -14.5 2.5 -19.5 7.5s-7.5 14.5 -7.5 28.5c0 3.33301 0.5 16.666 1.5 39.999
s2.83301 56.333 5.5 99c0.666992 24.667 2.66699 61.667 6 111c0 15.333 -3.33301 27.333 -10 36c-9.33301 13.333 -25.333 20 -48 20c-44 0 -79.167 -5.33301 -105.5 -16s-39.5 -27.334 -39.5 -50.001c2 -9.33301 3.66699 -18 5 -26s2.33301 -15.333 3 -22
c2.66699 -19.333 4.66699 -37.666 6 -54.999s2 -33.666 2 -48.999c0 -99.333 -1.5 -182.666 -4.5 -249.999s-6.83301 -121 -11.5 -161c0 -24 13.333 -45.333 40 -64s54.667 -28 84 -28c52.667 0 79 30.667 79 92zM953.001 331.998c0 -51.333 -14.665 -99.667 -43.998 -145
c-42 -65.333 -106.667 -98 -194 -98c-72.667 0 -130.334 33 -173.001 99c-32 48.667 -48 96.667 -48 144c0 89.333 19.333 159.333 58 210c42.667 56.667 97 85 163 85c55.333 0 103.666 -16.667 144.999 -50c62 -50 93 -131.667 93 -245z" />
    <glyph glyph-name="ydieresis" unicode="&#xff;" 
d="M311 277l21.9961 4c-2 -15.333 -7.83301 -29 -17.5 -41s-25.167 -28 -46.5 -48l-71 -57l-70 -56c-50.667 -40.667 -76 -74.667 -76 -102c0 -13.333 8 -22.333 24 -27c8 -2.66699 23 -4 45 -4c40 0 82 24.667 126 74c28 30.667 60 75.667 96 135
c5.33301 8.66699 12.333 19 21 31l27 36.5l27.5 35c9 11 17.167 20.5 24.5 28.5v-261c0 -19.333 11.333 -29 34 -29c2.66699 0 6.83398 0.166992 12.501 0.5s11.834 0.833008 18.501 1.5s13.5 1.16699 20.5 1.5s13.167 0.5 18.5 0.5h33c10.667 0 20.667 -0.333008 30 -1
c11.333 0 18 0.333008 20 1c-3.33301 26.667 -7 49.834 -11 69.501l-11 53.5c-3.33301 16 -6.66602 31.167 -9.99902 45.5s-6.33301 29.166 -9 44.499s-4.66699 32.166 -6 50.499s-2 39.833 -2 64.5v224c0 6 1.33301 14 4 24c6.66699 24.667 10 42.334 10 53.001
c0 25.333 -9.33301 44.333 -28 57c-25.333 17.333 -66.666 26 -123.999 26c-148.667 0 -254.667 -20.333 -318 -61c-57.333 -36 -86 -91.667 -86 -167c0 -64 34.667 -116.667 104 -158c55.333 -32.667 111.333 -49 168 -49zM442.996 500v-189.001l-37 -8
c-24 6 -44.333 12 -61 18s-30.834 11.5 -42.501 16.5s-21 9.5 -28 13.5s-12.833 7.66699 -17.5 11c-36.667 22.667 -55 70.334 -55 143.001c0 34 15 61.667 45 83c36.667 25.333 75.667 38 117 38c32 0 55 -8.66699 69 -26c10.667 -12.667 16 -30.667 16 -54
c0 -9.33301 -0.666992 -18 -2 -26s-2.66602 -14.667 -3.99902 -20z" />
    <glyph glyph-name="afii10023" unicode="&#x401;" horiz-adv-x="815" 
d="M791 201c0 10 -3.33301 16.666 -10 19.999s-15.667 5 -27 5h-10c-3.33301 0 -7 -0.333008 -11 -1c-56 0 -101.333 -23 -136 -69c-35.333 -46 -74 -69 -116 -69c-58 0 -113.333 15.667 -166 47c-66 40 -99 95.333 -99 166c0 4.66699 1.66699 9.66699 5 15
s7.66602 10 12.999 14s11 7.33301 17 10s12 4 18 4c17.333 0 36.5 -0.5 57.5 -1.5s43.833 -2.16699 68.5 -3.5s47.834 -2.5 69.501 -3.5s41.834 -1.5 60.501 -1.5l15.5 -2.5c6.33301 -1 12.833 -1.5 19.5 -1.5c16 0 29 3 39 9s15 17.667 15 35s-3.5 29.833 -10.5 37.5
s-19.167 11.5 -36.5 11.5c-36.667 0 -78.667 -2.16699 -126 -6.5s-94 -9.5 -140 -15.5c-28 0 -50.167 4 -66.5 12s-24.5 22.333 -24.5 43c0 53.333 28 99 84 137c47.333 32.667 96.666 49 147.999 49c28 0 73.667 -27 137 -81c28.667 -24.667 60 -37 94 -37
c20 0 35 1.33301 45 4c21.333 5.33301 32 15.333 32 30c0 1.33301 -0.666992 5.33301 -2 12c-14.667 48.667 -65 87 -151 115c-62 20.667 -122.667 31 -182 31c-108 0 -194.333 -23 -259 -69c-50 -35.333 -85.667 -84.666 -107 -147.999c-14 -42 -21 -88.667 -21 -140
c0 -25.333 2.5 -49.166 7.5 -71.499s15.167 -47.833 30.5 -76.5c30.667 -56.667 73 -103.334 127 -140.001c68.667 -46.667 151.667 -70 249 -70c96.667 0 181 24 253 72c64 42.667 96 85.667 96 129zM636 862.999c0 16.667 -6.16699 30.5 -18.5 41.5
s-26.833 16.5 -43.5 16.5s-30.5 -5.83301 -41.5 -17.5s-16.5 -26.167 -16.5 -43.5c0 -16 6.16699 -29.833 18.5 -41.5s26.833 -17.5 43.5 -17.5s30.5 6.16699 41.5 18.5s16.5 26.833 16.5 43.5zM358 862.999c0 16.667 -6.16699 30.5 -18.5 41.5s-26.833 16.5 -43.5 16.5
s-30.5 -5.83301 -41.5 -17.5s-16.5 -26.167 -16.5 -43.5c0 -16 6.16699 -29.833 18.5 -41.5s26.833 -17.5 43.5 -17.5s30.5 6.16699 41.5 18.5s16.5 26.833 16.5 43.5z" />
    <glyph glyph-name="afii10054" unicode="&#x405;" horiz-adv-x="734" 
d="M672 115c0 60 -37.333 111 -112 153l-104 48l-104 49c-74 40.667 -111 91 -111 151c0 58 13 99.667 39 125c22.667 21.333 54.667 32 96 32c36.667 0 89 -10.667 157 -32s108.667 -32 122 -32c32.667 0 49 19.333 49 58c0 21.333 -44 39 -132 53
c-44 6.66699 -88.333 11.667 -133 15s-90 5 -136 5c-74 0 -139.333 -24.333 -196 -73c-57.333 -49.333 -86 -105.666 -86 -168.999c0 -64.667 42 -121.334 126 -170.001l116 -53l117 -54c83.333 -38 125 -79 125 -123s-10.5 -78.667 -31.5 -104s-52.833 -38 -95.5 -38h-22
c-44.667 0 -75 -5.5 -91 -16.5s-24 -27.167 -24 -48.5c0 -14 8.66699 -26 26 -36c14 -8 29 -12 45 -12c11.333 0 42.666 7.66699 93.999 23c70.667 22 128.334 49.667 173.001 83c62 46.667 93 102 93 166z" />
    <glyph glyph-name="FL0406h" unicode="&#x406;" horiz-adv-x="298" 
d="M246 87c-0.666992 16.667 -1.33008 35.666 -1.99707 56.999s-1.66699 45 -3 71c-0.666992 22.667 -1.33398 42 -2.00098 58s-1.33398 31 -2.00098 45l-2 42c-0.666992 14 -1.33398 30.667 -2.00098 50c0 3.33301 0.5 16.666 1.5 39.999s2.83301 56.333 5.5 99
c0.666992 24.667 2.66699 61.667 6 111c0 15.333 -3.33301 27.333 -10 36c-9.33301 13.333 -25.333 20 -48 20c-44 0 -79.167 -5.33301 -105.5 -16s-39.5 -27.334 -39.5 -50.001c2 -9.33301 3.66699 -18 5 -26s2.33301 -15.333 3 -22
c2.66699 -19.333 4.66699 -37.666 6 -54.999s2 -33.666 2 -48.999c0 -99.333 -1.5 -182.666 -4.5 -249.999s-6.83301 -121 -11.5 -161c0 -24 13.333 -45.333 40 -64s54.667 -28 84 -28c52.667 0 79 30.667 79 92z" />
    <glyph glyph-name="afii10057" unicode="&#x408;" horiz-adv-x="524" 
d="M4 -107l55 -26.9971c12 -11.333 23.167 -20.333 33.5 -27s20.5 -10.334 30.5 -11.001h1c7.33301 0 21 2.5 41 7.5s42.833 11.833 68.5 20.5s52.667 18.5 81 29.5s54.166 22.5 77.499 34.5s42.666 23.833 57.999 35.5s23 22.5 23 32.5c0 2 -0.666992 4.33301 -2 7v43
c0 19.333 -0.166992 40.5 -0.5 63.5l-1 71.5c-0.333008 24.667 -0.833008 47.667 -1.5 69v19c0 7.33301 -0.333008 15.333 -1 24c0 88.667 2 177.667 6 267c0 7.33301 0.166992 21.666 0.5 42.999s0.833008 44.5 1.5 69.5l2 72c0.666992 23 1.33398 39.5 2.00098 49.5
c0 10 -1.16699 18.5 -3.5 25.5s-6.83301 12.667 -13.5 17s-16 7.66602 -28 9.99902s-27.667 3.5 -47 3.5c-20 0 -36 -1 -48 -3s-21.5 -5.16699 -28.5 -9.5s-11.667 -10.166 -14 -17.499s-3.5 -16.333 -3.5 -27v-123c0 -36 0.5 -71.5 1.5 -106.5s2.16699 -72 3.5 -111
s3.66602 -84.5 6.99902 -136.5v-148c0.666992 -5.33301 1 -11 1 -17v-19c0 -18 -0.833008 -37.333 -2.5 -58s-4.83398 -40.334 -9.50098 -59.001s-11 -35.5 -19 -50.5s-18.333 -26.167 -31 -33.5c-1.33301 -0.666992 -4.66602 -1 -9.99902 -1c-6.66699 0 -15 0.666992 -25 2
s-20.167 3 -30.5 5s-19.666 4.16699 -27.999 6.5s-14.166 4.5 -17.499 6.5c-13.333 8 -24.333 12 -33 12c-8 0 -14.333 -1.66699 -19 -5l-53 -36.5c-12.667 -9 -20.667 -15.5 -24 -19.5z" />
    <glyph glyph-name="afii10017" unicode="&#x410;" horiz-adv-x="860" 
d="M844 46c0 28 -5.66895 45.666 -17.002 52.999c-6 4 -20 6 -42 6c-24 0 -42.333 3 -55 9c-21.333 9.33301 -40 28.333 -56 57l-91.5 203.5l-87.5 203.5c-23.333 54.667 -50.666 90.334 -81.999 107.001c-37.333 20 -97.666 30 -180.999 30c-20 0 -42.333 -7.33301 -67 -22
c-24.667 -14 -37 -26.667 -37 -38c0 -33.333 28.333 -51.333 85 -54c56 -2.66699 91.667 -9.66699 107 -21c20.667 -16.667 44 -52 70 -106c23.333 -50 35 -82 35 -96c0 -12 -6 -23.5 -18 -34.5s-27.333 -21.833 -46 -32.5s-39.5 -21 -62.5 -31l-66.5 -28.5
c-21.333 -9 -40.666 -17.667 -57.999 -26s-30 -15.833 -38 -22.5c-67.333 -34 -101 -59.667 -101 -77c0 -36 33.667 -68 101 -96c54 -22.667 102.667 -34 146 -34c34 0 72.667 10 116 30l61.5 28.5l69.5 33.5c25.333 0 41.666 -10 48.999 -30c14 -41.333 61.333 -62 142 -62
c44 0 75.667 3.5 95 10.5s29 20.167 29 39.5zM523.998 170.999c-15.333 -12 -42.334 -26 -81.001 -42c-39.333 -16 -69 -24 -89 -24c-4.66699 0 -20.667 7.66699 -48 23c-25.333 14.667 -38.666 24.667 -39.999 30c0 17.333 20.333 41 61 71c44 32 84 48 120 48
c32.667 0 54.667 -9.66699 66 -29c7.33301 -13.333 11 -39 11 -77z" />
    <glyph glyph-name="afii10018" unicode="&#x411;" 
d="M587 615c0 15.333 -0.828125 28.8369 -2.49512 40.5039s-5.83398 20.5 -12.501 26.5c-8.66699 8 -20.334 14.333 -35.001 19s-30.834 8.33398 -48.501 11.001s-36.334 4.5 -56.001 5.5s-38.834 1.5 -57.501 1.5c-21.333 0 -41.5 -0.333008 -60.5 -1s-35.167 -1 -48.5 -1
c-23.333 0 -42.666 -0.333008 -57.999 -1s-28.333 -1.16699 -39 -1.5s-19.5 -0.833008 -26.5 -1.5s-13.833 -1 -20.5 -1h-33c-10.667 0 -20.667 0.333008 -30 1c-5.33301 0 -9.16602 -3.16699 -11.499 -9.5s-3.5 -10.5 -3.5 -12.5c0 -4 1.16699 -12.833 3.5 -26.5
s5 -30.334 8 -50.001s6.5 -40.834 10.5 -63.501s7.5 -44.667 10.5 -66l8 -59c2.33301 -18 3.5 -31.667 3.5 -41c0 -6.66699 -0.333008 -17.5 -1 -32.5s-1.5 -32.5 -2.5 -52.5s-2.16699 -41.333 -3.5 -64s-2.5 -44.834 -3.5 -66.501s-1.83301 -41.667 -2.5 -60
s-1 -32.833 -1 -43.5c0 -25.333 9.33301 -44.333 28 -57c25.333 -17.333 66.666 -26 123.999 -26c148.667 0 254.667 20.333 318 61c57.333 36 86 91.667 86 167c0 64 -34.667 116.667 -104 158c-55.333 32.667 -111.333 49 -168 49l-63 -16l117 -69
c36.667 -22.667 55 -70.334 55 -143.001c0 -34.667 -15 -62.334 -45 -83.001c-36.667 -25.333 -75.667 -38 -117 -38c-32 0 -55 8.66699 -69 26c-10.667 12.667 -16 30.667 -16 54c0 9.33301 0.666992 18 2 26s2.66602 14.667 3.99902 20v441l68 -9
c6.66699 0.666992 13.5 1.16699 20.5 1.5s14.833 0.5 23.5 0.5c30 0 54 -6 72 -18l10 -15c4 -6 7.66699 -12 11 -18l9 -16l4 -7c2.66699 -22.667 12.667 -34 30 -34h54c11.333 0 20.5 0.166992 27.5 0.5s12.167 1.5 15.5 3.5c5.33301 2.66699 9.33301 6.16699 12 10.5
s4 10.5 4 18.5v61z" />
    <glyph glyph-name="afii10019" unicode="&#x412;" horiz-adv-x="685" 
d="M637 259c-4.66699 20 -14 36.999 -28 50.999c-13.333 13.333 -43.333 31 -90 53c-21.333 10 -32 19.667 -32 29c0 5.33301 24.667 37.333 74 96c12.667 14.667 22 30.334 28 47.001s9 33.334 9 50.001c0 35.333 -12 65.666 -36 90.999c-26 26.667 -61 40 -105 40h-299
c-50 0 -80.333 -3.66699 -91 -11c-10 -7.33301 -15 -31.333 -15 -72v-586c0 -22 4 -35.333 12 -40c7.33301 -4.66699 30.666 -7 69.999 -7h314c10 -0 19.5 0.333008 28.5 1s19 3.16699 30 7.5s23.667 11 38 20s31.5 21.833 51.5 38.5c17.333 14 30 31.333 38 52
s12 43.667 12 69c0 10.667 -0.666992 22.167 -2 34.5s-3.66602 24.5 -6.99902 36.5zM448 192.999c0 -46 -22.333 -77.332 -67 -93.999c-27.333 -10.667 -70 -16 -128 -16h-36v232c74 0 125.667 -5 155 -15c50.667 -16.667 76 -52.334 76 -107.001zM420 529
c-5.33301 -32.667 -17 -56.666 -35 -71.999c-32.667 -27.333 -88.667 -41 -168 -41v217c1.33301 0 3.33301 0.166992 6 0.5s5.66699 0.833008 9 1.5h23c48.667 0 88.5 -7.83301 119.5 -23.5s46.5 -38.834 46.5 -69.501c0 -6.66699 -0.333008 -11 -1 -13z" />
    <glyph glyph-name="afii10020" unicode="&#x413;" horiz-adv-x="608" 
d="M597 588l0.000976562 10.998c0 4.66699 0.333008 10 1 16c0 15.333 -0.833008 28.833 -2.5 40.5s-5.83398 20.5 -12.501 26.5c-9.33301 8 -21.5 14.333 -36.5 19s-31.167 8 -48.5 10s-35 3.16699 -53 3.5s-35 0.5 -51 0.5c-29.333 0 -58 -0.333008 -86 -1
s-55 -1.66699 -81 -3c-112 -7.33301 -168 -24.333 -168 -51c0 -40.667 1 -103.334 3 -188.001v-19c0 -7.33301 0.333008 -15.333 1 -24c0 -89.333 -2 -178.333 -6 -267c-1.33301 -30 -3.33301 -65.333 -6 -106c0 -10 1.16699 -18.5 3.5 -25.5s6.83301 -12.667 13.5 -17
s16 -7.66602 28 -9.99902s27.667 -3.5 47 -3.5c20 0 36 1 48 3s21.5 5.16699 28.5 9.5s11.667 10.166 14 17.499s3.5 16.333 3.5 27c0 4.66699 -0.333008 13.834 -1 27.501s-1 24.834 -1 33.501c0 36 -0.833008 77.833 -2.5 125.5s-4.16699 101.834 -7.5 162.501
c-1.33301 24 -2.33301 44.667 -3 62s-1 31.666 -1 42.999c0 50 7.66699 82 23 96c15.333 14.667 50.333 22 105 22c62.667 0 98 -24.667 106 -74c2.66699 -22.667 12.667 -34 30 -34c54.667 0 87 1.33301 97 4c10.667 2.66699 16 12.334 16 29.001
c-0.666992 4.66699 -1 9.66699 -1 15v19z" />
    <glyph glyph-name="afii10021" unicode="&#x414;" horiz-adv-x="1070" 
d="M1049 76c0 14.667 -1.83105 24.998 -5.49805 30.998s-8.5 9 -14.5 9c-5.33301 0 -21 -5.66699 -47 -17s-46.667 -17 -62 -17c-20.667 0 -39.334 7 -56.001 21c-20.667 17.333 -38.334 45.333 -53.001 84c-9.33301 23.333 -23.833 63 -43.5 119l-75.5 221
c-26.667 80.667 -53.334 131.667 -80.001 153c-28.667 23.333 -82.334 35 -161.001 35c-36 0 -66.333 -5 -91 -15c-34.667 -14 -52 -37.667 -52 -71c0 -22 32.333 -34.333 97 -37c65.333 -3.33301 98 -20.666 98 -51.999c0 -10 -2 -21.333 -6 -34
c-6.66699 -20 -15.334 -40.667 -26.001 -62l-74 -143l-71 -143c-21.333 -41.333 -42.666 -62 -63.999 -62c-12 0 -32.667 18.667 -62 56s-59 56 -89 56c-25.333 0 -46 -7.33301 -62 -22s-24 -37 -24 -67c0 -45.333 23 -77.333 69 -96c36.667 -15.333 86.334 -23 149.001 -23
h185c78.667 0 141.5 5.66699 188.5 17s79.833 24.333 98.5 39c16 0 38.667 -12 68 -36c28.667 -24 64.334 -36 107.001 -36c64.667 0 112 19 142 57c11.333 14.667 17 26.334 17 35.001zM677.002 164.998c0 -26 -11.668 -46.668 -35.001 -62.001
c-29.333 -18 -77.666 -27 -144.999 -27c-79.333 0 -119 14.333 -119 43l28.5 57.5l33 64.5l32 60.5l25.5 45.5c30.667 52.667 51.667 79 63 79c14.667 0 38.667 -43.667 72 -131l19.5 -54c7.66699 -21.333 16.167 -46.666 25.5 -75.999z" />
    <glyph glyph-name="afii10022" unicode="&#x415;" horiz-adv-x="831" 
d="M800 201c0 10 -3.33301 16.666 -10 19.999s-15.667 5 -27 5h-10c-3.33301 0 -7 -0.333008 -11 -1c-56 0 -101.333 -23 -136 -69c-35.333 -46 -74 -69 -116 -69c-58 0 -113.333 15.667 -166 47c-66 40 -99 95.333 -99 166c0 4.66699 1.66699 9.66699 5 15
s7.66602 10 12.999 14s11 7.33301 17 10s12 4 18 4c17.333 0 36.5 -0.5 57.5 -1.5s43.833 -2.16699 68.5 -3.5s47.834 -2.5 69.501 -3.5s41.834 -1.5 60.501 -1.5l15.5 -2.5c6.33301 -1 12.833 -1.5 19.5 -1.5c16 0 29 3 39 9s15 17.667 15 35s-3.5 29.833 -10.5 37.5
s-19.167 11.5 -36.5 11.5c-36.667 0 -78.667 -2.16699 -126 -6.5s-94 -9.5 -140 -15.5c-28 0 -50.167 4 -66.5 12s-24.5 22.333 -24.5 43c0 53.333 28 99 84 137c47.333 32.667 96.666 49 147.999 49c28 0 73.667 -27 137 -81c28.667 -24.667 60 -37 94 -37
c20 0 35 1.33301 45 4c21.333 5.33301 32 15.333 32 30c0 1.33301 -0.666992 5.33301 -2 12c-14.667 48.667 -65 87 -151 115c-62 20.667 -122.667 31 -182 31c-108 0 -194.333 -23 -259 -69c-50 -35.333 -85.667 -84.666 -107 -147.999c-14 -42 -21 -88.667 -21 -140
c0 -25.333 2.5 -49.166 7.5 -71.499s15.167 -47.833 30.5 -76.5c30.667 -56.667 73 -103.334 127 -140.001c68.667 -46.667 151.667 -70 249 -70c96.667 0 181 24 253 72c64 42.667 96 85.667 96 129z" />
    <glyph glyph-name="afii10024" unicode="&#x416;" horiz-adv-x="1301" 
d="M1260 95c-3.33301 22.667 -33.6631 34.002 -90.9961 34.002s-98.666 16.667 -123.999 50c-45.333 60 -82.333 107 -111 141l-31.5 34.5l-33.5 34.5c0 20 23.333 51 70 93l62 56l63 55c45.333 41.333 68 70.666 68 87.999c0 28.667 -14.333 43 -43 43
c-65.333 0 -121 -29 -167 -87c-20.667 -26 -50.334 -80 -89.001 -162c-27.333 -57.333 -51 -86 -71 -86c-13.333 0 -22.833 3.66699 -28.5 11s-8.5 17.333 -8.5 30c1.33301 20.667 2.83301 39.167 4.5 55.5s3.83398 31.5 6.50098 45.5
c3.33301 10.667 6.66602 19.834 9.99902 27.501l9.5 22.5c3 7.33301 5.33301 14.833 7 22.5s2.5 16.834 2.5 27.501c0 5.33301 -1.33301 13.166 -4 23.499s-7.33398 20.666 -14.001 30.999s-15.167 19.333 -25.5 27s-23.5 11.5 -39.5 11.5c-28 -1.33301 -50 -3.5 -66 -6.5
s-27.833 -7.16699 -35.5 -12.5s-12.334 -12 -14.001 -20s-2.5 -18 -2.5 -30c0 -18 1.66699 -36.167 5 -54.5s7.16602 -36.833 11.499 -55.5s8.16602 -37.667 11.499 -57s5 -39 5 -59c0 -15.333 -6.33301 -26.5 -19 -33.5s-25.667 -10.5 -39 -10.5
c-20 0 -43.667 28.667 -71 86c-38.667 82 -68.334 136 -89.001 162c-46 58 -101.667 87 -167 87c-28.667 0 -43 -14.333 -43 -43c0 -17.333 22.667 -46.666 68 -87.999l63 -55l62 -56c46.667 -42 70 -73 70 -93l-33.5 -34.5l-31.5 -34.5c-29.333 -34 -66.333 -81 -111 -141
c-25.333 -33.333 -66.666 -50 -123.999 -50c-8 0 -17.5 -0.333008 -28.5 -1s-21.167 -2.16699 -30.5 -4.5s-17.333 -6.33301 -24 -12s-10 -13.5 -10 -23.5c0 -23.333 17 -42.333 51 -57c48 -21.333 96.667 -32 146 -32c38 0 78.333 27.333 121 82
c4.66699 5.33301 15.167 20.833 31.5 46.5l69.5 107.5c35.333 55.333 62.333 83 81 83c20.667 0 36 -5.5 46 -16.5s15 -26.5 15 -46.5c0 -21.333 -0.5 -40.333 -1.5 -57s-2.16699 -32.5 -3.5 -47.5s-2.5 -30 -3.5 -45s-1.5 -31.833 -1.5 -50.5c0 -8 2 -15.167 6 -21.5
s9 -11.833 15 -16.5s12.5 -8.5 19.5 -11.5s13.5 -5.16699 19.5 -6.5c15.333 0 29 5.16699 41 15.5s18.333 23.166 19 38.499l10 224c3.33301 13.333 7.83301 24.166 13.5 32.499s15.167 12.5 28.5 12.5c18.667 0 45.667 -27.667 81 -83l69.5 -107.5
c16.333 -25.667 26.833 -41.167 31.5 -46.5c42.667 -54.667 83 -82 121 -82c49.333 0 98 10.667 146 32c34 14.667 51 33.667 51 57z" />
    <glyph glyph-name="afii10025" unicode="&#x417;" horiz-adv-x="665" 
d="M581 258c32 32 48.0068 65.0039 48.0068 99.0039c-2 30.667 -14 54.667 -36 72s-60.333 31 -115 41c-22.667 4.66699 -41.5 11.834 -56.5 21.501s-25.167 22.5 -30.5 38.5c-2 6 -3 11 -3 15c0 22 34.333 34.333 103 37c69.333 4 111.333 12.333 126 25
c7.33301 6.66699 14.166 14.167 20.499 22.5s9.5 18.833 9.5 31.5c0 10.667 -1.83301 19.834 -5.5 27.501s-8.16699 13.667 -13.5 18s-11.166 7.5 -17.499 9.5s-12.5 3 -18.5 3c-4 0 -10.833 -1 -20.5 -3s-19.834 -4.33301 -30.501 -7l-31 -8
c-10 -2.66699 -17 -4.33398 -21 -5.00098c-76.667 -13.333 -128.667 -20 -156 -20c-34.667 0 -57.334 8.33301 -68.001 25c-4 5.33301 -6.33301 10 -7 14s-1 9 -1 15c0 3.33301 0.166992 7.33301 0.5 12s0.833008 10.334 1.5 17.001c0 6.66699 -1.33301 11.834 -4 15.501
s-6.83398 6.5 -12.501 8.5s-12.667 3.5 -21 4.5l-28.5 3.5h-38c-4.66699 0 -12 -0.333008 -22 -1s-18 -1.66699 -24 -3c-14 -6 -24.5 -15.167 -31.5 -27.5s-10.5 -25.833 -10.5 -40.5c0 -19.333 3.66699 -34.5 11 -45.5s16.833 -19.5 28.5 -25.5s24.667 -9.83301 39 -11.5
s28.5 -2.5 42.5 -2.5h39c18 0 34.667 -2 50 -6c14.667 -3.33301 28 -11 40 -23s18 -23 18 -33c0 -18.667 -20.333 -35.334 -61 -50.001c-6.66699 -2.66699 -16.5 -5.83398 -29.5 -9.50098l-48.5 -13.5c-16 -4 -29.167 -10.167 -39.5 -18.5s-15.5 -18.166 -15.5 -29.499
c0 -7.33301 2.33301 -16 7 -26c5.33301 -10.667 12.666 -17.667 21.999 -21s21 -5 35 -5c6.66699 0 14.5 0.666992 23.5 2s15.5 2.33301 19.5 3c6 1.33301 12 3 18 5s12.333 3.66699 19 5c23.333 5.33301 41.666 8 54.999 8c18 0 34.5 -4.33301 49.5 -13
s28.833 -23.334 41.5 -44.001c4.66699 -7.33301 7.83398 -14.166 9.50098 -20.499s2.5 -13.833 2.5 -22.5c0 -24 -9.66699 -48.667 -29 -74c-8.66699 -11.333 -18.167 -21.833 -28.5 -31.5s-21.833 -18.834 -34.5 -27.501c-32 -22.667 -59.833 -38.334 -83.5 -47.001
s-47.834 -13 -72.501 -13c-13.333 0 -24 0.666992 -32 2s-15 2 -21 2c-24.667 0 -46.667 -8.66699 -66 -26c-18.667 -16.667 -28 -35.334 -28 -56.001c0 -10.667 3.16699 -20.667 9.5 -30s15.833 -17 28.5 -23c2.66699 -1.33301 5.66699 -2 9 -2
c15.333 3.33301 31.166 7.83301 47.499 13.5s32.5 10.5 48.5 14.5c10.667 2 22.667 3.66699 36 5s27.166 3.66602 41.499 6.99902s28.833 8.16602 43.5 14.499s29 15.166 43 26.499z" />
    <glyph glyph-name="afii10026" unicode="&#x418;" horiz-adv-x="778" 
d="M50 663c0 -14.667 0.333984 -39.1689 1.00098 -73.502s1.66699 -78.833 3 -133.5l3.5 -140c1 -38.667 1.83301 -69.334 2.5 -92.001s1.16699 -46.167 1.5 -70.5s0.833008 -50.166 1.5 -77.499c0 -32 10 -54 30 -66c13.333 -8.66699 35.333 -13 66 -13
c6.66699 0 16 0.333008 28 1s20.333 1 25 1c18 0 49.667 43.667 95 131l61 121.5l61 120.5c44.667 88 78 132 100 132c14 0 23.333 -15.333 28 -46c2 -14 3 -28.333 3 -43c0 -10 -0.333008 -16.333 -1 -19l-13 -331c1.33301 -18.667 12.833 -34.334 34.5 -47.001
s52.167 -19 91.5 -19c18.667 0 32.667 2.16699 42 6.5s14 13.166 14 26.499c-2 27.333 -3.83301 56.333 -5.5 87s-3.16699 63.334 -4.5 98.001s-2.5 66.834 -3.5 96.501s-1.5 57.167 -1.5 82.5c8 150.667 12 238.667 12 264c0 8.66699 -9.66699 18 -29 28
c-24.667 12.667 -57.667 19 -99 19c-31.333 0 -69 -33.333 -113 -100l-57.5 -100l-57.5 -100c-44.667 -77.333 -82.334 -125.666 -113.001 -144.999c-6.66699 -4.66699 -13 -7 -19 -7c-8.66699 0 -15 5.33301 -19 16s-6 23.334 -6 38.001c0 20.667 3 66 9 136
c3.33301 35.333 6.33301 71 9 107s5.66699 73 9 111c0 15.333 -10.5 27.666 -31.5 36.999s-55.5 14 -103.5 14c-14 0 -26.5 -5.16699 -37.5 -15.5s-16.5 -22.166 -16.5 -35.499z" />
    <glyph glyph-name="afii10027" unicode="&#x419;" horiz-adv-x="766" 
d="M47 663c0 -14.667 0.333984 -39.1689 1.00098 -73.502s1.66699 -78.833 3 -133.5l3.5 -140c1 -38.667 1.83301 -69.334 2.5 -92.001s1.16699 -46.167 1.5 -70.5s0.833008 -50.166 1.5 -77.499c0 -32 10 -54 30 -66c13.333 -8.66699 35.333 -13 66 -13
c6.66699 0 16 0.333008 28 1s20.333 1 25 1c18 0 49.667 43.667 95 131l61 121.5l61 120.5c44.667 88 78 132 100 132c14 0 23.333 -15.333 28 -46c2 -14 3 -28.333 3 -43c0 -10 -0.333008 -16.333 -1 -19l-13 -331c1.33301 -18.667 12.833 -34.334 34.5 -47.001
s52.167 -19 91.5 -19c18.667 0 32.667 2.16699 42 6.5s14 13.166 14 26.499c-2 27.333 -3.83301 56.333 -5.5 87s-3.16699 63.334 -4.5 98.001s-2.5 66.834 -3.5 96.501s-1.5 57.167 -1.5 82.5c8 150.667 12 238.667 12 264c0 8.66699 -9.66699 18 -29 28
c-24.667 12.667 -57.667 19 -99 19c-31.333 0 -69 -33.333 -113 -100l-57.5 -100l-57.5 -100c-44.667 -77.333 -82.334 -125.666 -113.001 -144.999c-6.66699 -4.66699 -13 -7 -19 -7c-8.66699 0 -15 5.33301 -19 16s-6 23.334 -6 38.001c0 20.667 3 66 9 136
c3.33301 35.333 6.33301 71 9 107s5.66699 73 9 111c0 15.333 -10.5 27.666 -31.5 36.999s-55.5 14 -103.5 14c-14 0 -26.5 -5.16699 -37.5 -15.5s-16.5 -22.166 -16.5 -35.499zM516.001 753.998c69.333 4 111.335 12.3301 126.002 24.9971s22 31.334 22 56.001
c0 20 -5 33.833 -15 41.5s-20 11.5 -30 11.5h-6c-14.667 0 -33.334 -3.33301 -56.001 -10c-11.333 -3.33301 -20.666 -5.66602 -27.999 -6.99902s-12.333 -2.33301 -15 -3c-76.667 -13.333 -128.667 -20 -156 -20c-34.667 0 -57.334 8.33301 -68.001 25
c-4 5.33301 -6.33301 10 -7 14s-1 9 -1 15c0 3.33301 0.166992 7.33301 0.5 12s0.833008 10.334 1.5 17.001c0 6.66699 -1.33301 11.834 -4 15.501s-6.83398 6.5 -12.501 8.5s-12.667 3.5 -21 4.5l-28.5 3.5h-38c-4.66699 0 -12 -0.333008 -22 -1s-18 -1.66699 -24 -3
c-14 -6 -24.5 -15.167 -31.5 -27.5s-10.5 -25.833 -10.5 -40.5c0 -18 4.66699 -34.167 14 -48.5s21 -23.5 35 -27.5c14.667 -4.66699 26.667 -7.33398 36 -8.00098s21.333 -1 36 -1h39c18 0 34.667 -2 50 -6c14.667 -3.33301 28 -11 40 -23s18 -23 18 -33z" />
    <glyph glyph-name="afii10028" unicode="&#x41a;" horiz-adv-x="813" 
d="M778 91c-3.33301 22.667 -33.666 33.998 -90.999 33.998s-98.666 16.667 -123.999 50c-45.333 60 -82.333 107 -111 141l-31.5 34.5l-33.5 34.5c0 20 23.333 51 70 93l62 56l63 55c45.333 41.333 68 70.666 68 87.999c0 28.667 -14.333 43 -43 43
c-65.333 0 -121 -29 -167 -87c-20.667 -26 -50.334 -80 -89.001 -162c-27.333 -57.333 -51 -86 -71 -86c-16.667 0 -30.667 6 -42 18s-17 26 -17 42v167c0 4 2 11.667 6 23c8 22.667 12 38.334 12 47.001c0 12 -4.33301 21.333 -13 28s-24 10 -46 10
c-28 0 -57.333 -8 -88 -24c-30.667 -14.667 -46 -27.667 -46 -39l18 -63l19 -63c5.33301 -34.667 9.33301 -76.334 12 -125.001s4 -105 4 -169c0 -34 -2.66699 -66.833 -8 -98.5s-11.333 -61.5 -18 -89.5c0 -19.333 6.16699 -33.166 18.5 -41.499s30.5 -12.5 54.5 -12.5
c26 0 50.333 9.33301 73 28c18.667 14.667 28 34.667 28 60c0 40 -0.666992 72.833 -2 98.5s-2 39.834 -2 42.501c0 1.33301 -0.333008 5.33301 -1 12s-1 12.334 -1 17.001c0 17.333 2.66699 31.833 8 43.5s15.666 17.5 30.999 17.5c18.667 0 45.667 -27.667 81 -83
l69.5 -107.5c16.333 -25.667 26.833 -41.167 31.5 -46.5c42.667 -54.667 83 -82 121 -82c49.333 0 98 10.667 146 32c34 14.667 51 33.667 51 57c0 4 -0.333008 7 -1 9z" />
    <glyph glyph-name="afii10029" unicode="&#x41b;" horiz-adv-x="958" 
d="M943 77c0 30 -26.6689 44.999 -80.002 44.999s-91.333 13 -114 39c-4 6 -22 38.667 -54 98l-40 74c-9.33301 17.333 -14.666 27.666 -15.999 30.999c-50 124 -95.333 213.333 -136 268c-41.333 55.333 -83 83 -125 83c-60.667 0 -116.667 -5.66699 -168 -17
c-42.667 -8.66699 -64 -17.667 -64 -27c0 -21.333 9.33301 -42.333 28 -63c16 -18 28.667 -27 38 -27c14 0 33.667 2 59 6c24.667 4 42 6 52 6c22.667 0 39.834 -6.83301 51.501 -20.5s17.5 -39.5 17.5 -77.5c0 -14 -5.5 -29.833 -16.5 -47.5s-25 -36.334 -42 -56.001
s-36 -39.667 -57 -60l-60.5 -59.5c-19.333 -19.333 -36.666 -37.666 -51.999 -54.999s-26.333 -32.666 -33 -45.999c-60.667 -70.667 -91 -114.667 -91 -132c0 -9.33301 3.83301 -18.166 11.5 -26.499s19.167 -12.5 34.5 -12.5c53.333 -0 105 34.333 155 103
c7.33301 9.33301 44.666 73 111.999 191c38.667 68 72 102 100 102c18 0 40 -34.333 66 -103c36 -95.333 63.667 -159 83 -191c40.667 -68 89 -102 145 -102s101.667 5.66699 137 17c39.333 13.333 59 33.333 59 60z" />
    <glyph glyph-name="afii10030" unicode="&#x41c;" horiz-adv-x="898" 
d="M847 39l-6.99805 107.999c-1.33301 21.333 -2.33301 42.666 -3 63.999s-1 42.333 -1 63v285c0 1.33301 0.5 6.5 1.5 15.5s2.16699 22.167 3.5 39.5c0.666992 3.33301 1 7.33301 1 12v17c0 20.667 -5 36.334 -15 47.001s-29 16 -57 16c-35.333 0 -74.333 -31.333 -117 -94
l-101 -175c-36 -62 -64 -93 -84 -93c-36.667 0 -74.334 31.333 -113.001 94l-45 86l-45 87c-32 62 -59 93 -81 93c-36.667 0 -66.334 -4 -89.001 -12c-30 -11.333 -45 -28 -45 -50l12 -70c1.33301 -13.333 2.5 -29.333 3.5 -48s1.5 -40.667 1.5 -66
c0 -102.667 -1 -187.667 -3 -255s-4.66699 -120.666 -8 -159.999c0 -19.333 5.66699 -31.666 17 -36.999s32.333 -8 63 -8c76 0 114 15 114 45c-4.66699 44.667 -8.83398 90.667 -12.501 138s-5.5 101.666 -5.5 162.999c-0.666992 3.33301 -1 10 -1 20
c0 8 1.33301 17.667 4 29c3.33301 13.333 10.666 20 21.999 20c16 0 44 -31.333 84 -94s77.667 -94 113 -94c42.667 0 79.334 31.333 110.001 94s58 94 82 94c14 0 24 -8 30 -24c4 -11.333 6 -25 6 -41v-6c0 -2 -0.333008 -4.66699 -1 -8
c0 -20.667 -0.333008 -43.5 -1 -68.5s-1.66699 -52.5 -3 -82.5c-3.33301 -59.333 -6.33301 -107.333 -9 -144c0 -14.667 2.33301 -25.167 7 -31.5s16.334 -9.5 35.001 -9.5c48.667 0 83.667 4.16699 105 12.5s32 17.833 32 28.5z" />
    <glyph glyph-name="afii10031" unicode="&#x41d;" horiz-adv-x="758" 
d="M707 85l-16.9971 357.004c0.666992 28 2.66699 64 6 108c1.33301 26 3 50.5 5 73.5s4 44.167 6 63.5c0 10 -7.66699 17.167 -23 21.5s-41 6.5 -77 6.5c-24 0 -42.667 -3.66699 -56 -11c-18 -10 -27 -26.333 -27 -49c0 -2.66699 1 -10.334 3 -23.001l8 -53
c1.33301 -7.33301 2.66602 -16 3.99902 -26s3.33301 -21.667 6 -35c0 -41.333 -11 -69 -33 -83c-17.333 -11.333 -48 -17 -92 -17c-28 0.666992 -54 1.5 -78 2.5s-45.333 1.5 -64 1.5c-24 0 -40.5 6.16699 -49.5 18.5s-13.5 30.5 -13.5 54.5c0 7.33301 0.5 17 1.5 29
s2.83301 26.333 5.5 43s4.5 31 5.5 43s1.5 21.667 1.5 29c0 24 -4 42 -12 54c-10 14.667 -26.667 22 -50 22c-22 0 -45 -4.33301 -69 -13c-32.667 -10.667 -49 -26.334 -49 -47.001l14 -116c3.33301 -24.667 5.16602 -50.334 5.49902 -77.001s0.5 -54.334 0.5 -83.001
c0 -2.66699 -0.833008 -16.834 -2.5 -42.501l-7.5 -112.5l-7.5 -113.5c-1.66699 -26.333 -2.5 -41.5 -2.5 -45.5c0 -18.667 7.16699 -34.5 21.5 -47.5s31.833 -19.5 52.5 -19.5c28.667 0 52.667 4 72 12c26.667 10.667 40 29 40 55c0 4 -3 34.667 -9 92
c-3.33301 29.333 -5.83301 52 -7.5 68s-2.5 25.667 -2.5 29c0 35.333 10.333 59.333 31 72c14.667 10 37.667 15 69 15h102c40 0 69.333 -4.66699 88 -14c26 -13.333 39 -37.666 39 -72.999c0 -50 -1.83301 -89 -5.5 -117s-8.83398 -52 -15.501 -72
c0 -22 5.66699 -39.667 17 -53c8 -9.33301 17 -14 27 -14l33 -2c28.667 0 51.667 5 69 15c24.667 14 37 38.667 37 74z" />
    <glyph glyph-name="afii10032" unicode="&#x41e;" horiz-adv-x="903" 
d="M866 365c0 102 -43.667 187.668 -131 257.001c-83.333 66 -182 99 -296 99c-112.667 0 -207.667 -33.667 -285 -101c-76.667 -66.667 -115 -151.667 -115 -255v-8c0 -4 -0.333008 -9.66699 -1 -17c0 -44.667 6.66699 -86.334 20 -125.001
c20.667 -59.333 57.667 -107.666 111 -144.999c67.333 -46.667 158.333 -70 273 -70c132 0 234.667 30.667 308 92c52.667 44 87.667 101.667 105 173c7.33301 31.333 11 64.666 11 99.999zM677 332.001c0 -51.333 -14.665 -99.667 -43.998 -145
c-42 -65.333 -106.667 -98 -194 -98c-72.667 0 -130.334 33 -173.001 99c-32 48.667 -48 96.667 -48 144c0 89.333 19.333 159.333 58 210c42.667 56.667 97 85 163 85c55.333 0 103.666 -16.667 144.999 -50c62 -50 93 -131.667 93 -245z" />
    <glyph glyph-name="afii10033" unicode="&#x41f;" horiz-adv-x="977" 
d="M937 650c0 20 -7.16797 35.8359 -21.501 47.5029s-30.5 17.5 -48.5 17.5h-759c-22.667 0 -40 -7.83301 -52 -23.5s-18 -34.834 -18 -57.501c0 -12.667 6.5 -23.5 19.5 -32.5s29.833 -13.5 50.5 -13.5c40 0 66.333 -8.33301 79 -25c12.667 -15.333 19 -45.333 19 -90
c-3.33301 -31.333 -5.33301 -60.333 -6 -87s-1.16699 -53 -1.5 -79s-1 -52.667 -2 -80s-3.5 -56.666 -7.5 -87.999c-2.66699 -21.333 -4.5 -37.833 -5.5 -49.5s-1.5 -18.167 -1.5 -19.5c0 -22.667 4.66699 -40.5 14 -53.5s21.666 -19.5 36.999 -19.5c42 0 70 3 84 9
c27.333 11.333 41 36.666 41 75.999c-2 31.333 -4.5 66.666 -7.5 105.999s-5.83301 79 -8.5 119s-5 78.833 -7 116.5s-3 70.5 -3 98.5c0 35.333 8.33301 57.333 25 66c16.667 10 47.334 15 92.001 15h22c10 0 22.667 -0.333008 38 -1s29 -1 41 -1h33c24 0 41 -10.667 51 -32
c16 -34 24 -102.667 24 -206c0 -47.333 -3 -108.333 -9 -183c-1.33301 -12.667 -2.66602 -27 -3.99902 -43s-3 -34.333 -5 -55c0 -25.333 2.33301 -43 7 -53c9.33301 -21.333 26.333 -32 51 -32c52.667 0 86.667 8 102 24c10.667 10.667 16 37.667 16 81
c0 30 -1 62.5 -3 97.5l-6.5 108.5c-2.33301 37.333 -4.5 74.833 -6.5 112.5s-3 74.167 -3 109.5c0 14 0.833008 25.167 2.5 33.5s5 15 10 20s12 8.33301 21 10s21.167 2.5 36.5 2.5c21.333 0 38.333 3.66699 51 11s19 21.666 19 42.999z" />
    <glyph glyph-name="afii10034" unicode="&#x420;" horiz-adv-x="642" 
d="M634 484c0 75.333 -28.6709 131.002 -86.0039 167.002c-63.333 40.667 -169.333 61 -318 61c-57.333 0 -98.666 -8.66699 -123.999 -26c-18.667 -12.667 -28 -31.667 -28 -57c0 -10.667 3.33301 -28.334 10 -53.001c2.66699 -10 4 -18 4 -24v-224
c0 -38.667 -1 -80.667 -3 -126s-5.33301 -94 -10 -146c-5.33301 -65.333 -13.333 -139.333 -24 -222l-6 -45.5l-6 -45.5c2 -0.666992 8.66699 -1 20 -1c9.33301 0.666992 19.333 1 30 1h33c5.33301 0 11.5 -0.166992 18.5 -0.5s13.833 -0.833008 20.5 -1.5
s12.834 -1.16699 18.501 -1.5s9.83398 -0.5 12.501 -0.5c22.667 0 34 9.66699 34 29v732c-1.33301 5.33301 -2.66602 12 -3.99902 20s-2 16.667 -2 26c0 23.333 5.33301 41.333 16 54c14 17.333 37 26 69 26c41.333 0 80.333 -12.667 117 -38c30 -21.333 45 -49 45 -83
c0 -72.667 -18.333 -120.334 -55 -143.001c-21.333 -13.333 -60.333 -36.333 -117 -69l63 -16c56.667 0 112.667 16.333 168 49c69.333 41.333 104 94 104 158z" />
    <glyph glyph-name="afii10035" unicode="&#x421;" horiz-adv-x="814" 
d="M779 175c0 14.667 -4.16699 24.499 -12.5 29.499s-18.5 7.5 -30.5 7.5c-3.33301 0 -6.83301 -0.333008 -10.5 -1s-6.16699 -1 -7.5 -1c-68 0 -117.333 -22 -148 -66c-31.333 -43.333 -72.333 -65 -123 -65c-64 0 -117.333 15.333 -160 46
c-56.667 40.667 -85 105.667 -85 195c0 84.667 13 151 39 199c34 62.667 90.667 94 170 94c73.333 0 130.666 -26 171.999 -78c18.667 -24 44.667 -36 78 -36c44 0 74.667 4.33301 92 13s26 22 26 40c0 31.333 -37.667 64 -113 98s-148.333 51 -219 51
c-114.667 0 -207 -28 -277 -84c-51.333 -41.333 -89 -96.666 -113 -165.999c-14.667 -42 -22 -80 -22 -114c0 -115.333 49 -203.333 147 -264c76.667 -48.667 166.334 -73 269.001 -73c78 0 147 16 207 48c80.667 42.667 121 85 121 127z" />
    <glyph glyph-name="afii10036" unicode="&#x422;" horiz-adv-x="862" 
d="M839 605c0 23.333 -1 42.501 -3 57.501s-5 26.833 -9 35.5s-9.33301 14.667 -16 18s-14.667 5 -24 5h-711c-17.333 0 -31 -11.667 -41 -35c-7.33301 -18 -11 -34.667 -11 -50c0 -41.333 4 -71.333 12 -90c10.667 -26 31.667 -39 63 -39c52 0 83.333 21.333 94 64
c12 43.333 46.333 65 103 65c24 0 40.833 -8.5 50.5 -25.5s14.5 -44.5 14.5 -82.5c0 -23.333 -1 -61.333 -3 -114l-2 -77.5c-0.666992 -25 -1.66699 -49.833 -3 -74.5l-28 -230c0 -14 8 -23.333 24 -28c4 -1.33301 9.83301 -2.33301 17.5 -3s16 -1.16699 25 -1.5
s17.833 -0.5 26.5 -0.5h22c32 0 53 3.5 63 10.5s15 17.5 15 31.5c-6 26 -10.667 48.167 -14 66.5s-5.83301 34.166 -7.5 47.499s-2.66699 25.333 -3 36s-0.5 21.667 -0.5 33v346c0 18 6.5 33.5 19.5 46.5s32.833 19.5 59.5 19.5c47.333 0 76 -21.667 86 -65
c10 -42.667 36 -64 78 -64c40 0 65.667 4 77 12c17.333 13.333 26 42 26 86z" />
    <glyph glyph-name="afii10037" unicode="&#x423;" horiz-adv-x="955" 
d="M941 637c0 26.667 -19.665 46.666 -58.998 59.999c-35.333 11.333 -81 17 -137 17s-104.333 -34 -145 -102c-19.333 -32 -47 -95.667 -83 -191c-26 -68.667 -48 -103 -66 -103c-28 0 -61.333 34 -100 102c-67.333 118 -104.666 181.667 -111.999 191
c-50 68.667 -101.667 103 -155 103c-15.333 0 -26.833 -4.16699 -34.5 -12.5s-11.5 -17.166 -11.5 -26.499c0 -17.333 30.333 -61.333 91 -132c6.66699 -13.333 17.667 -28.666 33 -45.999s32.666 -35.666 51.999 -54.999l60.5 -59.5c21 -20.333 40 -40.333 57 -60
s31 -38.334 42 -56.001s16.5 -33.5 16.5 -47.5c0 -38 -5.83301 -63.833 -17.5 -77.5s-28.834 -20.5 -51.501 -20.5c-10 0 -27.333 2 -52 6c-25.333 4 -45 6 -59 6c-9.33301 0 -22 -9 -38 -27c-18.667 -20.667 -28 -41.667 -28 -63c0 -9.33301 21.333 -18.333 64 -27
c51.333 -11.333 107.333 -17 168 -17c42 0 83.667 27.667 125 83c40.667 54.667 86 144 136 268c1.33301 3.33301 6.66602 13.666 15.999 30.999l40 74c32 59.333 50 92 54 98c22.667 26 60.667 39 114 39s80 15 80 45z" />
    </font>
</defs>
</svg>
